SplineFontDB: 3.0
FontName: NovaScript
FullName: Nova Script
FamilyName: Nova Script
Weight: Book
Copyright: Copyright (c) 2011, wmk69 (wmk69@o2.pl)\nwith Reserved Font Names 'NovaScript' and 'Nova Script'.\n\nThis Font Software is licensed under the SIL Open Font License, Version 1.1.\nThis license is available with a FAQ at:\nhttp://scripts.sil.org/OFL
Version: 2.000
ItalicAngle: -13
UnderlinePosition: -81
UnderlineWidth: 122
Ascent: 1638
Descent: 410
LayerCount: 2
Layer: 0 1 "Warstwa t+AUIA-a"  1
Layer: 1 1 "Plan pierwszy"  0
XUID: [1021 783 23647091 8360855]
FSType: 0
OS2Version: 3
OS2_WeightWidthSlopeOnly: 0
OS2_UseTypoMetrics: 1
CreationTime: 1260698820
ModificationTime: 1313914555
PfmFamily: 33
TTFWeight: 400
TTFWidth: 5
LineGap: 0
VLineGap: 0
Panose: 2 12 5 4 2 4 4 13 2 4
OS2TypoAscent: 1966
OS2TypoAOffset: 0
OS2TypoDescent: -506
OS2TypoDOffset: 0
OS2TypoLinegap: 0
OS2WinAscent: 1966
OS2WinAOffset: 0
OS2WinDescent: 506
OS2WinDOffset: 0
HheadAscent: 1966
HheadAOffset: 0
HheadDescent: -506
HheadDOffset: 0
OS2SubXSize: 1434
OS2SubYSize: 1331
OS2SubXOff: 0
OS2SubYOff: 287
OS2SupXSize: 1434
OS2SupYSize: 1331
OS2SupXOff: 0
OS2SupYOff: 977
OS2StrikeYSize: 102
OS2StrikeYPos: 512
OS2Vendor: '    '
OS2CodePages: 20000093.00000000
OS2UnicodeRanges: 8000002f.4000204b.00000000.00000000
Lookup: 258 0 0 "'kern' Kerning poziomy w tablicy 0"  {"Podtablica 'kern' Kerning poziomy w tablicy 0"  } ['kern' ('DFLT' <'dflt' > 'grek' <'dflt' > 'latn' <'dflt' > ) ]
DEI: 91125
KernClass2: 29 17 "Podtablica 'kern' Kerning poziomy w tablicy 0" 
 187 A D H M N V W Agrave Aacute Acircumflex Atilde Adieresis Aring Eth Ntilde Dcaron Dcroat Hcircumflex Hbar Nacute Ncommaaccent Ncaron Eng Wcircumflex uni1E0A uni1E40 Wgrave Wacute Wdieresis
 20 B germandbls uni1E02
 195 C G O Q Ccedilla Ograve Oacute Ocircumflex Otilde Odieresis Oslash Cacute Ccircumflex Cdotaccent Ccaron Gcircumflex Gbreve Gdotaccent Gcommaaccent Omacron Obreve Ohungarumlaut uni01E4 Oslashacute

StartChar: .notdef
Encoding: 65536 -1 0
Width: 894
Flags: W
HStem: 0 118<295 653> 1392 118<589 947>
VStem: 150 594<0 594> 499 594<916 1510>
DStem2: 150 0 267.758 0 0.224951 0.97437<147.594 1455.08> 625.758 0 744 0 0.224951 0.97437<121.104 1428.59>
LayerCount: 2
Fore
SplineSet
150 0 m 1,0,-1
 499 1510 l 1,1,-1
 1093 1510 l 1,2,-1
 744 0 l 1,3,-1
 150 0 l 1,0,-1
589 1392 m 1,4,-1
 295 118 l 1,5,-1
 653 118 l 1,6,-1
 947 1392 l 1,7,-1
 589 1392 l 1,4,-1
EndSplineSet
Validated: 1
EndChar

StartChar: exclam
Encoding: 33 33 4
Width: 600
GlyphClass: 2
Flags: W
HStem: -20 245<248.965 398.828> 1530 20G<701.111 758>
VStem: 199 249<29.0781 174.973>
DStem2: 195.418 -20 395.64 -20 0.224951 0.97437<588.981 1518.91>
LayerCount: 2
Fore
SplineSet
203 102 m 0,0,1
 215 153 215 153 258 189 c 128,-1,2
 301 225 301 225 352 225 c 128,-1,3
 403 225 403 225 429 189 c 0,4,5
 448 163 448 163 448 132 c 0,6,7
 448 117 448 117 444 102 c 0,8,9
 430 49 430 49 389 16 c 0,10,11
 344 -20 344 -20 294 -20 c 128,-1,12
 244 -20 244 -20 217 17 c 0,13,14
 199 40 199 40 199 71 c 0,15,16
 199 84 199 84 203 102 c 0,0,1
748 1550 m 1,17,-1
 758 1550 l 1,18,-1
 518 510 l 1,19,-1
 307 420 l 1,20,-1
 297 420 l 1,21,-1
 537 1460 l 1,22,-1
 748 1550 l 1,17,-1
EndSplineSet
Validated: 1
EndChar

StartChar: quotedbl
Encoding: 34 34 5
Width: 747
GlyphClass: 2
Flags: W
HStem: 992 558
VStem: 379 576
DStem2: 379 992 544.916 992 0.224951 0.97437<113.269 496.79> 660 992 825.916 992 0.224951 0.97437<113.269 496.79>
LayerCount: 2
Fore
SplineSet
945 1550 m 1,0,-1
 955 1550 l 1,1,-1
 843 1066 l 1,2,-1
 670 992 l 1,3,-1
 660 992 l 1,4,-1
 772 1476 l 1,5,-1
 945 1550 l 1,0,-1
664 1550 m 1,6,-1
 674 1550 l 1,7,-1
 562 1066 l 1,8,-1
 389 992 l 1,9,-1
 379 992 l 1,10,-1
 491 1476 l 1,11,-1
 664 1550 l 1,6,-1
EndSplineSet
Validated: 1
EndChar

StartChar: numbersign
Encoding: 35 35 6
Width: 1368
GlyphClass: 2
Flags: W
HStem: 520 182<393 568 792 858 1082 1257> 810 182<460 635 859 925 1149 1324>
DStem2: 499 222 681.3 222 0.224951 0.97437<124.139 305.884 533.608 603.523 831.247 1012.99> 789 222 971.3 222 0.224951 0.97437<124.139 305.884 533.608 603.523 831.247 1012.99>
LayerCount: 2
Fore
SplineSet
499 222 m 1,0,-1
 568 520 l 1,1,-1
 270 520 l 1,2,-1
 272 530 l 1,3,-1
 393 702 l 1,4,-1
 610 702 l 1,5,-1
 635 810 l 1,6,-1
 337 810 l 1,7,-1
 339 820 l 1,8,-1
 460 992 l 1,9,-1
 677 992 l 1,10,-1
 727 1209 l 1,11,-1
 918 1290 l 1,12,-1
 928 1290 l 1,13,-1
 859 992 l 1,14,-1
 967 992 l 1,15,-1
 1017 1209 l 1,16,-1
 1208 1290 l 1,17,-1
 1218 1290 l 1,18,-1
 1149 992 l 1,19,-1
 1447 992 l 1,20,-1
 1445 982 l 1,21,-1
 1324 810 l 1,22,-1
 1107 810 l 1,23,-1
 1082 702 l 1,24,-1
 1380 702 l 1,25,-1
 1378 692 l 1,26,-1
 1257 520 l 1,27,-1
 1040 520 l 1,28,-1
 990 303 l 1,29,-1
 799 222 l 1,30,-1
 789 222 l 1,31,-1
 858 520 l 1,32,-1
 750 520 l 1,33,-1
 700 303 l 1,34,-1
 509 222 l 1,35,-1
 499 222 l 1,0,-1
792 702 m 1,36,-1
 900 702 l 1,37,-1
 925 810 l 1,38,-1
 817 810 l 1,39,-1
 792 702 l 1,36,-1
EndSplineSet
Validated: 1
EndChar

StartChar: dollar
Encoding: 36 36 7
Width: 1270
GlyphClass: 2
Flags: W
HStem: -19 171<509.016 573>
VStem: 482 208<1006.21 1227.78> 1036 207<379.875 661.215>
DStem2: 522 -240 637.457 -240 0.224951 0.97437<77.2873 226.808 437.512 1032.79 1238.6 1631.81 1839.59 1990.83>
LayerCount: 2
Fore
SplineSet
216 288 m 1,0,-1
 396 366 l 1,1,-1
 406 366 l 1,2,3
 458 173 458 173 612 152 c 1,4,-1
 755 770 l 1,5,6
 644 804 644 804 569 868 c 0,7,8
 482 942 482 942 482 1053 c 0,9,10
 482 1091 482 1091 492 1132 c 0,11,12
 536 1311 536 1311 690 1428 c 0,13,14
 797 1509 797 1509 929 1526 c 1,15,-1
 969 1700 l 1,16,-1
 1087 1750 l 1,17,-1
 1097 1750 l 1,18,-1
 1046 1527 l 1,19,20
 1230 1505 1230 1505 1295 1302 c 1,21,-1
 1119 1227 l 1,22,-1
 1109 1227 l 1,23,24
 1081 1331 1081 1331 1006 1354 c 1,25,-1
 909 935 l 1,26,27
 1087 897 1087 897 1179 779 c 0,28,29
 1243 697 1243 697 1243 584 c 0,30,31
 1242 530 1242 530 1229 472 c 0,32,33
 1187 283 1187 283 1006 132 c 1,34,35
 861 8 861 8 690 -15 c 1,36,-1
 649 -190 l 1,37,-1
 532 -240 l 1,38,-1
 522 -240 l 1,39,-1
 573 -19 l 1,40,41
 306 0 306 0 216 288 c 1,0,-1
800 967 m 1,42,-1
 889 1350 l 1,43,44
 836 1336 836 1336 791 1299 c 0,45,46
 718 1239 718 1239 696 1147 c 0,47,48
 690 1122 690 1122 690 1101 c 0,49,50
 691 1052 691 1052 718 1021 c 128,-1,51
 745 990 745 990 800 967 c 1,42,-1
864 741 m 1,52,-1
 730 161 l 1,53,54
 817 186 817 186 906 265 c 0,55,56
 996 345 996 345 1028 478 c 0,57,58
 1036 511 1036 511 1036 541 c 0,59,60
 1036 602 1036 602 1003 648 c 0,61,62
 958 711 958 711 864 741 c 1,52,-1
EndSplineSet
Validated: 1
EndChar

StartChar: percent
Encoding: 37 37 8
Width: 2052
GlyphClass: 2
Flags: W
HStem: -40 21G<695.941 756.929> -20 147<1466.96 1679.98> 633 147<1561.09 1774.18> 730 147<625.961 838.976> 1383 147<720.091 933.182> 1530 20G<1654.06 1714.76>
VStem: 399 195<919.018 1222.33> 965 196<1033.89 1339.31> 1240 195<169.018 472.326> 1806 196<283.891 589.309>
DStem2: 607 28 743 -40 0.57187 0.820345<21.9908 1855.32>
LayerCount: 2
Fore
SplineSet
1793 380 m 0,0,1
 1806 436 1806 436 1806 480 c 0,2,3
 1806 539 1806 539 1783 577 c 0,4,5
 1749 633 1749 633 1679 633 c 128,-1,6
 1609 633 1609 633 1552 580 c 0,7,8
 1479 511 1479 511 1448 380 c 0,9,10
 1435 324 1435 324 1435 280 c 0,11,12
 1435 219 1435 219 1460 180 c 0,13,14
 1494 127 1494 127 1562 127 c 0,15,16
 1634 127 1634 127 1691 181 c 0,17,18
 1762 248 1762 248 1793 380 c 0,0,1
1253 383 m 0,19,20
 1293 557 1293 557 1437 679 c 0,21,22
 1556 780 1556 780 1713 780 c 128,-1,23
 1870 780 1870 780 1941 680 c 0,24,25
 2002 594 2002 594 2002 482 c 0,26,27
 2002 434 2002 434 1990 380 c 0,28,29
 1947 202 1947 202 1803 80 c 0,30,31
 1685 -20 1685 -20 1529 -20 c 0,32,33
 1371 -20 1371 -20 1300 81 c 0,34,35
 1240 166 1240 166 1240 274 c 0,36,37
 1240 328 1240 328 1253 383 c 0,19,20
952 1130 m 0,38,39
 965 1186 965 1186 965 1230 c 0,40,41
 965 1289 965 1289 942 1327 c 0,42,43
 908 1383 908 1383 838 1383 c 128,-1,44
 768 1383 768 1383 711 1330 c 0,45,46
 638 1261 638 1261 607 1130 c 0,47,48
 594 1074 594 1074 594 1030 c 0,49,50
 594 969 594 969 619 930 c 0,51,52
 653 877 653 877 721 877 c 0,53,54
 793 877 793 877 850 931 c 0,55,56
 921 998 921 998 952 1130 c 0,38,39
412 1133 m 0,57,58
 452 1307 452 1307 596 1429 c 0,59,60
 715 1530 715 1530 872 1530 c 128,-1,61
 1029 1530 1029 1530 1100 1430 c 0,62,63
 1161 1344 1161 1344 1161 1232 c 0,64,65
 1161 1184 1161 1184 1149 1130 c 0,66,67
 1106 952 1106 952 962 830 c 0,68,69
 844 730 844 730 688 730 c 0,70,71
 530 730 530 730 459 831 c 0,72,73
 399 916 399 916 399 1024 c 0,74,75
 399 1078 399 1078 412 1133 c 0,57,58
733 -40 m 1,76,-1
 607 28 l 1,77,-1
 1668 1550 l 1,78,-1
 1678 1550 l 1,79,-1
 1803 1482 l 1,80,-1
 743 -40 l 1,81,-1
 733 -40 l 1,76,-1
EndSplineSet
Validated: 1
EndChar

StartChar: ampersand
Encoding: 38 38 9
Width: 1562
GlyphClass: 2
Flags: W
HStem: -40 192<529.603 739> 761 159<865 1065> 1360 170<814.146 1070.54>
VStem: 242 203<230.942 552.897> 492 194<981.6 1228.31> 1256 197<50.2954 359.31>
DStem2: 739 152 787 -40 0.643883 0.765124<-34.1029 431.248 636.111 1078.73>
LayerCount: 2
Fore
SplineSet
787 -40 m 1,0,1
 418 -40 418 -40 306 123 c 0,2,3
 242 216 242 216 242 338 c 0,4,5
 242 399 242 399 258 468 c 0,6,7
 305 671 305 671 483 801 c 0,8,9
 539 842 539 842 577 859 c 1,10,11
 492 947 492 947 492 1059 c 0,12,13
 492 1096 492 1096 502 1137 c 0,14,15
 546 1331 546 1331 695 1434 c 0,16,17
 835 1530 835 1530 1008 1530 c 0,18,19
 1232 1530 1232 1530 1304 1302 c 1,20,-1
 1128 1227 l 1,21,-1
 1118 1227 l 1,22,23
 1081 1360 1081 1360 967 1360 c 0,24,25
 865 1360 865 1360 790 1298 c 0,26,27
 711 1232 711 1232 691 1137 c 0,28,29
 686 1113 686 1113 686 1090 c 0,30,31
 686 1040 686 1040 715 998 c 0,32,33
 762 932 762 932 873 926 c 128,-1,34
 984 920 984 920 1065 920 c 1,35,36
 1063 910 1063 910 1063 886 c 0,37,38
 1063 854 1063 854 1067 790 c 0,39,40
 1074 673 1074 673 1133 616 c 1,41,-1
 1434 977 l 1,42,-1
 1444 977 l 1,43,-1
 1573 894 l 1,44,-1
 1273 534 l 1,45,46
 1363 490 1363 490 1423 398 c 0,47,48
 1453 352 1453 352 1453 264 c 0,49,50
 1453 178 1453 178 1424 50 c 1,51,-1
 1213 -40 l 1,52,-1
 1203 -40 l 1,53,54
 1256 188 1256 188 1256 270 c 0,55,56
 1256 339 1256 339 1160 400 c 1,57,-1
 787 -40 l 1,0,1
865 761 m 1,58,59
 693 761 693 761 603 690 c 0,60,61
 489 599 489 599 456 466 c 0,62,63
 445 421 445 421 445 380 c 0,64,65
 445 306 445 306 479 246 c 0,66,67
 532 152 532 152 739 152 c 1,68,-1
 1019 480 l 1,69,70
 895 540 895 540 865 761 c 1,58,59
EndSplineSet
Validated: 1
EndChar

StartChar: quotesingle
Encoding: 39 39 10
Width: 466
GlyphClass: 2
Flags: W
HStem: 992 558
VStem: 379 295
DStem2: 379 992 544.916 992 0.224951 0.97437<113.269 496.79>
LayerCount: 2
Fore
SplineSet
664 1550 m 1,0,-1
 674 1550 l 1,1,-1
 562 1066 l 1,2,-1
 389 992 l 1,3,-1
 379 992 l 1,4,-1
 491 1476 l 1,5,-1
 664 1550 l 1,0,-1
EndSplineSet
Validated: 1
EndChar

StartChar: parenleft
Encoding: 40 40 11
Width: 783
GlyphClass: 2
Flags: W
HStem: 1601 149<1015.54 1062>
VStem: 292 200<86.5394 592.5>
DStem2: 144.46 -240 344.46 -240 0.224951 0.97437<594.091 1589.75>
LayerCount: 2
Fore
SplineSet
603 -240 m 1,0,-1
 593 -240 l 1,1,2
 391 -166 391 -166 316 88 c 0,3,4
 292 169 292 169 292 272 c 0,5,6
 292 398 292 398 328 555 c 2,7,-1
 420 955 l 2,8,9
 487 1242 487 1242 624 1422 c 0,10,11
 817 1676 817 1676 1052 1750 c 1,12,-1
 1062 1750 l 1,13,-1
 1103 1601 l 1,14,15
 903 1516 903 1516 778 1344 c 0,16,17
 679 1208 679 1208 620 955 c 10,18,-1
 528 555 l 18,19,20
 492 397 492 397 492 286 c 0,21,22
 492 217 492 217 506 166 c 0,23,24
 554 -7 554 -7 712 -91 c 1,25,-1
 603 -240 l 1,0,-1
EndSplineSet
Validated: 1
EndChar

StartChar: parenright
Encoding: 41 41 12
Width: 783
GlyphClass: 2
Flags: W
HStem: -240 149<70 116.312>
VStem: 640 200<923.75 1420.18>
DStem2: 327.46 -240 527.46 -240 0.224951 0.97437<498.437 1491.44>
LayerCount: 2
Fore
SplineSet
70 -240 m 1,0,-1
 29 -91 l 1,1,2
 226 -7 226 -7 353 166 c 0,3,4
 452 301 452 301 511 555 c 10,5,-1
 603 955 l 18,6,7
 640 1111 640 1111 640 1222 c 0,8,9
 640 1293 640 1293 625 1344 c 0,10,11
 573 1519 573 1519 420 1601 c 1,12,-1
 529 1750 l 1,13,-1
 539 1750 l 1,14,15
 738 1676 738 1676 815 1422 c 0,16,17
 840 1340 840 1340 840 1237 c 0,18,19
 840 1111 840 1111 803 955 c 2,20,-1
 711 555 l 2,21,22
 645 270 645 270 507 88 c 0,23,24
 314 -166 314 -166 80 -240 c 1,25,-1
 70 -240 l 1,0,-1
EndSplineSet
Validated: 1
EndChar

StartChar: asterisk
Encoding: 42 42 13
Width: 1183
GlyphClass: 2
Flags: W
HStem: 1530 20G<982.839 1040>
DStem2: 647 636 829.3 636 0.224951 0.97437<124.139 327.245 651.51 854.841>
LayerCount: 2
Fore
SplineSet
1030 1550 m 1,0,-1
 1040 1550 l 1,1,-1
 966 1231 l 1,2,-1
 1185 1360 l 1,3,-1
 1317 1251 l 1,4,-1
 1320 1243 l 1,5,-1
 1005 1093 l 1,6,-1
 1251 943 l 1,7,-1
 1244 935 l 1,8,-1
 1062 826 l 1,9,-1
 902 955 l 1,10,-1
 848 717 l 1,11,-1
 657 636 l 1,12,-1
 647 636 l 1,13,-1
 720 955 l 1,14,-1
 502 826 l 1,15,-1
 371 935 l 1,16,-1
 368 943 l 1,17,-1
 681 1093 l 1,18,-1
 437 1243 l 1,19,-1
 444 1251 l 1,20,-1
 625 1360 l 1,21,-1
 784 1231 l 1,22,-1
 839 1469 l 1,23,-1
 1030 1550 l 1,0,-1
EndSplineSet
Validated: 1
EndChar

StartChar: plus
Encoding: 43 43 14
Width: 1214
GlyphClass: 2
Flags: W
HStem: 664 182<426 669 893 1136>
DStem2: 585 298 766.3 298 0.224951 0.97437<123.914 375.515 603.24 854.841>
LayerCount: 2
Fore
SplineSet
968 1212 m 1,0,-1
 978 1212 l 1,1,-1
 893 846 l 1,2,-1
 1259 846 l 1,3,-1
 1257 836 l 1,4,-1
 1136 664 l 1,5,-1
 851 664 l 1,6,-1
 785 379 l 1,7,-1
 595 298 l 1,8,-1
 585 298 l 1,9,-1
 669 664 l 1,10,-1
 303 664 l 1,11,-1
 306 674 l 1,12,-1
 426 846 l 1,13,-1
 711 846 l 1,14,-1
 777 1131 l 1,15,-1
 968 1212 l 1,0,-1
EndSplineSet
Validated: 1
EndChar

StartChar: comma
Encoding: 44 44 15
Width: 609
GlyphClass: 2
Flags: W
HStem: -286 564
VStem: 285 190<-57.25 142.961>
LayerCount: 2
Fore
SplineSet
404 278 m 1,0,-1
 414 278 l 1,1,2
 475 200 475 200 475 106 c 0,3,4
 475 72 475 72 467 34 c 0,5,6
 427 -156 427 -156 148 -286 c 1,7,-1
 117 -236 l 1,8,9
 253 -123 253 -123 279 -20 c 0,10,11
 285 4 285 4 285 26 c 0,12,13
 285 120 285 120 193 188 c 1,14,-1
 404 278 l 1,0,-1
EndSplineSet
Validated: 1
EndChar

StartChar: hyphen
Encoding: 45 45 16
Width: 1214
GlyphClass: 2
Flags: W
HStem: 664 182<426 1136>
LayerCount: 2
Fore
SplineSet
303 664 m 1,0,-1
 306 674 l 1,1,-1
 426 846 l 1,2,-1
 1259 846 l 1,3,-1
 1257 836 l 1,4,-1
 1136 664 l 1,5,-1
 303 664 l 1,0,-1
EndSplineSet
Validated: 1
EndChar

StartChar: period
Encoding: 46 46 17
Width: 600
GlyphClass: 2
Flags: W
HStem: -20 245<248.965 397.947>
VStem: 199 249<29.3125 174.973>
LayerCount: 2
Fore
SplineSet
203 102 m 0,0,1
 215 153 215 153 258 189 c 128,-1,2
 301 225 301 225 352 225 c 128,-1,3
 403 225 403 225 429 189 c 0,4,5
 448 163 448 163 448 132 c 0,6,7
 448 120 448 120 444 102 c 0,8,9
 429 49 429 49 389 16 c 0,10,11
 345 -20 345 -20 294 -20 c 0,12,13
 244 -20 244 -20 217 17 c 0,14,15
 199 41 199 41 199 70 c 0,16,17
 199 84 199 84 203 102 c 0,0,1
EndSplineSet
Validated: 1
EndChar

StartChar: slash
Encoding: 47 47 18
Width: 974
GlyphClass: 2
Flags: W
DStem2: -7 -72 129 -140 0.571734 0.820439<21.966 2098.88>
LayerCount: 2
Fore
SplineSet
119 -140 m 1,0,-1
 -7 -72 l 1,1,-1
 1193 1650 l 1,2,-1
 1203 1650 l 1,3,-1
 1329 1582 l 1,4,-1
 129 -140 l 1,5,-1
 119 -140 l 1,0,-1
EndSplineSet
Validated: 1
EndChar

StartChar: zero
Encoding: 48 48 19
Width: 1424
GlyphClass: 2
Flags: W
HStem: -20 170<607.649 906.287> 1360 170<865.615 1165.57>
VStem: 287 201<286.771 783.585> 1284 200<721.395 1222.41>
LayerCount: 2
Fore
SplineSet
524 755 m 0,0,1
 488 596 488 596 488 485 c 0,2,3
 488 416 488 416 502 365 c 0,4,5
 561 150 561 150 747 150 c 0,6,7
 930 150 930 150 1090 366 c 0,8,9
 1189 500 1189 500 1248 755 c 0,10,11
 1284 911 1284 911 1284 1022 c 0,12,13
 1284 1091 1284 1091 1270 1144 c 0,14,15
 1213 1360 1213 1360 1026 1360 c 0,16,17
 841 1360 841 1360 682 1144 c 0,18,19
 581 1007 581 1007 524 755 c 0,0,1
324 754 m 0,20,21
 391 1046 391 1046 528 1222 c 0,22,23
 768 1530 768 1530 1065 1530 c 0,24,25
 1366 1530 1366 1530 1460 1222 c 0,26,27
 1484 1143 1484 1143 1484 1041 c 0,28,29
 1484 917 1484 917 1448 755 c 0,30,31
 1382 465 1382 465 1244 288 c 0,32,33
 1004 -20 1004 -20 707 -20 c 128,-1,34
 410 -20 410 -20 312 287 c 0,35,36
 287 365 287 365 287 470 c 0,37,38
 287 599 287 599 324 754 c 0,20,21
EndSplineSet
Validated: 1
EndChar

StartChar: one
Encoding: 49 49 20
Width: 714
GlyphClass: 2
Flags: W
HStem: -40 21G<255 311.889> 1138 21G<287.585 310.222> 1530 20G<593.787 703.5>
VStem: 255 530
DStem2: 255 -40 455.222 -40 0.224951 0.97437<137.407 1430.71> 330 1343 283 1138 0.805882 0.592076<0 205.566>
LayerCount: 2
Fore
SplineSet
255 -40 m 1,0,-1
 577 1354 l 1,1,-1
 283 1138 l 1,2,-1
 330 1343 l 1,3,-1
 622 1550 l 1,4,5
 785 1550 785 1550 785 1419 c 0,6,7
 785 1390 785 1390 777 1354 c 2,8,-1
 476 50 l 1,9,-1
 265 -40 l 1,10,-1
 255 -40 l 1,0,-1
EndSplineSet
Validated: 1
EndChar

StartChar: two
Encoding: 50 50 21
Width: 1311
GlyphClass: 2
Flags: W
HStem: 0 170<380.449 1013.16> 1360 170<779.885 1096.86>
VStem: 189 191<70 302.452> 1172 204<980.58 1286.88>
LayerCount: 2
Fore
SplineSet
393 0 m 2,0,1
 189 0 189 0 189 140 c 0,2,3
 189 166 189 166 196 198 c 0,4,5
 266 517 266 517 794 732 c 0,6,7
 1111 861 1111 861 1159 1059 c 0,8,9
 1172 1113 1172 1113 1172 1157 c 0,10,11
 1172 1222 1172 1222 1145 1264 c 0,12,13
 1086 1360 1086 1360 940 1360 c 24,14,15
 757 1360 757 1360 596 1144 c 1,16,-1
 586 1144 l 1,17,-1
 442 1222 l 1,18,19
 681 1530 681 1530 979 1530 c 0,20,21
 1220 1530 1220 1530 1316 1385 c 0,22,23
 1376 1294 1376 1294 1376 1176 c 0,24,25
 1376 1115 1376 1115 1360 1048 c 0,26,27
 1297 769 1297 769 870 586 c 0,28,29
 423 394 423 394 383 234 c 0,30,31
 380 222 380 222 380 212 c 0,32,33
 380 170 380 170 432 170 c 2,34,-1
 892 170 l 2,35,36
 1010 170 1010 170 1067 287 c 1,37,-1
 1077 287 l 1,38,-1
 1211 216 l 1,39,40
 1101 0 1101 0 853 0 c 2,41,-1
 393 0 l 2,0,1
EndSplineSet
Validated: 1
EndChar

StartChar: three
Encoding: 51 51 22
Width: 1250
GlyphClass: 2
Flags: W
HStem: -20 170<492.25 803.157> 1340 170<688 1100>
VStem: 1021 204<382.731 688.927>
DStem2: 675 864 911 909 0.666016 0.745938<190.747 637.931>
LayerCount: 2
Fore
SplineSet
196 288 m 1,0,1
 376 366 l 1,2,-1
 386 366 l 1,3,4
 448 150 448 150 631 150 c 0,5,6
 772 150 772 150 883 251 c 0,7,8
 978 337 978 337 1009 470 c 0,9,10
 1021 522 1021 522 1021 564 c 0,11,12
 1021 631 1021 631 990 673 c 0,13,14
 932 751 932 751 767 751 c 9,15,-1
 675 864 l 17,16,-1
 1100 1340 l 1,17,-1
 573 1340 l 1,18,-1
 576 1350 l 1,19,-1
 688 1510 l 1,20,-1
 1153 1510 l 2,21,22
 1305 1510 1305 1510 1305 1411 c 0,23,24
 1305 1393 1305 1393 1300 1372 c 0,25,26
 1282 1296 1282 1296 1163 1170 c 1,27,-1
 911 909 l 1,28,29
 1059 905 1059 905 1150 805 c 0,30,31
 1225 723 1225 723 1225 597 c 0,32,33
 1225 539 1225 539 1209 472 c 0,34,35
 1160 266 1160 266 995 125 c 0,36,37
 826 -20 826 -20 591 -20 c 0,38,39
 293 -20 293 -20 196 288 c 1,0,1
EndSplineSet
Validated: 1
EndChar

StartChar: four
Encoding: 52 52 23
Width: 1187
GlyphClass: 2
Flags: W
HStem: -40 21G<726 782.889> 358 170<351 818 1057 1115> 1530 20G<1074.41 1174.5>
DStem2: 726 -40 926.222 -40 0.224951 0.97437<137.407 408.495 627.901 1336.12> 1093 1550 1026 1262 0.680822 0.732449<-1252.52 -256.56>
LayerCount: 2
Fore
SplineSet
726 -40 m 1,0,-1
 818 358 l 1,1,-1
 326 358 l 2,2,3
 159 358 159 358 159 458 c 0,4,5
 159 473 159 473 164 494 c 0,6,7
 179 565 179 565 249 642 c 1,8,-1
 1093 1550 l 1,9,10
 1256 1550 1256 1550 1256 1419 c 0,11,12
 1256 1390 1256 1390 1248 1354 c 2,13,-1
 1057 528 l 1,14,-1
 1229 528 l 1,15,-1
 1227 518 l 1,16,-1
 1115 358 l 1,17,-1
 1018 358 l 1,18,-1
 947 50 l 1,19,-1
 736 -40 l 1,20,-1
 726 -40 l 1,0,-1
857 528 m 1,21,-1
 1026 1262 l 1,22,-1
 351 528 l 1,23,-1
 857 528 l 1,21,-1
EndSplineSet
Validated: 1
EndChar

StartChar: five
Encoding: 53 53 24
Width: 1270
GlyphClass: 2
Flags: W
HStem: -20 170<512.002 822.907> 770 176<653.31 953.392> 1340 170<844.039 1270>
VStem: 1040 204<377.989 690.013>
DStem2: 404 808 618 882 0.423192 0.90604<157.61 654.09>
LayerCount: 2
Fore
SplineSet
216 288 m 1,0,-1
 396 366 l 1,1,-1
 406 366 l 1,2,3
 467 150 467 150 651 150 c 0,4,5
 792 150 792 150 903 251 c 0,6,7
 999 338 999 338 1029 470 c 0,8,9
 1040 518 1040 518 1040 558 c 0,10,11
 1040 643 1040 643 992 694 c 0,12,13
 920 770 920 770 793 770 c 0,14,15
 690 770 690 770 589 707 c 1,16,-1
 404 808 l 1,17,-1
 631 1294 l 1,18,19
 733 1510 733 1510 989 1510 c 2,20,-1
 1385 1510 l 17,21,-1
 1382 1500 l 1,22,-1
 1270 1340 l 9,23,-1
 964 1340 l 18,24,25
 848 1340 848 1340 789 1223 c 1,26,-1
 618 882 l 1,27,28
 723 946 723 946 835 946 c 0,29,30
 1046 946 1046 946 1158 826 c 0,31,32
 1244 734 1244 734 1244 596 c 0,33,34
 1244 539 1244 539 1229 472 c 0,35,36
 1180 265 1180 265 1015 125 c 0,37,38
 845 -20 845 -20 611 -20 c 0,39,40
 313 -20 313 -20 216 288 c 1,0,-1
EndSplineSet
Validated: 1
EndChar

StartChar: six
Encoding: 54 54 25
Width: 1367
GlyphClass: 2
Flags: W
HStem: -20 170<607.894 920.236> 792 172<733.028 1047.87> 1360 170<865.367 1164.15>
VStem: 287 219<255.579 565.465> 1138 203<378.699 705.759>
LayerCount: 2
Fore
SplineSet
1460 1222 m 1,0,-1
 1280 1144 l 1,1,-1
 1270 1144 l 1,2,3
 1209 1360 1209 1360 1026 1360 c 0,4,5
 840 1360 840 1360 682 1144 c 0,6,7
 583 1009 583 1009 524 755 c 1,8,9
 700 964 700 964 934 964 c 0,10,11
 1165 964 1165 964 1271 817 c 0,12,13
 1341 720 1341 720 1341 594 c 0,14,15
 1341 536 1341 536 1326 472 c 0,16,17
 1278 267 1278 267 1111 125 c 0,18,19
 941 -20 941 -20 707 -20 c 0,20,21
 408 -20 408 -20 312 288 c 0,22,23
 287 368 287 368 287 471 c 0,24,25
 287 597 287 597 324 755 c 0,26,27
 393 1049 393 1049 528 1222 c 0,28,29
 768 1530 768 1530 1065 1530 c 0,30,31
 1363 1530 1363 1530 1460 1222 c 1,0,-1
895 792 m 0,32,33
 769 792 769 792 649 694 c 0,34,35
 551 614 551 614 516 470 c 0,36,37
 506 429 506 429 506 392 c 0,38,39
 506 316 506 316 546 258 c 0,40,41
 619 150 619 150 747 150 c 0,42,43
 894 150 894 150 1008 256 c 0,44,45
 1096 338 1096 338 1126 470 c 0,46,47
 1138 523 1138 523 1138 568 c 0,48,49
 1138 639 1138 639 1107 687 c 0,50,51
 1038 792 1038 792 895 792 c 0,32,33
EndSplineSet
Validated: 1
EndChar

StartChar: seven
Encoding: 55 55 26
Width: 979
GlyphClass: 2
Flags: W
HStem: -40 21G<355.118 414.588> 1340 170<434 994>
DStem2: 232 45 403 -40 0.507136 0.861866<13.4617 1501.77>
LayerCount: 2
Fore
SplineSet
232 45 m 1,0,-1
 994 1340 l 1,1,-1
 319 1340 l 1,2,-1
 322 1350 l 1,3,-1
 434 1510 l 1,4,-1
 1034 1510 l 2,5,6
 1193 1510 1193 1510 1193 1388 c 0,7,8
 1194 1362 1194 1362 1186 1330 c 0,9,10
 1175 1285 1175 1285 1067 1106 c 1,11,-1
 403 -40 l 1,12,-1
 393 -40 l 1,13,-1
 232 45 l 1,0,-1
EndSplineSet
Validated: 1
EndChar

StartChar: eight
Encoding: 56 56 27
Width: 1308
GlyphClass: 2
Flags: W
HStem: -20 170<539.007 861.598> 766 156<745.18 989.79> 1372 158<824.333 1098.77>
VStem: 245 202<240.426 558.378> 491 203<972.751 1236.75> 1076 203<370.202 680.726> 1142 202<1051.77 1326.77>
LayerCount: 2
Fore
SplineSet
260 474 m 0,0,1
 305 669 305 669 489 810 c 0,2,3
 528 840 528 840 577 863 c 1,4,5
 491 948 491 948 491 1058 c 0,6,7
 491 1094 491 1094 500 1132 c 0,8,9
 547 1332 547 1332 694 1434 c 0,10,11
 832 1530 832 1530 1007 1530 c 0,12,13
 1180 1530 1180 1530 1276 1434 c 0,14,15
 1344 1366 1344 1366 1344 1249 c 0,16,17
 1344 1197 1344 1197 1330 1132 c 0,18,19
 1294 975 1294 975 1129 863 c 1,20,21
 1168 840 1168 840 1193 810 c 0,22,23
 1279 706 1279 706 1279 575 c 0,24,25
 1279 526 1279 526 1267 472 c 0,26,27
 1222 269 1222 269 1053 125 c 0,28,29
 882 -20 882 -20 648 -20 c 128,-1,30
 414 -20 414 -20 312 126 c 0,31,32
 245 223 245 223 245 349 c 0,33,34
 245 407 245 407 260 474 c 0,0,1
689 150 m 0,35,36
 834 150 834 150 951 257 c 0,37,38
 1037 336 1037 336 1067 470 c 0,39,40
 1076 510 1076 510 1076 546 c 0,41,42
 1076 616 1076 616 1041 669 c 0,43,44
 977 766 977 766 831 766 c 0,45,46
 689 766 689 766 577 670 c 0,47,48
 489 595 489 595 459 470 c 0,49,50
 447 420 447 420 447 378 c 0,51,52
 447 307 447 307 480 256 c 0,53,54
 549 150 549 150 689 150 c 0,35,36
971 1372 m 128,-1,56
 874 1372 874 1372 801 1311 c 0,57,58
 727 1250 727 1250 704 1147 c 0,59,60
 694 1103 694 1103 694 1070 c 0,61,62
 694 1024 694 1024 714 998 c 0,63,64
 775 922 775 922 867 922 c 0,65,66
 967 922 967 922 1054 998 c 0,67,68
 1112 1049 1112 1049 1134 1147 c 0,69,70
 1142 1183 1142 1183 1142 1214 c 0,71,72
 1142 1270 1142 1270 1113 1311 c 0,73,55
 1068 1372 1068 1372 971 1372 c 128,-1,56
EndSplineSet
Validated: 1
EndChar

StartChar: nine
Encoding: 57 57 28
Width: 1367
GlyphClass: 2
Flags: W
HStem: -20 170<551.853 850.633> 546 172<668.126 982.972> 1360 170<795.764 1108.11>
VStem: 375 203<804.241 1131.3> 1210 219<944.535 1254.42>
LayerCount: 2
Fore
SplineSet
256 288 m 1,0,-1
 436 366 l 1,1,-1
 446 366 l 1,2,3
 507 150 507 150 690 150 c 0,4,5
 876 150 876 150 1034 366 c 0,6,7
 1133 501 1133 501 1192 755 c 1,8,9
 1016 546 1016 546 782 546 c 0,10,11
 551 546 551 546 445 693 c 0,12,13
 375 790 375 790 375 916 c 0,14,15
 375 974 375 974 390 1038 c 0,16,17
 438 1243 438 1243 605 1385 c 0,18,19
 775 1530 775 1530 1009 1530 c 0,20,21
 1308 1530 1308 1530 1404 1222 c 0,22,23
 1429 1142 1429 1142 1429 1039 c 0,24,25
 1429 913 1429 913 1392 755 c 0,26,27
 1323 461 1323 461 1188 288 c 0,28,29
 948 -20 948 -20 651 -20 c 0,30,31
 353 -20 353 -20 256 288 c 1,0,-1
821 718 m 0,32,33
 947 718 947 718 1067 816 c 0,34,35
 1165 896 1165 896 1200 1040 c 0,36,37
 1210 1081 1210 1081 1210 1118 c 0,38,39
 1210 1194 1210 1194 1170 1252 c 0,40,41
 1097 1360 1097 1360 969 1360 c 0,42,43
 822 1360 822 1360 708 1254 c 0,44,45
 620 1172 620 1172 590 1040 c 0,46,47
 578 987 578 987 578 942 c 0,48,49
 578 871 578 871 609 823 c 0,50,51
 678 718 678 718 821 718 c 0,32,33
EndSplineSet
Validated: 1
EndChar

StartChar: colon
Encoding: 58 58 29
Width: 600
GlyphClass: 2
Flags: W
HStem: -20 245<248.965 397.947> 631 245<399.965 548.947>
VStem: 199 249<29.3125 174.973> 350 249<680.312 825.973>
LayerCount: 2
Fore
SplineSet
354 753 m 0,0,1
 366 804 366 804 409 840 c 128,-1,2
 452 876 452 876 503 876 c 128,-1,3
 554 876 554 876 580 840 c 0,4,5
 599 814 599 814 599 783 c 0,6,7
 599 771 599 771 595 753 c 0,8,9
 580 700 580 700 540 667 c 0,10,11
 496 631 496 631 445 631 c 0,12,13
 395 631 395 631 368 668 c 0,14,15
 350 692 350 692 350 721 c 0,16,17
 350 735 350 735 354 753 c 0,0,1
203 102 m 0,18,19
 215 153 215 153 258 189 c 128,-1,20
 301 225 301 225 352 225 c 128,-1,21
 403 225 403 225 429 189 c 0,22,23
 448 163 448 163 448 132 c 0,24,25
 448 120 448 120 444 102 c 0,26,27
 429 49 429 49 389 16 c 0,28,29
 345 -20 345 -20 294 -20 c 0,30,31
 244 -20 244 -20 217 17 c 0,32,33
 199 41 199 41 199 70 c 0,34,35
 199 84 199 84 203 102 c 0,18,19
EndSplineSet
Validated: 1
EndChar

StartChar: semicolon
Encoding: 59 59 30
Width: 600
GlyphClass: 2
Flags: W
HStem: 631 245<399.965 548.947>
VStem: 285 190<-57.25 142.961> 350 249<680.312 825.973>
LayerCount: 2
Fore
SplineSet
404 278 m 1,0,-1
 414 278 l 1,1,2
 475 200 475 200 475 106 c 0,3,4
 475 72 475 72 467 34 c 0,5,6
 427 -156 427 -156 148 -286 c 1,7,-1
 117 -236 l 1,8,9
 253 -123 253 -123 279 -20 c 0,10,11
 285 4 285 4 285 26 c 0,12,13
 285 120 285 120 193 188 c 1,14,-1
 404 278 l 1,0,-1
354 753 m 0,15,16
 366 804 366 804 409 840 c 128,-1,17
 452 876 452 876 503 876 c 128,-1,18
 554 876 554 876 580 840 c 0,19,20
 599 814 599 814 599 783 c 0,21,22
 599 771 599 771 595 753 c 0,23,24
 580 700 580 700 540 667 c 0,25,26
 496 631 496 631 445 631 c 0,27,28
 395 631 395 631 368 668 c 0,29,30
 350 692 350 692 350 721 c 0,31,32
 350 735 350 735 354 753 c 0,15,16
EndSplineSet
Validated: 1
EndChar

StartChar: less
Encoding: 60 60 31
Width: 1338
GlyphClass: 2
Flags: W
DStem2: 624 738 303 664 0.904166 -0.427182<0 644.97> 428 847 624 738 0.932333 0.361601<143.323 940.871>
LayerCount: 2
Fore
SplineSet
303 664 m 1,0,-1
 306 674 l 1,1,-1
 428 847 l 1,2,-1
 1333 1198 l 1,3,-1
 1375 1025 l 1,4,-1
 1372 1015 l 1,5,-1
 624 738 l 1,6,-1
 1244 461 l 1,7,-1
 1242 451 l 1,8,-1
 1120 278 l 1,9,-1
 303 664 l 1,0,-1
EndSplineSet
Validated: 1
EndChar

StartChar: equal
Encoding: 61 61 32
Width: 1214
GlyphClass: 2
Flags: W
HStem: 482 182<384 1094> 846 182<468 1178>
LayerCount: 2
Fore
SplineSet
345 846 m 1,0,-1
 348 856 l 1,1,-1
 468 1028 l 1,2,-1
 1301 1028 l 1,3,-1
 1299 1018 l 1,4,-1
 1178 846 l 1,5,-1
 345 846 l 1,0,-1
261 482 m 1,6,-1
 264 492 l 1,7,-1
 384 664 l 1,8,-1
 1217 664 l 1,9,-1
 1215 654 l 1,10,-1
 1094 482 l 1,11,-1
 261 482 l 1,6,-1
EndSplineSet
Validated: 1
EndChar

StartChar: greater
Encoding: 62 62 33
Width: 1338
GlyphClass: 2
Flags: W
DStem2: 306.431 461 346.182 278 0.932338 0.361588<0 797.501>
LayerCount: 2
Fore
SplineSet
1375.46 812 m 1,0,-1
 1373.16 802 l 1,1,-1
 1251.22 629 l 1,2,-1
 346.182 278 l 1,3,-1
 304.121 451 l 1,4,-1
 306.431 461 l 1,5,-1
 1054.38 738 l 1,6,-1
 434.331 1015 l 1,7,-1
 436.64 1025 l 1,8,-1
 558.58 1198 l 1,9,-1
 1375.46 812 l 1,0,-1
EndSplineSet
Validated: 1
EndChar

StartChar: question
Encoding: 63 63 34
Width: 1228
GlyphClass: 2
Flags: W
HStem: -20 245<522.965 671.947> 1360 170<739.885 1056.03>
VStem: 473 249<29.3125 174.973> 1135 201<966.618 1283.05>
LayerCount: 2
Fore
SplineSet
477 102 m 0,0,1
 489 153 489 153 532 189 c 128,-1,2
 575 225 575 225 626 225 c 128,-1,3
 677 225 677 225 703 189 c 0,4,5
 722 163 722 163 722 132 c 0,6,7
 722 120 722 120 718 102 c 0,8,9
 703 49 703 49 663 16 c 0,10,11
 619 -20 619 -20 568 -20 c 0,12,13
 518 -20 518 -20 491 17 c 0,14,15
 473 41 473 41 473 70 c 0,16,17
 473 84 473 84 477 102 c 0,0,1
402 1222 m 1,18,19
 641 1530 641 1530 939 1530 c 0,20,21
 1178 1530 1178 1530 1276 1385 c 0,22,23
 1336 1296 1336 1296 1336 1178 c 0,24,25
 1336 1117 1336 1117 1320 1048 c 0,26,27
 1251 751 1251 751 870 593 c 0,28,29
 788 559 788 559 764 454 c 1,30,-1
 549 361 l 1,31,-1
 539 361 l 1,32,33
 602 630 602 630 798 722 c 0,34,35
 1075 852 1075 852 1122 1049 c 0,36,37
 1135 1104 1135 1104 1135 1149 c 0,38,39
 1134 1218 1134 1218 1105 1264 c 0,40,41
 1044 1360 1044 1360 900 1360 c 24,42,43
 717 1360 717 1360 556 1144 c 1,44,-1
 546 1144 l 1,45,-1
 402 1222 l 1,18,19
EndSplineSet
Validated: 1
EndChar

StartChar: at
Encoding: 64 64 35
Width: 1397
GlyphClass: 2
Flags: W
HStem: -430 170<517.07 613> -40 158<827.122 1018> 514 155<892.941 1136> 950 170<770.605 1073.41>
VStem: 192 201<-118.435 374.584> 576 193<172.859 401.426> 1170 201<669.48 849.298>
DStem2: 917.484 -430 1118.18 -430 0.224951 0.97437<553.431 968.961>
LayerCount: 2
Fore
SplineSet
1018 -40 m 1,0,-1
 922 -40 l 1,1,2
 728 -27 728 -27 650 50 c 0,3,4
 576 123 576 123 576 225 c 0,5,6
 576 260 576 260 585 300 c 0,7,8
 624 474 624 474 772 573 c 0,9,10
 896 656 896 656 1085 669 c 1,11,-1
 1168 669 l 1,12,13
 1170 686 1170 686 1170 702 c 0,14,15
 1170 766 1170 766 1136 831 c 0,16,17
 1072 950 1072 950 931 950 c 0,18,19
 746 950 746 950 587 734 c 0,20,21
 491 604 491 604 430 345 c 0,22,23
 393 189 393 189 393 78 c 0,24,25
 393 7 393 7 408 -44 c 0,26,27
 472 -260 472 -260 652 -260 c 1,28,-1
 613 -430 l 17,29,30
 317 -430 317 -430 218 -122 c 0,31,32
 192 -41 192 -41 192 63 c 0,33,34
 192 188 192 188 229 345 c 0,35,36
 298 639 298 639 433 812 c 0,37,38
 672 1120 672 1120 971 1120 c 0,39,40
 1187 1120 1187 1120 1300 953 c 0,41,42
 1371 848 1371 848 1371 721 c 0,43,44
 1371 665 1371 665 1357 605 c 2,45,-1
 1229 50 l 1,46,-1
 1018 -40 l 1,0,-1
1136 514 m 1,47,48
 954 513 954 513 873 458 c 0,49,50
 791 402 791 402 773 316 c 0,51,52
 769 297 769 297 769 279 c 0,53,54
 769 222 769 222 812 173 c 0,55,56
 861 118 861 118 1044 118 c 1,57,-1
 1136 514 l 1,47,48
EndSplineSet
Validated: 1
EndChar

StartChar: A
Encoding: 65 65 36
Width: 1454
GlyphClass: 2
Flags: W
HStem: -40 21G<171 227.889> 0 170<1109 1279> 670 170<576 1257> 1360 170<894.872 1199.23>
VStem: 1314 201<842.505 1222.41>
DStem2: 171 -40 371.222 -40 0.224951 0.97437<137.407 773.685>
LayerCount: 2
Fore
SplineSet
171 -40 m 1,0,-1
 354 755 l 2,1,2
 421 1046 421 1046 558 1222 c 0,3,4
 798 1530 798 1530 1095 1530 c 0,5,6
 1393 1530 1393 1530 1490 1222 c 0,7,8
 1515 1143 1515 1143 1515 1040 c 0,9,10
 1515 914 1515 914 1478 755 c 0,11,12
 1409 458 1409 458 1276 312 c 0,13,14
 1193 221 1193 221 1109 170 c 1,15,-1
 1393 170 l 1,16,-1
 1391 160 l 1,17,-1
 1279 0 l 1,18,-1
 726 0 l 1,19,-1
 728 10 l 1,20,-1
 840 170 l 1,21,22
 987 216 987 216 1099 358 c 0,23,24
 1220 511 1220 511 1257 670 c 1,25,-1
 535 670 l 1,26,-1
 392 50 l 1,27,-1
 181 -40 l 1,28,-1
 171 -40 l 1,0,-1
576 840 m 1,29,-1
 1296 840 l 1,30,31
 1314 942 1314 942 1314 1021 c 0,32,33
 1314 1091 1314 1091 1300 1144 c 0,34,35
 1243 1360 1243 1360 1056 1360 c 0,36,37
 868 1360 868 1360 712 1146 c 0,38,39
 631 1033 631 1033 576 840 c 1,29,-1
EndSplineSet
Validated: 1
EndChar

StartChar: B
Encoding: 66 66 37
Width: 1397
GlyphClass: 2
Flags: W
HStem: -40 21G<171 227.889> 0 170<663 963.194> 756 170<838 1077.37> 1360 170<895.367 1185>
VStem: 1163 204<366.688 672.229> 1229 202<1054.11 1316.46>
DStem2: 171 -40 371.222 -40 0.224951 0.97437<137.407 1180.37>
LayerCount: 2
Fore
SplineSet
171 -40 m 9,0,-1
 354 755 l 2,1,2
 421 1046 421 1046 558 1222 c 0,3,4
 798 1530 798 1530 1095 1530 c 0,5,6
 1263 1530 1263 1530 1355 1438 c 0,7,8
 1431 1362 1431 1362 1431 1243 c 0,9,10
 1431 1196 1431 1196 1419 1141 c 0,11,12
 1382 970 1382 970 1201 855 c 1,13,14
 1247 834 1247 834 1284 792 c 0,15,16
 1367 699 1367 699 1367 571 c 0,17,18
 1367 520 1367 520 1354 462 c 0,19,20
 1306 262 1306 262 1151 137 c 0,21,22
 981 0 981 0 742 0 c 2,23,-1
 549 0 l 1,24,-1
 551 10 l 1,25,-1
 663 170 l 1,26,-1
 781 170 l 2,27,28
 927 170 927 170 1042 268 c 0,29,30
 1124 338 1124 338 1152 456 c 0,31,32
 1163 502 1163 502 1163 542 c 0,33,34
 1163 607 1163 607 1133 654 c 0,35,36
 1068 756 1068 756 917 756 c 2,37,-1
 724 756 l 1,38,-1
 726 766 l 1,39,-1
 838 926 l 1,40,-1
 956 926 l 2,41,42
 1057 926 1057 926 1132 991 c 0,43,44
 1200 1050 1200 1050 1222 1146 c 0,45,46
 1229 1177 1229 1177 1229 1205 c 0,47,48
 1229 1259 1229 1259 1200 1300 c 0,49,50
 1156 1360 1156 1360 1056 1360 c 0,51,52
 870 1360 870 1360 712 1144 c 0,53,54
 613 1009 613 1009 554 755 c 2,55,-1
 392 50 l 17,56,-1
 181 -40 l 1,57,-1
 171 -40 l 9,0,-1
EndSplineSet
Validated: 1
EndChar

StartChar: C
Encoding: 67 67 38
Width: 1366
GlyphClass: 2
Flags: W
HStem: -20 170<607.507 907.459> 1360 170<865.615 1165.03>
VStem: 287 201<287.589 784.084>
LayerCount: 2
Fore
SplineSet
1355 474 m 1,0,1
 1315 380 1315 380 1244 288 c 0,2,3
 1007 -20 1007 -20 707 -20 c 0,4,5
 409 -20 409 -20 312 288 c 0,6,7
 287 367 287 367 287 470 c 0,8,9
 287 596 287 596 324 755 c 0,10,11
 392 1047 392 1047 528 1222 c 0,12,13
 768 1530 768 1530 1065 1530 c 0,14,15
 1364 1530 1364 1530 1460 1222 c 1,16,-1
 1280 1144 l 1,17,-1
 1270 1144 l 1,18,19
 1212 1360 1212 1360 1026 1360 c 0,20,21
 841 1360 841 1360 682 1144 c 0,22,23
 581 1007 581 1007 524 755 c 0,24,25
 488 596 488 596 488 485 c 0,26,27
 488 417 488 417 502 366 c 0,28,29
 561 150 561 150 747 150 c 0,30,31
 932 150 932 150 1090 366 c 1,32,-1
 1345 474 l 1,33,-1
 1355 474 l 1,0,1
EndSplineSet
Validated: 1
EndChar

StartChar: D
Encoding: 68 68 39
Width: 1454
GlyphClass: 2
Flags: W
HStem: -40 21G<171 227.889> 0 170<663 937.707> 1360 170<895.367 1195.57>
VStem: 1314 200<722.637 1222.41>
DStem2: 171 -40 371.222 -40 0.224951 0.97437<137.407 1180.37>
LayerCount: 2
Fore
SplineSet
171 -40 m 9,0,-1
 354 755 l 2,1,2
 421 1046 421 1046 558 1222 c 0,3,4
 798 1530 798 1530 1095 1530 c 0,5,6
 1396 1530 1396 1530 1490 1222 c 0,7,8
 1514 1143 1514 1143 1514 1041 c 0,9,10
 1514 917 1514 917 1478 755 c 0,11,12
 1421 503 1421 503 1278 314 c 0,13,14
 1043 0 1043 0 742 0 c 2,15,-1
 549 0 l 1,16,-1
 551 10 l 1,17,-1
 663 170 l 1,18,-1
 781 170 l 2,19,20
 966 170 966 170 1124 392 c 0,21,22
 1228 538 1228 538 1278 755 c 0,23,24
 1314 911 1314 911 1314 1022 c 0,25,26
 1314 1091 1314 1091 1300 1144 c 0,27,28
 1243 1360 1243 1360 1056 1360 c 0,29,30
 870 1360 870 1360 712 1144 c 0,31,32
 613 1009 613 1009 554 755 c 2,33,-1
 392 50 l 17,34,-1
 181 -40 l 1,35,-1
 171 -40 l 9,0,-1
EndSplineSet
Validated: 1
EndChar

StartChar: E
Encoding: 69 69 40
Width: 1366
GlyphClass: 2
Flags: W
HStem: -20 170<608.25 907.459> 670 170<546 1030> 1360 170<865.367 1165.03>
VStem: 287 201<287.589 667.433>
CounterMasks: 1 e0
LayerCount: 2
Fore
SplineSet
1355 474 m 1,0,1
 1315 380 1315 380 1244 288 c 0,2,3
 1007 -20 1007 -20 707 -20 c 0,4,5
 409 -20 409 -20 312 288 c 0,6,7
 287 367 287 367 287 470 c 0,8,9
 287 596 287 596 324 755 c 0,10,11
 392 1047 392 1047 528 1222 c 0,12,13
 768 1530 768 1530 1065 1530 c 0,14,15
 1364 1530 1364 1530 1460 1222 c 1,16,-1
 1280 1144 l 1,17,-1
 1270 1144 l 1,18,19
 1212 1360 1212 1360 1026 1360 c 128,-1,20
 840 1360 840 1360 682 1144 c 0,21,22
 601 1033 601 1033 546 840 c 1,23,-1
 1144 840 l 1,24,-1
 1142 830 l 1,25,-1
 1030 670 l 1,26,-1
 507 670 l 1,27,28
 488 564 488 564 488 484 c 0,29,30
 488 415 488 415 502 366 c 0,31,32
 564 150 564 150 747 150 c 0,33,34
 932 150 932 150 1090 366 c 1,35,-1
 1345 474 l 1,36,-1
 1355 474 l 1,0,1
EndSplineSet
Validated: 1
EndChar

StartChar: F
Encoding: 70 70 41
Width: 1228
GlyphClass: 2
Flags: W
HStem: -40 21G<171 227.889> 670 170<576 1030> 1360 170<895.367 1195.03>
DStem2: 171 -40 371.222 -40 0.224951 0.97437<137.407 773.685>
LayerCount: 2
Fore
SplineSet
171 -40 m 9,0,-1
 354 755 l 2,1,2
 422 1048 422 1048 558 1222 c 0,3,4
 798 1530 798 1530 1095 1530 c 0,5,6
 1394 1530 1394 1530 1490 1222 c 1,7,-1
 1310 1144 l 1,8,-1
 1300 1144 l 1,9,10
 1242 1360 1242 1360 1056 1360 c 128,-1,11
 870 1360 870 1360 712 1144 c 0,12,13
 631 1033 631 1033 576 840 c 1,14,-1
 1144 840 l 1,15,-1
 1142 830 l 1,16,-1
 1030 670 l 1,17,-1
 535 670 l 1,18,-1
 392 50 l 17,19,-1
 181 -40 l 1,20,-1
 171 -40 l 9,0,-1
EndSplineSet
Validated: 1
EndChar

StartChar: G
Encoding: 71 71 42
Width: 1424
GlyphClass: 2
Flags: W
HStem: -20 170<607.507 906.738> 670 170<964 1227> 1360 170<865.863 1165.03>
VStem: 287 201<287.589 784.143>
CounterMasks: 1 e0
LayerCount: 2
Fore
SplineSet
1468 840 m 1,0,-1
 1448 755 l 2,1,2
 1381 466 1381 466 1244 288 c 0,3,4
 1006 -20 1006 -20 707 -20 c 0,5,6
 409 -20 409 -20 312 288 c 0,7,8
 287 367 287 367 287 470 c 0,9,10
 287 596 287 596 324 755 c 0,11,12
 392 1047 392 1047 528 1222 c 0,13,14
 768 1530 768 1530 1065 1530 c 0,15,16
 1364 1530 1364 1530 1460 1222 c 1,17,-1
 1280 1144 l 1,18,-1
 1270 1144 l 1,19,20
 1212 1360 1212 1360 1026 1360 c 0,21,22
 842 1360 842 1360 682 1144 c 0,23,24
 581 1008 581 1008 524 755 c 0,25,26
 488 596 488 596 488 485 c 0,27,28
 488 417 488 417 502 366 c 0,29,30
 561 150 561 150 747 150 c 0,31,32
 930 150 930 150 1090 366 c 0,33,34
 1172 477 1172 477 1227 670 c 1,35,-1
 850 670 l 1,36,-1
 852 680 l 1,37,-1
 964 840 l 1,38,-1
 1468 840 l 1,0,-1
EndSplineSet
Validated: 1
EndChar

StartChar: H
Encoding: 72 72 43
Width: 1454
GlyphClass: 2
Flags: W
HStem: -40 21G<191 247.889> 0 170<1109 1279> 670 170<594 1257> 1530 20G<701.111 758 1189.23 1314.5>
VStem: 1314 200<842.425 1223.46>
DStem2: 191 -40 391.222 -40 0.224951 0.97437<137.407 773.685 948.101 1539.39>
LayerCount: 2
Fore
SplineSet
191 -40 m 1,0,-1
 537 1460 l 1,1,-1
 748 1550 l 1,2,-1
 758 1550 l 1,3,-1
 594 840 l 1,4,-1
 1296 840 l 1,5,6
 1314 942 1314 942 1314 1021 c 0,7,8
 1314 1091 1314 1091 1300 1144 c 0,9,10
 1254 1317 1254 1317 1094 1401 c 1,11,-1
 1204 1550 l 1,12,-1
 1214 1550 l 1,13,14
 1415 1476 1415 1476 1490 1222 c 0,15,16
 1514 1141 1514 1141 1514 1038 c 0,17,18
 1514 914 1514 914 1478 755 c 0,19,20
 1409 460 1409 460 1276 312 c 0,21,22
 1194 221 1194 221 1109 170 c 1,23,-1
 1393 170 l 1,24,-1
 1391 160 l 1,25,-1
 1279 0 l 1,26,-1
 726 0 l 1,27,-1
 728 10 l 1,28,-1
 840 170 l 1,29,30
 987 216 987 216 1099 358 c 0,31,32
 1220 511 1220 511 1257 670 c 1,33,-1
 555 670 l 1,34,-1
 412 50 l 1,35,-1
 201 -40 l 1,36,-1
 191 -40 l 1,0,-1
EndSplineSet
Validated: 1
EndChar

StartChar: I
Encoding: 73 73 44
Width: 600
GlyphClass: 2
Flags: W
HStem: -40 21G<190.766 247.605> 1530 20G<701.006 757.846>
VStem: 190.766 567.08
DStem2: 190.766 -40 390.765 -40 0.224951 0.97437<137.357 1539.46>
LayerCount: 2
Fore
SplineSet
190.766 -40 m 1,0,-1
 537.067 1460 l 1,1,-1
 747.846 1550 l 1,2,-1
 757.846 1550 l 1,3,-1
 411.543 50 l 1,4,-1
 200.766 -40 l 1,5,-1
 190.766 -40 l 1,0,-1
EndSplineSet
Validated: 1
EndChar

StartChar: J
Encoding: 74 74 45
Width: 1308
GlyphClass: 2
Flags: W
HStem: -20 170<441.365 741.481> 1340 170<750 1207>
DStem2: 903.077 -20 1103.08 -20 0.224951 0.97437<477.549 1385.44>
LayerCount: 2
Fore
SplineSet
146 288 m 1,0,-1
 326 366 l 1,1,-1
 336 366 l 1,2,3
 395 150 395 150 581 150 c 128,-1,4
 767 150 767 150 924 366 c 0,5,6
 1025 505 1025 505 1082 755 c 2,7,-1
 1207 1296 l 2,8,9
 1217 1340 1217 1340 1167 1340 c 2,10,-1
 635 1340 l 1,11,-1
 638 1350 l 1,12,-1
 750 1510 l 1,13,-1
 1207 1510 l 2,14,15
 1415 1510 1415 1510 1415 1361 c 0,16,17
 1415 1332 1415 1332 1407 1296 c 2,18,-1
 1282 755 l 2,19,20
 1215 466 1215 466 1078 288 c 0,21,22
 840 -20 840 -20 541 -20 c 128,-1,23
 242 -20 242 -20 146 288 c 1,0,-1
EndSplineSet
Validated: 1
EndChar

StartChar: K
Encoding: 75 75 46
Width: 1352
GlyphClass: 2
Flags: W
HStem: -40 21G<191 247.889> 0 170<1027 1177> 704 170<892 1023.55> 1530 20G<701.111 758 1281.96 1348.83>
VStem: 1115 204<374.938 621.984>
DStem2: 191 -40 391.222 -40 0.224951 0.97437<137.407 675.683 903.953 1539.39> 584 797 892 874 0.689583 0.724207<268.156 1039.76>
LayerCount: 2
Fore
SplineSet
191 -40 m 1,0,-1
 537 1460 l 1,1,-1
 748 1550 l 1,2,-1
 758 1550 l 1,3,-1
 584 797 l 1,4,-1
 1301 1550 l 1,5,-1
 1311 1550 l 1,6,-1
 1468 1467 l 1,7,-1
 892 874 l 1,8,9
 1144 874 1144 874 1267 703 c 0,10,11
 1319 631 1319 631 1319 543 c 0,12,13
 1319 507 1319 507 1310 467 c 0,14,15
 1266 271 1266 271 1027 170 c 1,16,-1
 1291 170 l 1,17,-1
 1289 160 l 1,18,-1
 1177 0 l 1,19,-1
 624 0 l 1,20,-1
 626 10 l 1,21,-1
 738 170 l 1,22,23
 867 191 867 191 962 260 c 0,24,25
 1082 347 1082 347 1110 467 c 0,26,27
 1115 488 1115 488 1115 509 c 0,28,29
 1115 570 1115 570 1070 623 c 0,30,31
 1000 704 1000 704 853 704 c 0,32,33
 722 704 722 704 611 601 c 0,34,35
 519 516 519 516 489 384 c 2,36,-1
 412 50 l 1,37,-1
 201 -40 l 1,38,-1
 191 -40 l 1,0,-1
EndSplineSet
Validated: 1
EndChar

StartChar: L
Encoding: 76 76 47
Width: 1108
GlyphClass: 2
Flags: W
HStem: 0 170<448.998 955.161> 1530 20G<701.111 758>
DStem2: 199.594 0 399.594 0 0.224951 0.97437<229.814 1498.48>
LayerCount: 2
Fore
SplineSet
450 0 m 2,0,1
 241 0 241 0 241 150 c 0,2,3
 241 179 241 179 249 214 c 2,4,-1
 537 1460 l 1,5,-1
 748 1550 l 1,6,-1
 758 1550 l 1,7,-1
 449 214 l 2,8,9
 439 170 439 170 489 170 c 10,10,-1
 834 170 l 18,11,12
 952 170 952 170 1009 287 c 1,13,-1
 1019 287 l 1,14,-1
 1153 216 l 1,15,16
 1043 0 1043 0 795 0 c 2,17,-1
 450 0 l 2,0,1
EndSplineSet
Validated: 1
EndChar

StartChar: M
Encoding: 77 77 48
Width: 2348
GlyphClass: 2
Flags: W
HStem: -40 21G<488 613.631 1065 1121.89> 0 170<2003 2173> 1360 170<865.142 1168.59 1790.4 2093.23>
VStem: 288 200<286.539 788.547> 2208 201<726.289 1222.41>
DStem2: 1065 -40 1265.22 -40 0.224951 0.97437<137.407 1080.65>
LayerCount: 2
Fore
SplineSet
1065 -40 m 1,0,-1
 1248 755 l 2,1,2
 1284 911 1284 911 1284 1022 c 0,3,4
 1284 1091 1284 1091 1270 1144 c 0,5,6
 1213 1360 1213 1360 1026 1360 c 0,7,8
 840 1360 840 1360 682 1144 c 0,9,10
 582 1007 582 1007 524 755 c 0,11,12
 488 598 488 598 488 487 c 0,13,14
 488 418 488 418 502 366 c 0,15,16
 548 193 548 193 708 109 c 1,17,-1
 599 -40 l 1,18,-1
 589 -40 l 1,19,20
 387 34 387 34 312 288 c 0,21,22
 288 369 288 369 288 472 c 0,23,24
 288 597 288 597 324 755 c 0,25,26
 392 1047 392 1047 528 1222 c 0,27,28
 767 1530 767 1530 1065 1530 c 0,29,30
 1359 1530 1359 1530 1458 1229 c 1,31,32
 1695 1530 1695 1530 1989 1530 c 0,33,34
 2287 1530 2287 1530 2384 1222 c 0,35,36
 2409 1143 2409 1143 2409 1040 c 0,37,38
 2409 914 2409 914 2372 755 c 0,39,40
 2303 458 2303 458 2170 312 c 0,41,42
 2087 221 2087 221 2003 170 c 1,43,-1
 2287 170 l 1,44,-1
 2285 160 l 1,45,-1
 2173 0 l 1,46,-1
 1620 0 l 1,47,-1
 1622 10 l 1,48,-1
 1734 170 l 1,49,50
 1880 216 1880 216 1993 358 c 0,51,52
 2116 513 2116 513 2172 755 c 0,53,54
 2208 911 2208 911 2208 1022 c 0,55,56
 2208 1091 2208 1091 2194 1144 c 0,57,58
 2137 1360 2137 1360 1950 1360 c 0,59,60
 1764 1360 1764 1360 1606 1144 c 0,61,62
 1507 1009 1507 1009 1448 755 c 2,63,-1
 1286 50 l 1,64,-1
 1075 -40 l 1,65,-1
 1065 -40 l 1,0,-1
EndSplineSet
Validated: 1
EndChar

StartChar: N
Encoding: 78 78 49
Width: 1454
GlyphClass: 2
Flags: W
HStem: -40 21G<171 227.889> 0 170<1109 1279> 1360 170<895.119 1199.23>
VStem: 1314 201<726.289 1222.41>
DStem2: 171 -40 371.222 -40 0.224951 0.97437<137.407 1180.86>
LayerCount: 2
Fore
SplineSet
171 -40 m 1,0,-1
 354 755 l 2,1,2
 421 1046 421 1046 558 1222 c 0,3,4
 798 1530 798 1530 1095 1530 c 0,5,6
 1393 1530 1393 1530 1490 1222 c 0,7,8
 1515 1143 1515 1143 1515 1040 c 0,9,10
 1515 914 1515 914 1478 755 c 0,11,12
 1409 458 1409 458 1276 312 c 0,13,14
 1193 221 1193 221 1109 170 c 1,15,-1
 1393 170 l 1,16,-1
 1391 160 l 1,17,-1
 1279 0 l 1,18,-1
 726 0 l 1,19,-1
 728 10 l 1,20,-1
 840 170 l 1,21,22
 986 216 986 216 1099 358 c 0,23,24
 1222 513 1222 513 1278 755 c 0,25,26
 1314 911 1314 911 1314 1022 c 0,27,28
 1314 1091 1314 1091 1300 1144 c 0,29,30
 1243 1360 1243 1360 1056 1360 c 128,-1,31
 869 1360 869 1360 712 1144 c 0,32,33
 613 1008 613 1008 554 755 c 2,34,-1
 392 50 l 1,35,-1
 181 -40 l 1,36,-1
 171 -40 l 1,0,-1
EndSplineSet
Validated: 1
EndChar

StartChar: O
Encoding: 79 79 50
Width: 1424
GlyphClass: 2
Flags: W
HStem: -20 170<607.649 906.287> 1360 170<865.615 1165.57>
VStem: 287 201<286.771 783.585> 1284 200<721.395 1222.41>
LayerCount: 2
Fore
SplineSet
524 755 m 0,0,1
 488 596 488 596 488 485 c 0,2,3
 488 416 488 416 502 365 c 0,4,5
 561 150 561 150 747 150 c 0,6,7
 930 150 930 150 1090 366 c 0,8,9
 1189 500 1189 500 1248 755 c 0,10,11
 1284 911 1284 911 1284 1022 c 0,12,13
 1284 1091 1284 1091 1270 1144 c 0,14,15
 1213 1360 1213 1360 1026 1360 c 0,16,17
 841 1360 841 1360 682 1144 c 0,18,19
 581 1007 581 1007 524 755 c 0,0,1
324 754 m 0,20,21
 391 1046 391 1046 528 1222 c 0,22,23
 768 1530 768 1530 1065 1530 c 0,24,25
 1366 1530 1366 1530 1460 1222 c 0,26,27
 1484 1143 1484 1143 1484 1041 c 0,28,29
 1484 917 1484 917 1448 755 c 0,30,31
 1382 465 1382 465 1244 288 c 0,32,33
 1004 -20 1004 -20 707 -20 c 128,-1,34
 410 -20 410 -20 312 287 c 0,35,36
 287 365 287 365 287 470 c 0,37,38
 287 599 287 599 324 754 c 0,20,21
EndSplineSet
Validated: 1
EndChar

StartChar: P
Encoding: 80 80 51
Width: 1374
GlyphClass: 2
Flags: W
HStem: -40 21G<171 227.889> 500 170<729 1064.85> 1360 170<895.863 1199.78>
VStem: 1299 202<914.667 1262.59>
DStem2: 171 -40 371.222 -40 0.224951 0.97437<137.407 1180.77>
LayerCount: 2
Fore
SplineSet
171 -40 m 1,0,-1
 354 755 l 2,1,2
 421 1046 421 1046 558 1222 c 0,3,4
 798 1530 798 1530 1095 1530 c 0,5,6
 1345 1530 1345 1530 1446 1346 c 16,7,8
 1501 1246 1501 1246 1501 1131 c 0,9,10
 1501 1070 1501 1070 1486 1005 c 0,11,12
 1446 832 1446 832 1291 684 c 0,13,14
 1099 500 1099 500 807 500 c 2,15,-1
 614 500 l 1,16,-1
 617 510 l 1,17,-1
 729 670 l 1,18,-1
 847 670 l 2,19,20
 1035 670 1035 670 1137 762 c 0,21,22
 1254 868 1254 868 1286 1005 c 0,23,24
 1299 1061 1299 1061 1299 1109 c 0,25,26
 1299 1202 1299 1202 1251 1267 c 0,27,28
 1182 1360 1182 1360 1056 1360 c 0,29,30
 872 1360 872 1360 712 1144 c 0,31,32
 613 1010 613 1010 554 755 c 2,33,-1
 392 50 l 1,34,-1
 181 -40 l 1,35,-1
 171 -40 l 1,0,-1
EndSplineSet
Validated: 1
EndChar

StartChar: Q
Encoding: 81 81 52
Width: 1424
GlyphClass: 2
Flags: W
HStem: -20 21G<558 699.1> 1360 170<865.615 1165.57>
VStem: 287 200<289.937 784.202> 1284 200<721.336 1222.41>
DStem2: 1121 153 839 236 0.420385 -0.907346<-15.0032 331.851>
LayerCount: 2
Fore
SplineSet
707 -20 m 17,0,1
 409 -20 409 -20 312 288 c 0,2,3
 287 367 287 367 287 470 c 0,4,5
 287 596 287 596 324 755 c 0,6,7
 392 1047 392 1047 528 1222 c 0,8,9
 768 1530 768 1530 1065 1530 c 0,10,11
 1366 1530 1366 1530 1460 1222 c 0,12,13
 1484 1143 1484 1143 1484 1041 c 0,14,15
 1484 917 1484 917 1448 755 c 0,16,17
 1382 465 1382 465 1244 288 c 0,18,19
 1183 210 1183 210 1121 153 c 1,20,-1
 1266 -158 l 1,21,-1
 1070 -241 l 1,22,-1
 1060 -241 l 1,23,-1
 839 236 l 1,24,-1
 1035 319 l 1,25,-1
 1045 319 l 1,26,-1
 1047 312 l 1,27,28
 1069 337 1069 337 1090 366 c 0,29,30
 1189 499 1189 499 1248 755 c 0,31,32
 1284 911 1284 911 1284 1022 c 0,33,34
 1284 1091 1284 1091 1270 1144 c 0,35,36
 1213 1360 1213 1360 1026 1360 c 0,37,38
 841 1360 841 1360 682 1144 c 0,39,40
 583 1009 583 1009 524 755 c 0,41,42
 487 595 487 595 487 485 c 0,43,44
 487 416 487 416 502 366 c 0,45,46
 543 230 543 230 628 180 c 9,47,-1
 707 -20 l 17,0,1
EndSplineSet
Validated: 1
EndChar

StartChar: R
Encoding: 82 82 53
Width: 1438
GlyphClass: 2
Flags: W
HStem: -40 21G<171 227.889 1083.63 1149.99> 500 170<729 840> 1360 170<895.863 1199.78>
VStem: 1299 202<914.862 1262.59>
DStem2: 171 -40 371.222 -40 0.224951 0.97437<137.407 1180.77> 1064 542 840 500 0.424262 -0.905539<0 539.328>
LayerCount: 2
Fore
SplineSet
171 -40 m 1,0,-1
 354 755 l 2,1,2
 421 1046 421 1046 558 1222 c 0,3,4
 798 1530 798 1530 1095 1530 c 0,5,6
 1345 1530 1345 1530 1446 1346 c 0,7,8
 1501 1246 1501 1246 1501 1131 c 0,9,10
 1501 1070 1501 1070 1486 1005 c 0,11,12
 1446 833 1446 833 1291 684 c 0,13,14
 1191 588 1191 588 1064 542 c 1,15,-1
 1298 43 l 1,16,-1
 1103 -40 l 1,17,-1
 1093 -40 l 1,18,-1
 840 500 l 9,19,-1
 614 500 l 1,20,-1
 617 510 l 1,21,-1
 729 670 l 1,22,-1
 847 670 l 2,23,24
 1035 670 1035 670 1137 762 c 0,25,26
 1254 868 1254 868 1286 1005 c 0,27,28
 1299 1061 1299 1061 1299 1109 c 0,29,30
 1299 1202 1299 1202 1251 1267 c 0,31,32
 1182 1360 1182 1360 1056 1360 c 0,33,34
 872 1360 872 1360 712 1144 c 0,35,36
 613 1010 613 1010 554 755 c 2,37,-1
 392 50 l 1,38,-1
 181 -40 l 1,39,-1
 171 -40 l 1,0,-1
EndSplineSet
Validated: 1
EndChar

StartChar: S
Encoding: 83 83 54
Width: 1210
GlyphClass: 2
Flags: W
HStem: -20 170<481.365 781.074> 1360 170<784.401 1035.1>
VStem: 453 207<1021.97 1233.37> 1006 207<380.137 659.292>
LayerCount: 2
Fore
SplineSet
186 288 m 1,0,1
 366 366 l 1,2,-1
 376 366 l 1,3,4
 435 150 435 150 621 150 c 0,5,6
 750 150 750 150 876 265 c 0,7,8
 966 347 966 347 998 478 c 0,9,10
 1006 511 1006 511 1006 540 c 0,11,12
 1006 601 1006 601 973 646 c 0,13,14
 914 726 914 726 779 756 c 0,15,16
 631 789 631 789 539 868 c 0,17,18
 453 942 453 942 453 1054 c 0,19,20
 453 1090 453 1090 462 1132 c 0,21,22
 505 1313 505 1313 660 1428 c 0,23,24
 797 1530 797 1530 969 1530 c 16,25,26
 1193 1530 1193 1530 1265 1302 c 1,27,-1
 1089 1227 l 1,28,-1
 1079 1227 l 1,29,30
 1043 1360 1043 1360 930 1360 c 16,31,32
 835 1360 835 1360 761 1299 c 0,33,34
 688 1239 688 1239 666 1147 c 0,35,36
 660 1122 660 1122 660 1101 c 0,37,38
 660 1052 660 1052 690 1021 c 0,39,40
 744 963 744 963 877 935 c 0,41,42
 1057 897 1057 897 1149 779 c 0,43,44
 1213 697 1213 697 1213 584 c 0,45,46
 1213 530 1213 530 1199 472 c 0,47,48
 1157 285 1157 285 976 132 c 0,49,50
 796 -20 796 -20 581 -20 c 0,51,52
 282 -20 282 -20 186 288 c 1,0,1
EndSplineSet
Validated: 1
EndChar

StartChar: T
Encoding: 84 84 55
Width: 1066
GlyphClass: 2
Flags: W
HStem: -40 21G<424 480.889> 1340 170<501.112 743 943 1295>
DStem2: 424 -40 624.222 -40 0.224951 0.97437<137.407 1416.39>
LayerCount: 2
Fore
SplineSet
424 -40 m 1,0,-1
 743 1340 l 25,1,-1
 622 1340 l 18,2,3
 503 1340 503 1340 447 1223 c 1,4,-1
 437 1223 l 1,5,-1
 304 1294 l 1,6,7
 413 1510 413 1510 662 1510 c 2,8,-1
 1410 1510 l 17,9,-1
 1407 1500 l 1,10,-1
 1295 1340 l 1,11,-1
 943 1340 l 1,12,-1
 645 50 l 1,13,-1
 434 -40 l 1,14,-1
 424 -40 l 1,0,-1
EndSplineSet
Validated: 1
EndChar

StartChar: U
Encoding: 85 85 56
Width: 1474
GlyphClass: 2
Flags: W
HStem: -20 170<607.612 906.986> 1340 170<524 693> 1530 20G<1575.11 1632>
VStem: 287 201<287.589 783.432>
DStem2: 1069.08 -20 1269.08 -20 0.224951 0.97437<476.277 1518.98>
LayerCount: 2
Fore
SplineSet
1632 1550 m 1,0,-1
 1448 755 l 2,1,2
 1381 466 1381 466 1244 288 c 0,3,4
 1006 -20 1006 -20 707 -20 c 128,-1,5
 408 -20 408 -20 312 288 c 0,6,7
 287 368 287 368 287 471 c 0,8,9
 287 597 287 597 324 755 c 0,10,11
 393 1051 393 1051 527 1198 c 0,12,13
 611 1290 611 1290 693 1340 c 1,14,-1
 409 1340 l 1,15,-1
 412 1350 l 1,16,-1
 524 1510 l 1,17,-1
 1077 1510 l 1,18,-1
 1074 1500 l 1,19,-1
 962 1340 l 1,20,21
 816 1294 816 1294 704 1152 c 0,22,23
 578 993 578 993 524 755 c 0,24,25
 488 597 488 597 488 486 c 0,26,27
 488 416 488 416 502 366 c 0,28,29
 562 150 562 150 747 150 c 0,30,31
 931 150 931 150 1090 366 c 0,32,33
 1190 502 1190 502 1248 755 c 2,34,-1
 1411 1460 l 1,35,-1
 1622 1550 l 1,36,-1
 1632 1550 l 1,0,-1
EndSplineSet
Validated: 1
EndChar

StartChar: V
Encoding: 86 86 57
Width: 1474
GlyphClass: 2
Flags: W
HStem: -20 170<666.852 956.512> 1530 20G<701.111 758 1209.23 1334>
VStem: 337 198<303.398 778.438> 1335 199<725.64 1221.45>
DStem2: 195.077 -20 395.077 -20 0.224951 0.97437<566.926 1518.98>
LayerCount: 2
Fore
SplineSet
537 1460 m 17,0,-1
 748 1550 l 1,1,-1
 758 1550 l 9,2,-1
 574 755 l 2,3,4
 535 587 535 587 535 480 c 0,5,6
 535 410 535 410 552 366 c 0,7,8
 632 150 632 150 797 150 c 0,9,10
 980 150 980 150 1140 366 c 0,11,12
 1237 496 1237 496 1298 755 c 0,13,14
 1335 911 1335 911 1335 1021 c 0,15,16
 1335 1092 1335 1092 1320 1144 c 0,17,18
 1270 1319 1270 1319 1114 1401 c 1,19,-1
 1224 1550 l 1,20,-1
 1234 1550 l 1,21,22
 1434 1476 1434 1476 1510 1222 c 0,23,24
 1534 1142 1534 1142 1534 1039 c 0,25,26
 1534 913 1534 913 1498 755 c 0,27,28
 1432 466 1432 466 1294 288 c 0,29,30
 1055 -20 1055 -20 757 -20 c 128,-1,31
 459 -20 459 -20 362 288 c 0,32,33
 337 367 337 367 337 470 c 0,34,35
 337 596 337 596 374 755 c 2,36,-1
 537 1460 l 17,0,-1
EndSplineSet
Validated: 1
EndChar

StartChar: W
Encoding: 87 87 58
Width: 2348
GlyphClass: 2
Flags: W
HStem: -20 170<607.612 905.315 1532.37 1830.96> 1340 170<524 693> 1530 20G<1575.11 1632 2083.23 2208.5>
VStem: 287 201<287.589 783.432> 2208 200<721.57 1223.46>
DStem2: 1069.08 -20 1269.08 -20 0.224951 0.97437<573.565 1518.98>
LayerCount: 2
Fore
SplineSet
1632 1550 m 1,0,-1
 1448 755 l 2,1,2
 1412 597 1412 597 1412 486 c 0,3,4
 1412 416 1412 416 1426 366 c 0,5,6
 1486 150 1486 150 1671 150 c 0,7,8
 1854 150 1854 150 2014 366 c 0,9,10
 2114 501 2114 501 2172 755 c 0,11,12
 2208 913 2208 913 2208 1023 c 0,13,14
 2208 1092 2208 1092 2194 1144 c 0,15,16
 2147 1317 2147 1317 1988 1401 c 1,17,-1
 2098 1550 l 1,18,-1
 2108 1550 l 1,19,20
 2309 1476 2309 1476 2384 1222 c 0,21,22
 2408 1141 2408 1141 2408 1038 c 0,23,24
 2408 916 2408 916 2372 755 c 0,25,26
 2305 467 2305 467 2168 288 c 0,27,28
 1931 -20 1931 -20 1631 -20 c 0,29,30
 1337 -20 1337 -20 1239 281 c 1,31,32
 1001 -20 1001 -20 707 -20 c 0,33,34
 408 -20 408 -20 312 288 c 0,35,36
 287 368 287 368 287 471 c 0,37,38
 287 597 287 597 324 755 c 0,39,40
 393 1051 393 1051 527 1198 c 0,41,42
 611 1290 611 1290 693 1340 c 1,43,-1
 409 1340 l 1,44,-1
 412 1350 l 1,45,-1
 524 1510 l 1,46,-1
 1077 1510 l 1,47,-1
 1074 1500 l 1,48,-1
 962 1340 l 1,49,50
 816 1294 816 1294 704 1152 c 0,51,52
 578 993 578 993 524 755 c 0,53,54
 488 597 488 597 488 486 c 0,55,56
 488 416 488 416 502 366 c 0,57,58
 562 150 562 150 747 150 c 0,59,60
 930 150 930 150 1090 366 c 0,61,62
 1190 501 1190 501 1248 755 c 2,63,-1
 1411 1460 l 1,64,-1
 1622 1550 l 1,65,-1
 1632 1550 l 1,0,-1
EndSplineSet
Validated: 1
EndChar

StartChar: X
Encoding: 88 88 59
Width: 1278
GlyphClass: 2
Flags: W
HStem: -40 21G<227.195 291.474 969 1025.89> 1530 20G<601.111 658 1334.55 1398.59>
VStem: 415 212<1069.05 1462.83> 1001 211<47.9095 447.895>
DStem2: 110 42 275 -40 0.635438 0.772152<41.5308 890.898 1096.44 1952.98>
LayerCount: 2
Fore
SplineSet
265 -40 m 1,0,-1
 110 42 l 1,1,-1
 676 730 l 1,2,3
 526 840 526 840 467 996 c 0,4,5
 415 1133 415 1133 415 1275 c 0,6,7
 415 1369 415 1369 437 1460 c 1,8,-1
 648 1550 l 1,9,-1
 658 1550 l 1,10,11
 627 1416 627 1416 627 1305 c 0,12,13
 627 1175 627 1175 669 1076 c 0,14,15
 717 963 717 963 805 886 c 1,16,-1
 1351 1550 l 1,17,-1
 1361 1550 l 1,18,-1
 1517 1467 l 1,19,-1
 946 774 l 1,20,21
 1097 656 1097 656 1157 511 c 0,22,23
 1212 378 1212 378 1212 235 c 0,24,25
 1212 145 1212 145 1190 50 c 1,26,-1
 979 -40 l 1,27,-1
 969 -40 l 1,28,29
 1001 96 1001 96 1001 210 c 0,30,31
 1001 335 1001 335 963 432 c 0,32,33
 923 533 923 533 817 618 c 1,34,-1
 275 -40 l 1,35,-1
 265 -40 l 1,0,-1
EndSplineSet
Validated: 1
EndChar

StartChar: Y
Encoding: 89 89 60
Width: 1372
GlyphClass: 2
Flags: W
HStem: -40 21G<963 1019.89> 384 170<638.118 945.076> 1340 170<524 693> 1530 20G<1473.11 1530>
VStem: 322 203<669.765 1035.81>
DStem2: 963 -40 1163.22 -40 0.224951 0.97437<137.407 584.859 771.418 1539.39>
LayerCount: 2
Fore
SplineSet
540 954 m 0,0,1
 525 890 525 890 525 835 c 0,2,3
 525 735 525 735 572 665 c 0,4,5
 645 554 645 554 785 554 c 0,6,7
 921 554 921 554 1035 658 c 0,8,9
 1147 760 1147 760 1178 894 c 2,10,-1
 1309 1460 l 1,11,-1
 1520 1550 l 1,12,-1
 1530 1550 l 1,13,-1
 1184 50 l 1,14,-1
 973 -40 l 1,15,-1
 963 -40 l 1,16,-1
 1094 530 l 1,17,18
 935 384 935 384 746 384 c 0,19,20
 488 384 488 384 375 588 c 16,21,22
 322 684 322 684 322 805 c 0,23,24
 322 875 322 875 340 954 c 0,25,26
 369 1082 369 1082 459 1184 c 0,27,28
 545 1282 545 1282 693 1340 c 1,29,-1
 409 1340 l 1,30,-1
 412 1350 l 1,31,-1
 524 1510 l 1,32,-1
 1077 1510 l 1,33,-1
 1074 1500 l 1,34,-1
 962 1340 l 1,35,36
 797 1300 797 1300 669 1179 c 0,37,38
 571 1086 571 1086 540 954 c 0,0,1
EndSplineSet
Validated: 1
EndChar

StartChar: Z
Encoding: 90 90 61
Width: 1208
GlyphClass: 2
Flags: W
HStem: 0 170<352 940.161> 1340 170<611 1131>
DStem2: 1131 1340 1177 1119 0.65608 0.754691<-1391.64 -0.154468>
LayerCount: 2
Fore
SplineSet
313 0 m 2,0,1
 147 0 147 0 147 99 c 0,2,3
 147 115 147 115 151 134 c 0,4,5
 174 244 174 244 306 391 c 1,6,-1
 1131 1340 l 1,7,-1
 496 1340 l 1,8,-1
 499 1350 l 1,9,-1
 611 1510 l 1,10,-1
 1171 1510 l 2,11,12
 1341 1510 1341 1510 1341 1409 c 0,13,14
 1341 1393 1341 1393 1337 1374 c 0,15,16
 1311 1270 1311 1270 1177 1119 c 1,17,-1
 352 170 l 9,18,-1
 819 170 l 2,19,20
 937 170 937 170 994 287 c 1,21,-1
 1004 287 l 1,22,-1
 1138 216 l 1,23,24
 1028 0 1028 0 780 0 c 2,25,-1
 313 0 l 2,0,1
EndSplineSet
Validated: 1
EndChar

StartChar: bracketleft
Encoding: 91 91 62
Width: 864
GlyphClass: 2
Flags: W
HStem: -240 170<393.998 684> 1580 170<760.731 1104>
DStem2: 144.594 -240 344.594 -240 0.224951 0.97437<229.814 1922.37>
LayerCount: 2
Fore
SplineSet
684 -240 m 1,0,-1
 395 -240 l 2,1,2
 186 -240 186 -240 186 -90 c 0,3,4
 186 -61 186 -61 194 -26 c 2,5,-1
 555 1536 l 2,6,7
 604 1750 604 1750 854 1750 c 2,8,-1
 1218 1750 l 1,9,-1
 1216 1740 l 1,10,-1
 1104 1580 l 1,11,-1
 815 1580 l 2,12,13
 765 1580 765 1580 755 1536 c 2,14,-1
 394 -26 l 2,15,16
 384 -70 384 -70 434 -70 c 2,17,-1
 798 -70 l 1,18,-1
 796 -80 l 1,19,-1
 684 -240 l 1,0,-1
EndSplineSet
Validated: 1
EndChar

StartChar: backslash
Encoding: 92 92 63
Width: 974
GlyphClass: 2
Flags: W
VStem: 375 572
DStem2: 542 1650 375 1582 0.228945 -0.973439<27.9601 1768.99>
LayerCount: 2
Fore
SplineSet
780 -140 m 1,0,-1
 375 1582 l 1,1,-1
 532 1650 l 1,2,-1
 542 1650 l 1,3,-1
 947 -72 l 1,4,-1
 790 -140 l 1,5,-1
 780 -140 l 1,0,-1
EndSplineSet
Validated: 1
EndChar

StartChar: bracketright
Encoding: 93 93 64
Width: 864
GlyphClass: 2
Flags: W
HStem: -240 170<109 452.269> 1580 170<529 819.002>
DStem2: 408.594 -240 608.978 -240 0.224951 0.97437<165.057 1857.61>
LayerCount: 2
Fore
SplineSet
-5 -240 m 1,0,-1
 -3 -230 l 1,1,-1
 109 -70 l 1,2,-1
 398 -70 l 2,3,4
 448 -70 448 -70 458 -26 c 2,5,-1
 819 1536 l 2,6,7
 829 1580 829 1580 779 1580 c 2,8,-1
 415 1580 l 1,9,-1
 417 1590 l 1,10,-1
 529 1750 l 1,11,-1
 818 1750 l 2,12,13
 1027 1750 1027 1750 1027 1600 c 0,14,15
 1027 1571 1027 1571 1019 1536 c 2,16,-1
 658 -26 l 2,17,18
 609 -240 609 -240 359 -240 c 2,19,-1
 -5 -240 l 1,0,-1
EndSplineSet
Validated: 1
EndChar

StartChar: asciicircum
Encoding: 94 94 65
Width: 1321
GlyphClass: 2
Flags: W
HStem: 1006 544
DStem2: 1069 1550 966 1328 0.607131 -0.794602<113.867 523.94>
LayerCount: 2
Fore
SplineSet
1059 1550 m 1,0,-1
 1069 1550 l 1,1,-1
 1422 1088 l 1,2,-1
 1230 1006 l 1,3,-1
 1220 1006 l 1,4,-1
 966 1328 l 1,5,-1
 565 1006 l 1,6,-1
 555 1006 l 1,7,-1
 401 1088 l 1,8,-1
 867 1468 l 1,9,-1
 1059 1550 l 1,0,-1
EndSplineSet
Validated: 1
EndChar

StartChar: underscore
Encoding: 95 95 66
Width: 1214
GlyphClass: 2
Flags: W
HStem: -410 182<178.362 888.344>
LayerCount: 2
Fore
SplineSet
55.3438 -410 m 1,0,-1
 57.6523 -400 l 1,1,-1
 178.362 -228 l 1,2,-1
 1011.36 -228 l 1,3,-1
 1009.05 -238 l 1,4,-1
 888.344 -410 l 1,5,-1
 55.3438 -410 l 1,0,-1
EndSplineSet
Validated: 1
EndChar

StartChar: grave
Encoding: 96 96 67
Width: 648
GlyphClass: 2
Flags: W
HStem: 1150 400
VStem: 488 288
LayerCount: 2
Fore
SplineSet
684 1550 m 1,0,-1
 694 1550 l 1,1,-1
 776 1205 l 1,2,-1
 646 1150 l 1,3,-1
 636 1150 l 1,4,-1
 488 1466 l 1,5,-1
 684 1550 l 1,0,-1
EndSplineSet
Validated: 1
EndChar

StartChar: a
Encoding: 97 97 68
Width: 1173
GlyphClass: 2
Flags: W
HStem: -40 21G<929.5 1048> -20 170<501.263 567> 950 170<667.439 893.856>
VStem: 252 197<204.235 614.85> 948 197<479.5 895.995>
DStem2: 783.594 -40 983.594 -40 0.224951 0.97437<229.675 805.353>
LayerCount: 2
Fore
SplineSet
567 -20 m 1,0,1
 345 -20 345 -20 272 211 c 0,2,3
 252 274 252 274 252 353 c 0,4,5
 252 442 252 442 277 550 c 0,6,7
 327 761 327 761 427 889 c 0,8,9
 607 1120 607 1120 831 1120 c 0,10,11
 1057 1120 1057 1120 1126 889 c 0,12,13
 1145 825 1145 825 1145 747 c 0,14,15
 1145 658 1145 658 1120 550 c 2,16,-1
 1033 174 l 2,17,18
 1023 130 1023 130 1071 130 c 1,19,-1
 1148 130 l 1,20,-1
 1146 120 l 1,21,-1
 1034 -40 l 1,22,23
 825 -40 825 -40 825 110 c 0,24,25
 825 139 825 139 833 174 c 2,26,-1
 920 550 l 2,27,28
 948 674 948 674 948 751 c 0,29,30
 948 789 948 789 941 818 c 0,31,32
 904 950 904 950 791 950 c 128,-1,33
 678 950 678 950 581 818 c 0,34,35
 520 735 520 735 477 550 c 0,36,37
 449 429 449 429 449 352 c 0,38,39
 449 311 449 311 457 282 c 0,40,41
 493 151 493 151 605 150 c 1,42,-1
 682 150 l 1,43,-1
 679 140 l 1,44,-1
 567 -20 l 1,0,1
EndSplineSet
Validated: 1
EndChar

StartChar: b
Encoding: 98 98 69
Width: 1173
GlyphClass: 2
Flags: W
HStem: -20 170<531.275 759.326> 950 170<860 925.737> 1530 20G<681.111 738>
VStem: 281 198<204.005 616.797> 978 197<485.282 895.765>
DStem2: 175.405 -20 375.405 -20 0.224951 0.97437<429.22 1518.91>
LayerCount: 2
Fore
SplineSet
517 1460 m 1,0,-1
 728 1550 l 1,1,-1
 738 1550 l 1,2,-1
 507 550 l 2,3,4
 479 425 479 425 479 348 c 0,5,6
 479 310 479 310 486 282 c 0,7,8
 524 150 524 150 636 150 c 0,9,10
 749 150 749 150 846 282 c 0,11,12
 907 365 907 365 950 550 c 0,13,14
 978 671 978 671 978 748 c 0,15,16
 978 789 978 789 970 818 c 0,17,18
 934 949 934 949 822 950 c 1,19,-1
 745 950 l 1,20,-1
 748 960 l 1,21,-1
 860 1120 l 1,22,23
 1082 1120 1082 1120 1155 889 c 0,24,25
 1175 826 1175 826 1175 747 c 0,26,27
 1175 658 1175 658 1150 550 c 0,28,29
 1101 340 1101 340 1000 211 c 0,30,31
 819 -20 819 -20 596 -20 c 0,32,33
 378 -20 378 -20 301 211 c 0,34,35
 281 271 281 271 281 349 c 0,36,37
 281 437 281 437 307 550 c 2,38,-1
 517 1460 l 1,0,-1
EndSplineSet
Validated: 1
EndChar

StartChar: c
Encoding: 99 99 70
Width: 1098
GlyphClass: 2
Flags: W
HStem: -20 170<501.275 729.804> 950 170<666.275 896.004>
VStem: 251 198<204.005 613.775>
LayerCount: 2
Fore
SplineSet
1065 377 m 1,0,1
 1025 281 1025 281 970 211 c 0,2,3
 790 -20 790 -20 566 -20 c 0,4,5
 348 -20 348 -20 271 211 c 0,6,7
 251 271 251 271 251 349 c 0,8,9
 251 440 251 440 277 550 c 0,10,11
 323 754 323 754 427 889 c 0,12,13
 605 1120 605 1120 830 1120 c 0,14,15
 1054 1120 1054 1120 1125 892 c 1,16,-1
 950 818 l 1,17,-1
 940 818 l 1,18,19
 904 950 904 950 790 950 c 0,20,21
 677 950 677 950 580 818 c 0,22,23
 519 734 519 734 477 550 c 0,24,25
 449 426 449 426 449 349 c 0,26,27
 449 310 449 310 456 282 c 0,28,29
 494 150 494 150 606 150 c 0,30,31
 720 150 720 150 816 282 c 1,32,-1
 1055 377 l 1,33,-1
 1065 377 l 1,0,1
EndSplineSet
Validated: 1
EndChar

StartChar: d
Encoding: 100 100 71
Width: 1174
GlyphClass: 2
Flags: W
HStem: -20 170<501.656 730.737> 930 170<429 562> 1530 20G<1295.11 1352>
VStem: 252 197<204.005 605.097>
DStem2: 788.405 -20 989.405 -20 0.224951 0.97437<329.774 1519.13>
LayerCount: 2
Fore
SplineSet
1352 1550 m 1,0,-1
 1121 550 l 2,1,2
 1073 341 1073 341 971 211 c 0,3,4
 790 -20 790 -20 567 -20 c 0,5,6
 348 -20 348 -20 272 211 c 0,7,8
 252 272 252 272 252 351 c 0,9,10
 252 439 252 439 277 550 c 0,11,12
 333 792 333 792 562 930 c 1,13,-1
 315 930 l 1,14,-1
 317 940 l 1,15,-1
 429 1100 l 1,16,-1
 897 1100 l 1,17,-1
 895 1090 l 1,18,-1
 783 930 l 1,19,20
 643 846 643 846 580 766 c 0,21,22
 505 670 505 670 477 550 c 0,23,24
 449 429 449 429 449 352 c 0,25,26
 449 311 449 311 457 282 c 0,27,28
 493 150 493 150 607 150 c 128,-1,29
 721 150 721 150 818 283 c 0,30,31
 877 364 877 364 920 550 c 2,32,-1
 1131 1460 l 1,33,-1
 1342 1550 l 1,34,-1
 1352 1550 l 1,0,-1
EndSplineSet
Validated: 1
EndChar

StartChar: e
Encoding: 101 101 72
Width: 1128
GlyphClass: 2
Flags: W
HStem: -20 170<501.275 729.804> 382 170<691 841.681> 950 170<660.846 910.757>
VStem: 251 198<204.005 614.402> 948 197<670.184 913.021>
LayerCount: 2
Fore
SplineSet
1065 377 m 1,0,1
 1025 281 1025 281 970 211 c 0,2,3
 790 -20 790 -20 566 -20 c 0,4,5
 348 -20 348 -20 271 211 c 0,6,7
 251 271 251 271 251 349 c 0,8,9
 251 441 251 441 277 550 c 0,10,11
 323 754 323 754 427 889 c 0,12,13
 605 1120 605 1120 830 1120 c 0,14,15
 1001 1120 1001 1120 1082 1013 c 0,16,17
 1145 930 1145 930 1145 835 c 0,18,19
 1145 799 1145 799 1136 762 c 0,20,21
 1099 609 1099 609 970 495 c 0,22,23
 842 382 842 382 654 382 c 1,24,-1
 577 382 l 1,25,-1
 580 392 l 1,26,-1
 691 552 l 1,27,28
 799 552 799 552 859 610 c 0,29,30
 918 667 918 667 942 764 c 0,31,32
 948 788 948 788 948 810 c 0,33,34
 948 859 948 859 921 894 c 0,35,36
 881 950 881 950 790 950 c 0,37,38
 668 950 668 950 580 818 c 0,39,40
 516 722 516 722 477 550 c 0,41,42
 449 426 449 426 449 349 c 0,43,44
 449 310 449 310 456 282 c 0,45,46
 494 150 494 150 606 150 c 0,47,48
 720 150 720 150 816 282 c 1,49,-1
 1055 377 l 1,50,-1
 1065 377 l 1,0,1
EndSplineSet
Validated: 1
EndChar

StartChar: f
Encoding: 102 102 73
Width: 836
GlyphClass: 2
Flags: W
HStem: -40 21G<171 227.889> 830 170<611 853> 1360 170<793.406 974>
DStem2: 171 -40 371.222 -40 0.224951 0.97437<137.407 937.907>
LayerCount: 2
Fore
SplineSet
171 -40 m 1,0,-1
 402 960 l 2,1,2
 450 1168 450 1168 552 1299 c 0,3,4
 732 1530 732 1530 954 1530 c 2,5,-1
 1089 1530 l 1,6,-1
 1087 1520 l 1,7,-1
 974 1360 l 1,8,-1
 915 1360 l 2,9,10
 804 1360 804 1360 705 1228 c 0,11,12
 652 1157 652 1157 611 1000 c 1,13,-1
 967 1000 l 1,14,-1
 965 990 l 1,15,-1
 853 830 l 1,16,-1
 572 830 l 1,17,-1
 392 50 l 1,18,-1
 181 -40 l 1,19,-1
 171 -40 l 1,0,-1
EndSplineSet
Validated: 1
EndChar

StartChar: g
Encoding: 103 103 74
Width: 1173
GlyphClass: 2
Flags: W
HStem: -430 170<347 642.562> -20 170<501.054 566> 950 170<666.568 895.74>
VStem: 251 198<202.934 614.569> 948 197<479.531 895.995>
DStem2: 693.405 -430 893.405 -430 0.224951 0.97437<330.862 1202.72>
LayerCount: 2
Fore
SplineSet
566 -20 m 1,0,1
 347 -20 347 -20 271 211 c 0,2,3
 251 272 251 272 251 350 c 0,4,5
 251 441 251 441 277 550 c 0,6,7
 325 759 325 759 427 889 c 0,8,9
 608 1120 608 1120 830 1120 c 128,-1,10
 1052 1120 1052 1120 1125 889 c 0,11,12
 1145 826 1145 826 1145 747 c 0,13,14
 1145 658 1145 658 1120 550 c 2,15,-1
 1025 140 l 2,16,17
 978 -65 978 -65 876 -199 c 0,18,19
 700 -430 700 -430 473 -430 c 2,20,-1
 232 -430 l 1,21,-1
 234 -420 l 1,22,-1
 347 -260 l 1,23,-1
 512 -260 l 2,24,25
 636 -260 636 -260 722 -128 c 0,26,27
 787 -28 787 -28 825 140 c 2,28,-1
 920 550 l 2,29,30
 948 671 948 671 948 748 c 0,31,32
 948 789 948 789 940 818 c 0,33,34
 904 950 904 950 790 950 c 128,-1,35
 676 950 676 950 579 817 c 0,36,37
 519 735 519 735 477 550 c 0,38,39
 449 427 449 427 449 349 c 0,40,41
 449 311 449 311 456 282 c 0,42,43
 492 151 492 151 604 150 c 1,44,-1
 681 150 l 1,45,-1
 678 140 l 1,46,-1
 566 -20 l 1,0,1
EndSplineSet
Validated: 1
EndChar

StartChar: h
Encoding: 104 104 75
Width: 1191
GlyphClass: 2
Flags: W
HStem: -40 21G<191 247.889> 0 170<883 1016> 950 170<717.016 943.615> 1530 20G<701.111 758>
VStem: 997 196<497.241 895.995>
DStem2: 191 -40 391.222 -40 0.224951 0.97437<137.407 944.043 1128.81 1539.39>
LayerCount: 2
Fore
SplineSet
191 -40 m 1,0,-1
 537 1460 l 1,1,-1
 748 1550 l 1,2,-1
 758 1550 l 1,3,-1
 635 1016 l 1,4,5
 751 1120 751 1120 880 1120 c 0,6,7
 1111 1120 1111 1120 1175 889 c 0,8,9
 1193 824 1193 824 1193 748 c 0,10,11
 1193 657 1193 657 1168 550 c 0,12,13
 1112 310 1112 310 883 170 c 1,14,-1
 1130 170 l 1,15,-1
 1128 160 l 1,16,-1
 1016 0 l 1,17,-1
 548 0 l 1,18,-1
 550 10 l 1,19,-1
 662 170 l 1,20,21
 804 255 804 255 865 334 c 0,22,23
 941 432 941 432 968 550 c 0,24,25
 997 676 997 676 997 754 c 0,26,27
 997 792 997 792 990 818 c 0,28,29
 954 950 954 950 839 950 c 0,30,31
 727 950 727 950 630 818 c 0,32,33
 570 736 570 736 527 550 c 2,34,-1
 412 50 l 1,35,-1
 201 -40 l 1,36,-1
 191 -40 l 1,0,-1
EndSplineSet
Validated: 1
EndChar

StartChar: i
Encoding: 105 105 76
Width: 600
GlyphClass: 2
Flags: W
HStem: -40 21G<336.5 455> 1120 20G<606.111 663> 1285 245<549.965 698.947>
VStem: 500 249<1334.31 1479.97>
DStem2: 190.594 -40 390.594 -40 0.224951 0.97437<229.675 1118.62>
LayerCount: 2
Fore
SplineSet
504 1407 m 0,0,1
 516 1458 516 1458 559 1494 c 128,-1,2
 602 1530 602 1530 653 1530 c 128,-1,3
 704 1530 704 1530 730 1494 c 0,4,5
 749 1468 749 1468 749 1437 c 0,6,7
 749 1425 749 1425 745 1407 c 0,8,9
 730 1354 730 1354 690 1321 c 0,10,11
 646 1285 646 1285 595 1285 c 0,12,13
 545 1285 545 1285 518 1322 c 0,14,15
 500 1346 500 1346 500 1375 c 0,16,17
 500 1389 500 1389 504 1407 c 0,0,1
441 -40 m 1,18,19
 232 -40 232 -40 232 110 c 0,20,21
 232 139 232 139 240 174 c 2,22,-1
 442 1050 l 1,23,-1
 653 1140 l 1,24,-1
 663 1140 l 1,25,-1
 440 174 l 2,26,27
 430 130 430 130 478 130 c 1,28,-1
 555 130 l 1,29,-1
 553 120 l 1,30,-1
 441 -40 l 1,18,19
EndSplineSet
Validated: 1
EndChar

StartChar: j
Encoding: 106 106 77
Width: 600
GlyphClass: 2
Flags: W
HStem: -440 21G<-120 -12> 1120 20G<606.111 663> 1285 245<549.965 698.947>
VStem: 500 249<1334.31 1479.97>
DStem2: 98.0064 -440 298.228 -440 0.224951 0.97437<329.474 1529.19>
LayerCount: 2
Fore
SplineSet
504 1407 m 0,0,1
 516 1458 516 1458 559 1494 c 128,-1,2
 602 1530 602 1530 653 1530 c 128,-1,3
 704 1530 704 1530 730 1494 c 0,4,5
 749 1468 749 1468 749 1437 c 0,6,7
 749 1425 749 1425 745 1407 c 0,8,9
 730 1354 730 1354 690 1321 c 0,10,11
 646 1285 646 1285 595 1285 c 0,12,13
 545 1285 545 1285 518 1322 c 0,14,15
 500 1346 500 1346 500 1375 c 0,16,17
 500 1389 500 1389 504 1407 c 0,0,1
-120 -430 m 1,18,-1
 3 -250 l 1,19,20
 68 -217 68 -217 127 -138 c 0,21,22
 187 -57 187 -57 230 130 c 2,23,-1
 442 1050 l 17,24,-1
 653 1140 l 1,25,-1
 663 1140 l 9,26,-1
 430 130 l 2,27,28
 382 -79 382 -79 280 -209 c 0,29,30
 99 -440 99 -440 -123 -440 c 1,31,-1
 -120 -430 l 1,18,-1
EndSplineSet
Validated: 1
EndChar

StartChar: k
Encoding: 107 107 78
Width: 1180
GlyphClass: 2
Flags: W
HStem: -40 21G<191 247.889> 0 170<872 1005> 1120 20G<1024.26 1094.83> 1530 20G<701.111 758>
VStem: 930 203<338.367 550.809>
DStem2: 191 -40 391.222 -40 0.224951 0.97437<137.407 633.969 821.955 1539.39> 566 717 846 752 0.75093 0.660381<233.374 640.539>
LayerCount: 2
Fore
SplineSet
191 -40 m 1,0,-1
 537 1460 l 1,1,-1
 748 1550 l 1,2,-1
 758 1550 l 1,3,-1
 566 717 l 1,4,-1
 1047 1140 l 1,5,-1
 1057 1140 l 1,6,-1
 1214 1057 l 1,7,-1
 846 752 l 1,8,9
 985 733 985 733 1058 659 c 0,10,11
 1133 583 1133 583 1133 486 c 0,12,13
 1133 454 1133 454 1125 420 c 0,14,15
 1089 267 1089 267 872 170 c 1,16,-1
 1119 170 l 1,17,-1
 1117 160 l 1,18,-1
 1005 0 l 1,19,-1
 537 0 l 1,20,-1
 539 10 l 1,21,-1
 651 170 l 1,22,23
 740 196 740 196 816 253 c 0,24,25
 902 318 902 318 925 420 c 0,26,27
 930 442 930 442 930 461 c 0,28,29
 930 514 930 514 892 552 c 0,30,31
 852 592 852 592 752 592 c 0,32,33
 661 592 661 592 587 540 c 0,34,35
 512 487 512 487 486 372 c 2,36,-1
 412 50 l 1,37,-1
 201 -40 l 1,38,-1
 191 -40 l 1,0,-1
EndSplineSet
Validated: 1
EndChar

StartChar: l
Encoding: 108 108 79
Width: 600
GlyphClass: 2
Flags: W
HStem: -40 21G<336.5 455> 1530 20G<701.111 758>
VStem: 232 526
DStem2: 190.594 -40 390.594 -40 0.224951 0.97437<229.675 1539.48>
LayerCount: 2
Fore
SplineSet
441 -40 m 1,0,1
 232 -40 232 -40 232 110 c 0,2,3
 232 139 232 139 240 174 c 2,4,-1
 537 1460 l 1,5,-1
 748 1550 l 1,6,-1
 758 1550 l 1,7,-1
 440 174 l 2,8,9
 430 130 430 130 478 130 c 1,10,-1
 555 130 l 1,11,-1
 553 120 l 1,12,-1
 441 -40 l 1,0,1
EndSplineSet
Validated: 1
EndChar

StartChar: m
Encoding: 109 109 80
Width: 1786
GlyphClass: 2
Flags: W
HStem: -40 21G<393.5 496.631 784 840.889> 0 170<1478 1611> 950 170<667.439 897.034 1309.42 1539.35>
VStem: 254 197<183.759 619.964> 1591 198<491.5 897.3>
DStem2: 784 -40 984.222 -40 0.224951 0.97437<137.407 805.231>
LayerCount: 2
Fore
SplineSet
784 -40 m 1,0,-1
 920 550 l 2,1,2
 948 673 948 673 948 751 c 0,3,4
 948 790 948 790 941 818 c 0,5,6
 908 950 908 950 791 950 c 0,7,8
 678 950 678 950 581 818 c 0,9,10
 521 736 521 736 477 550 c 0,11,12
 451 440 451 440 451 356 c 0,13,14
 451 315 451 315 457 282 c 0,15,16
 481 151 481 151 591 109 c 1,17,-1
 482 -40 l 1,18,-1
 472 -40 l 1,19,20
 315 28 315 28 271 211 c 0,21,22
 254 281 254 281 254 359 c 0,23,24
 254 448 254 448 277 550 c 0,25,26
 324 756 324 756 427 889 c 0,27,28
 607 1120 607 1120 831 1120 c 0,29,30
 1030 1120 1030 1120 1109 936 c 1,31,32
 1274 1120 1274 1120 1473 1120 c 0,33,34
 1694 1120 1694 1120 1769 889 c 0,35,36
 1789 827 1789 827 1789 749 c 0,37,38
 1789 658 1789 658 1763 550 c 0,39,40
 1707 308 1707 308 1478 170 c 1,41,-1
 1725 170 l 1,42,-1
 1723 160 l 1,43,-1
 1611 0 l 1,44,-1
 1143 0 l 1,45,-1
 1145 10 l 1,46,-1
 1257 170 l 1,47,48
 1399 255 1399 255 1460 334 c 0,49,50
 1536 431 1536 431 1563 550 c 0,51,52
 1591 671 1591 671 1591 749 c 0,53,54
 1591 790 1591 790 1583 818 c 0,55,56
 1550 950 1550 950 1433 950 c 0,57,58
 1320 950 1320 950 1223 818 c 0,59,60
 1163 736 1163 736 1120 550 c 2,61,-1
 1005 50 l 1,62,-1
 794 -40 l 1,63,-1
 784 -40 l 1,0,-1
EndSplineSet
Validated: 1
EndChar

StartChar: n
Encoding: 110 110 81
Width: 1143
GlyphClass: 2
Flags: W
HStem: -40 21G<141 197.889> 0 170<835 968> 950 170<666.979 897.019>
VStem: 948 197<491.688 897.3>
DStem2: 141 -40 341.222 -40 0.224951 0.97437<137.407 906.071>
LayerCount: 2
Fore
SplineSet
835 170 m 1,0,1
 1082 170 l 1,2,-1
 1080 160 l 1,3,-1
 968 0 l 1,4,-1
 500 0 l 1,5,-1
 502 10 l 1,6,-1
 614 170 l 1,7,8
 755 255 755 255 817 334 c 0,9,10
 893 432 893 432 920 550 c 0,11,12
 948 673 948 673 948 750 c 0,13,14
 948 791 948 791 940 818 c 0,15,16
 906 950 906 950 790 950 c 0,17,18
 677 950 677 950 580 818 c 0,19,20
 520 736 520 736 477 550 c 2,21,-1
 362 50 l 17,22,-1
 151 -40 l 1,23,-1
 141 -40 l 9,24,-1
 277 550 l 2,25,26
 325 759 325 759 427 889 c 0,27,28
 608 1120 608 1120 830 1120 c 0,29,30
 1058 1120 1058 1120 1125 889 c 0,31,32
 1145 820 1145 820 1145 740 c 0,33,34
 1145 651 1145 651 1121 550 c 0,35,36
 1065 308 1065 308 835 170 c 1,0,1
EndSplineSet
Validated: 1
EndChar

StartChar: o
Encoding: 111 111 82
Width: 1143
GlyphClass: 2
Flags: W
HStem: -20 170<501.275 728.614> 950 170<662.278 896.228>
VStem: 251 198<203.521 614.195> 948 197<484.907 897.3>
LayerCount: 2
Fore
SplineSet
477 550 m 0,0,1
 449 426 449 426 449 349 c 0,2,3
 449 310 449 310 456 282 c 0,4,5
 494 150 494 150 606 150 c 128,-1,6
 718 150 718 150 816 282 c 0,7,8
 878 366 878 366 920 550 c 0,9,10
 948 673 948 673 948 750 c 0,11,12
 948 791 948 791 940 818 c 0,13,14
 906 950 906 950 790 950 c 0,15,16
 673 950 673 950 577 816 c 0,17,18
 519 735 519 735 477 550 c 0,0,1
277 549 m 0,19,20
 325 759 325 759 427 889 c 0,21,22
 608 1120 608 1120 830 1120 c 128,-1,23
 1052 1120 1052 1120 1125 889 c 0,24,25
 1145 826 1145 826 1145 747 c 0,26,27
 1145 660 1145 660 1120 550 c 0,28,29
 1069 336 1069 336 970 211 c 0,30,31
 787 -20 787 -20 566 -20 c 0,32,33
 348 -20 348 -20 271 210 c 0,34,35
 251 271 251 271 251 346 c 0,36,37
 251 434 251 434 277 549 c 0,19,20
EndSplineSet
Validated: 1
EndChar

StartChar: p
Encoding: 112 112 83
Width: 1164
GlyphClass: 2
Flags: W
HStem: -450 21G<66 122.889> 0 170<856 989> 950 170<687.263 916.832>
VStem: 969 197<491.688 897.3>
DStem2: 66 -450 266.222 -450 0.224951 0.97437<137.407 1326.77>
LayerCount: 2
Fore
SplineSet
66 -450 m 1,0,-1
 297 550 l 2,1,2
 345 759 345 759 447 889 c 0,3,4
 628 1120 628 1120 851 1120 c 0,5,6
 1070 1120 1070 1120 1146 889 c 0,7,8
 1166 828 1166 828 1166 749 c 0,9,10
 1166 662 1166 662 1141 550 c 0,11,12
 1085 308 1085 308 856 170 c 1,13,-1
 1103 170 l 1,14,-1
 1101 160 l 1,15,-1
 989 0 l 1,16,-1
 521 0 l 1,17,-1
 523 10 l 1,18,-1
 635 170 l 1,19,20
 776 255 776 255 838 334 c 0,21,22
 914 432 914 432 941 550 c 0,23,24
 969 673 969 673 969 750 c 0,25,26
 969 790 969 790 961 818 c 0,27,28
 927 950 927 950 811 950 c 0,29,30
 697 950 697 950 600 817 c 0,31,32
 541 736 541 736 498 550 c 2,33,-1
 287 -360 l 1,34,-1
 76 -450 l 1,35,-1
 66 -450 l 1,0,-1
EndSplineSet
Validated: 1
EndChar

StartChar: q
Encoding: 113 113 84
Width: 1163
GlyphClass: 2
Flags: W
HStem: -450 21G<689 745.889> -20 170<501.263 567> 950 170<667.439 895.725>
VStem: 252 197<204.235 614.85> 948 198<483.203 895.995>
DStem2: 689 -450 889.222 -450 0.224951 0.97437<137.407 1227.1>
LayerCount: 2
Fore
SplineSet
910 -360 m 1,0,-1
 699 -450 l 1,1,-1
 689 -450 l 1,2,-1
 920 550 l 2,3,4
 948 675 948 675 948 752 c 0,5,6
 948 790 948 790 941 818 c 0,7,8
 903 950 903 950 791 950 c 0,9,10
 678 950 678 950 581 818 c 0,11,12
 520 735 520 735 477 550 c 0,13,14
 449 429 449 429 449 352 c 0,15,16
 449 311 449 311 457 282 c 0,17,18
 493 151 493 151 605 150 c 1,19,-1
 682 150 l 1,20,-1
 679 140 l 1,21,-1
 567 -20 l 1,22,23
 345 -20 345 -20 272 211 c 0,24,25
 252 274 252 274 252 353 c 0,26,27
 252 440 252 440 277 550 c 0,28,29
 327 761 327 761 427 889 c 0,30,31
 607 1120 607 1120 831 1120 c 0,32,33
 1049 1120 1049 1120 1126 889 c 0,34,35
 1146 829 1146 829 1146 751 c 0,36,37
 1146 663 1146 663 1120 550 c 2,38,-1
 910 -360 l 1,0,-1
EndSplineSet
Validated: 1
EndChar

StartChar: r
Encoding: 114 114 85
Width: 726
GlyphClass: 2
Flags: W
HStem: -40 21G<141 197.889> 950 170<669.266 849>
DStem2: 141 -40 341.222 -40 0.224951 0.97437<137.407 906.071>
LayerCount: 2
Fore
SplineSet
141 -40 m 9,0,-1
 277 550 l 2,1,2
 325 759 325 759 427 889 c 0,3,4
 608 1120 608 1120 830 1120 c 2,5,-1
 965 1120 l 1,6,-1
 962 1110 l 1,7,-1
 849 950 l 1,8,-1
 790 950 l 10,9,10
 677 950 677 950 580 818 c 0,11,12
 520 736 520 736 477 550 c 2,13,-1
 362 50 l 17,14,-1
 151 -40 l 1,15,-1
 141 -40 l 9,0,-1
EndSplineSet
Validated: 1
EndChar

StartChar: s
Encoding: 115 115 86
Width: 1003
GlyphClass: 2
Flags: W
HStem: -20 170<396.996 654.222> 950 170<594.889 793.408>
VStem: 345 196<727.154 894.677> 773 199<267.778 472.282>
LayerCount: 2
Fore
SplineSet
168 208 m 1,0,1
 343 282 l 1,2,-1
 353 282 l 1,3,4
 389 150 389 150 503 150 c 0,5,6
 612 150 612 150 689 222 c 0,7,8
 751 280 751 280 768 351 c 0,9,10
 773 372 773 372 773 391 c 0,11,12
 773 437 773 437 743 467 c 0,13,14
 699 511 699 511 601 527 c 0,15,16
 476 547 476 547 411 603 c 0,17,18
 345 660 345 660 345 752 c 0,19,20
 345 785 345 785 354 825 c 0,21,22
 385 962 385 962 535 1055 c 0,23,24
 640 1120 640 1120 757 1120 c 0,25,26
 954 1120 954 1120 999 930 c 1,27,-1
 824 856 l 1,28,-1
 814 856 l 1,29,30
 790 950 790 950 717 950 c 0,31,32
 657 950 657 950 613 920 c 0,33,34
 561 885 561 885 545 821 c 0,35,36
 541 805 541 805 541 792 c 0,37,38
 541 752 541 752 574 733 c 0,39,40
 620 706 620 706 719 684 c 0,41,42
 844 657 844 657 909 595 c 0,43,44
 972 535 972 535 972 433 c 0,45,46
 972 391 972 391 961 340 c 0,47,48
 933 211 933 211 789 92 c 0,49,50
 653 -20 653 -20 463 -20 c 0,51,52
 239 -20 239 -20 168 208 c 1,0,1
EndSplineSet
Validated: 1
EndChar

StartChar: t
Encoding: 116 116 87
Width: 754
GlyphClass: 2
Flags: W
HStem: -40 21G<413.5 532> 930 170<349 492 731 874> 1530 20G<778.111 835>
DStem2: 267.594 -40 467.594 -40 0.224951 0.97437<229.675 995.619 1215.03 1539.48>
LayerCount: 2
Fore
SplineSet
518 -40 m 1,0,1
 309 -40 309 -40 309 110 c 0,2,3
 309 139 309 139 317 174 c 2,4,-1
 492 930 l 1,5,-1
 235 930 l 1,6,-1
 237 940 l 1,7,-1
 349 1100 l 1,8,-1
 531 1100 l 1,9,-1
 614 1460 l 1,10,-1
 825 1550 l 1,11,-1
 835 1550 l 1,12,-1
 731 1100 l 1,13,-1
 988 1100 l 1,14,-1
 986 1090 l 1,15,-1
 874 930 l 1,16,-1
 692 930 l 1,17,-1
 517 174 l 2,18,19
 507 130 507 130 555 130 c 2,20,-1
 632 130 l 1,21,-1
 630 120 l 1,22,-1
 518 -40 l 1,0,1
EndSplineSet
Validated: 1
EndChar

StartChar: u
Encoding: 117 117 88
Width: 1173
GlyphClass: 2
Flags: W
HStem: -20 170<503.537 730.021> 930 170<429 562> 1120 20G<1199.11 1256>
VStem: 253 196<204.005 605.194>
DStem2: 788.405 -20 988.405 -20 0.224951 0.97437<329.385 1098.05>
LayerCount: 2
Fore
SplineSet
1256 1140 m 9,0,-1
 1120 550 l 2,1,2
 1072 341 1072 341 970 211 c 0,3,4
 789 -20 789 -20 567 -20 c 0,5,6
 338 -20 338 -20 272 211 c 0,7,8
 253 278 253 278 253 357 c 0,9,10
 253 447 253 447 277 550 c 0,11,12
 334 793 334 793 562 930 c 1,13,-1
 315 930 l 1,14,-1
 317 940 l 1,15,-1
 429 1100 l 1,16,-1
 897 1100 l 1,17,-1
 895 1090 l 1,18,-1
 783 930 l 1,19,20
 643 846 643 846 580 766 c 0,21,22
 505 670 505 670 477 550 c 0,23,24
 449 429 449 429 449 352 c 0,25,26
 449 311 449 311 457 282 c 0,27,28
 493 150 493 150 607 150 c 0,29,30
 720 150 720 150 817 282 c 0,31,32
 877 364 877 364 920 550 c 2,33,-1
 1035 1050 l 17,34,-1
 1246 1140 l 1,35,-1
 1256 1140 l 9,0,-1
EndSplineSet
Validated: 1
EndChar

StartChar: v
Encoding: 118 118 89
Width: 1173
GlyphClass: 2
Flags: W
HStem: -20 170<533.629 759.256> 1120 20G<586.111 643 930.369 1033.5>
VStem: 282 197<204.005 622.031> 976 197<480.179 915.995>
DStem2: 175.405 -20 375.405 -20 0.224951 0.97437<430.194 1098.05>
LayerCount: 2
Fore
SplineSet
422 1050 m 17,0,-1
 633 1140 l 1,1,-1
 643 1140 l 9,2,-1
 507 550 l 2,3,4
 479 426 479 426 479 349 c 0,5,6
 479 310 479 310 486 282 c 0,7,8
 524 150 524 150 636 150 c 24,9,10
 749 150 749 150 846 282 c 0,11,12
 907 364 907 364 950 550 c 0,13,14
 976 661 976 661 976 745 c 0,15,16
 976 785 976 785 970 818 c 0,17,18
 946 948 946 948 836 991 c 1,19,-1
 945 1140 l 1,20,-1
 955 1140 l 1,21,22
 1112 1072 1112 1072 1156 889 c 0,23,24
 1173 819 1173 819 1173 741 c 0,25,26
 1173 652 1173 652 1150 550 c 0,27,28
 1104 345 1104 345 999 211 c 0,29,30
 819 -20 819 -20 596 -20 c 0,31,32
 372 -20 372 -20 301 211 c 0,33,34
 282 273 282 273 282 351 c 0,35,36
 282 439 282 439 307 550 c 2,37,-1
 422 1050 l 17,0,-1
EndSplineSet
Validated: 1
EndChar

StartChar: w
Encoding: 119 119 90
Width: 1786
GlyphClass: 2
Flags: W
HStem: -20 170<500.648 730.582 1142.97 1373.03> 930 170<429 562> 1120 20G<1199.11 1256 1543.37 1646.5>
VStem: 251 198<202.7 608.5> 1589 197<477.327 915.995>
DStem2: 788.405 -20 988.405 -20 0.224951 0.97437<430.224 1098.05>
LayerCount: 2
Fore
SplineSet
1256 1140 m 1,0,-1
 1120 550 l 2,1,2
 1092 427 1092 427 1092 349 c 0,3,4
 1092 310 1092 310 1099 282 c 0,5,6
 1132 150 1132 150 1249 150 c 0,7,8
 1362 150 1362 150 1459 282 c 0,9,10
 1520 364 1520 364 1563 550 c 0,11,12
 1589 661 1589 661 1589 745 c 0,13,14
 1589 785 1589 785 1583 818 c 0,15,16
 1559 948 1559 948 1449 991 c 1,17,-1
 1558 1140 l 1,18,-1
 1568 1140 l 1,19,20
 1725 1072 1725 1072 1769 889 c 0,21,22
 1786 819 1786 819 1786 741 c 0,23,24
 1786 652 1786 652 1763 550 c 0,25,26
 1717 346 1717 346 1613 211 c 0,27,28
 1435 -20 1435 -20 1209 -20 c 0,29,30
 1010 -20 1010 -20 931 164 c 1,31,32
 766 -20 766 -20 567 -20 c 0,33,34
 346 -20 346 -20 271 211 c 0,35,36
 251 273 251 273 251 351 c 0,37,38
 251 442 251 442 277 550 c 0,39,40
 333 792 333 792 562 930 c 1,41,-1
 315 930 l 1,42,-1
 317 940 l 1,43,-1
 429 1100 l 1,44,-1
 897 1100 l 1,45,-1
 895 1090 l 1,46,-1
 783 930 l 1,47,48
 641 845 641 845 580 766 c 0,49,50
 504 669 504 669 477 550 c 0,51,52
 449 429 449 429 449 351 c 0,53,54
 449 310 449 310 457 282 c 0,55,56
 490 150 490 150 607 150 c 0,57,58
 720 150 720 150 817 282 c 0,59,60
 877 364 877 364 920 550 c 2,61,-1
 1035 1050 l 1,62,-1
 1246 1140 l 1,63,-1
 1256 1140 l 1,0,-1
EndSplineSet
Validated: 1
EndChar

StartChar: x
Encoding: 120 120 91
Width: 1055
GlyphClass: 2
Flags: W
HStem: -40 21G<227.195 291.84 746 802.889> 1120 20G<511.111 568 1016.19 1080.59>
VStem: 322 199<719.045 1051.51> 790 203<49.2167 388.45>
DStem2: 110 42 275 -40 0.64347 0.765471<43.4039 625.336 847.486 1434.41>
LayerCount: 2
Fore
SplineSet
275 -40 m 1,0,-1
 265 -40 l 1,1,-1
 110 42 l 1,2,-1
 512 521 l 1,3,4
 392 598 392 598 344 719 c 0,5,6
 322 775 322 775 322 854 c 0,7,8
 322 937 322 937 347 1050 c 1,9,-1
 558 1140 l 1,10,-1
 568 1140 l 1,11,12
 521 937 521 937 521 846 c 0,13,14
 521 814 521 814 529 790 c 0,15,16
 562 702 562 702 627 657 c 1,17,-1
 1033 1140 l 1,18,-1
 1043 1140 l 1,19,-1
 1199 1057 l 1,20,-1
 793 575 l 1,21,22
 925 495 925 495 971 381 c 0,23,24
 993 326 993 326 993 248 c 0,25,26
 993 160 993 160 967 50 c 1,27,-1
 756 -40 l 1,28,-1
 746 -40 l 1,29,30
 790 152 790 152 790 253 c 0,31,32
 790 287 790 287 785 310 c 0,33,34
 767 394 767 394 680 441 c 1,35,-1
 275 -40 l 1,0,-1
EndSplineSet
Validated: 1
EndChar

StartChar: y
Encoding: 121 121 92
Width: 1193
GlyphClass: 2
Flags: W
HStem: -430 170<347 642.562> -20 170<503.641 724.87> 930 170<429 562> 1120 20G<1199.11 1256>
VStem: 252 197<204.005 605.097>
DStem2: 693.315 -430 893.537 -430 0.224951 0.97437<712.294 1518.93>
LayerCount: 2
Fore
SplineSet
1256 1140 m 1,0,-1
 1025 140 l 2,1,2
 978 -65 978 -65 876 -199 c 0,3,4
 700 -430 700 -430 473 -430 c 2,5,-1
 232 -430 l 1,6,-1
 234 -420 l 1,7,-1
 347 -260 l 1,8,-1
 512 -260 l 2,9,10
 637 -260 637 -260 722 -128 c 0,11,12
 780 -38 780 -38 807 80 c 1,13,14
 686 -20 686 -20 566 -20 c 0,15,16
 342 -20 342 -20 271 211 c 0,17,18
 252 273 252 273 252 351 c 0,19,20
 252 439 252 439 277 550 c 0,21,22
 331 792 331 792 562 930 c 1,23,-1
 315 930 l 1,24,-1
 317 940 l 1,25,-1
 429 1100 l 1,26,-1
 897 1100 l 1,27,-1
 895 1090 l 1,28,-1
 783 930 l 1,29,30
 643 846 643 846 580 766 c 0,31,32
 505 670 505 670 477 550 c 0,33,34
 449 429 449 429 449 352 c 0,35,36
 449 311 449 311 457 282 c 0,37,38
 493 150 493 150 607 150 c 0,39,40
 720 150 720 150 817 282 c 0,41,42
 877 364 877 364 920 550 c 2,43,-1
 1035 1050 l 1,44,-1
 1246 1140 l 1,45,-1
 1256 1140 l 1,0,-1
EndSplineSet
Validated: 1
EndChar

StartChar: z
Encoding: 122 122 93
Width: 1053
GlyphClass: 2
Flags: W
HStem: 0 170<332 805.161> 930 170<496 902>
DStem2: 314 380 332 170 0.728418 0.685133<-129.86 803.033>
LayerCount: 2
Fore
SplineSet
293 0 m 2,0,1
 127 0 127 0 127 99 c 0,2,3
 127 115 127 115 131 134 c 0,4,5
 151 231 151 231 314 380 c 1,6,-1
 902 930 l 1,7,-1
 382 930 l 1,8,-1
 384 940 l 1,9,-1
 496 1100 l 1,10,-1
 941 1100 l 2,11,12
 1107 1100 1107 1100 1107 1001 c 0,13,14
 1107 985 1107 985 1103 966 c 0,15,16
 1084 877 1084 877 921 724 c 1,17,-1
 332 170 l 9,18,-1
 684 170 l 2,19,20
 802 170 802 170 859 287 c 1,21,-1
 869 287 l 1,22,-1
 1003 216 l 1,23,24
 893 0 893 0 645 0 c 2,25,-1
 293 0 l 2,0,1
EndSplineSet
Validated: 1
EndChar

StartChar: braceleft
Encoding: 123 123 94
Width: 901
GlyphClass: 2
Flags: W
HStem: -240 170<603.141 720> 664 182<326 423> 1580 170<965.191 1140>
VStem: 314 203<12.6606 381.844>
DStem2: 214.566 -240 414.566 -240 0.224951 0.97437<454.373 927.718 1114.5 1768.19>
CounterMasks: 1 e0
LayerCount: 2
Fore
SplineSet
720 -240 m 1,0,1
 492 -240 492 -240 383 -95 c 0,2,3
 314 -3 314 -3 314 126 c 0,4,5
 314 190 314 190 330 260 c 2,6,-1
 423 664 l 1,7,-1
 203 664 l 1,8,-1
 206 674 l 1,9,-1
 326 846 l 1,10,-1
 465 846 l 1,11,-1
 559 1250 l 2,12,13
 609 1467 609 1467 776 1605 c 0,14,15
 951 1750 951 1750 1179 1750 c 1,16,-1
 1255 1750 l 1,17,-1
 1253 1740 l 1,18,-1
 1140 1580 l 1,19,20
 995 1580 995 1580 886 1480 c 0,21,22
 792 1394 792 1394 759 1250 c 2,23,-1
 530 260 l 2,24,25
 517 203 517 203 517 155 c 0,26,27
 517 81 517 81 549 30 c 0,28,29
 614 -70 614 -70 759 -70 c 1,30,-1
 835 -70 l 1,31,-1
 833 -80 l 1,32,-1
 720 -240 l 1,0,1
EndSplineSet
Validated: 1
EndChar

StartChar: bar
Encoding: 124 124 95
Width: 666
GlyphClass: 2
Flags: W
VStem: 195 625
DStem2: 195 -240 360.916 -240 0.224951 0.97437<113.269 1966.32>
LayerCount: 2
Fore
SplineSet
195 -240 m 1,0,-1
 637 1676 l 1,1,-1
 810 1750 l 1,2,-1
 820 1750 l 1,3,-1
 378 -166 l 1,4,-1
 205 -240 l 1,5,-1
 195 -240 l 1,0,-1
EndSplineSet
Validated: 1
EndChar

StartChar: braceright
Encoding: 125 125 96
Width: 901
GlyphClass: 2
Flags: W
HStem: -240 170<110 284.809> 664 182<826 923> 1580 170<530 646.859>
VStem: 733 203<1128.16 1496.95>
DStem2: 375.566 -240 575.566 -240 0.224951 0.97437<317.592 972.708 1159.49 1634.04>
CounterMasks: 1 e0
LayerCount: 2
Fore
SplineSet
-5 -240 m 1,0,-1
 -3 -230 l 1,1,-1
 110 -70 l 1,2,3
 255 -70 255 -70 364 30 c 0,4,5
 458 116 458 116 491 260 c 2,6,-1
 720 1250 l 2,7,8
 733 1308 733 1308 733 1356 c 0,9,10
 733 1430 733 1430 701 1480 c 0,11,12
 636 1580 636 1580 491 1580 c 1,13,-1
 415 1580 l 1,14,-1
 417 1590 l 1,15,-1
 530 1750 l 1,16,17
 759 1750 759 1750 867 1605 c 0,18,19
 936 1512 936 1512 936 1383 c 0,20,21
 936 1319 936 1319 920 1250 c 2,22,-1
 826 846 l 1,23,-1
 1046 846 l 1,24,-1
 1044 836 l 1,25,-1
 923 664 l 1,26,-1
 784 664 l 1,27,-1
 691 260 l 2,28,29
 641 43 641 43 474 -95 c 0,30,31
 299 -240 299 -240 71 -240 c 1,32,-1
 -5 -240 l 1,0,-1
EndSplineSet
Validated: 1
EndChar

StartChar: asciitilde
Encoding: 126 126 97
Width: 1138
GlyphClass: 2
Flags: W
HStem: 583 177<834.028 984.573> 767 177<505.927 656.937>
LayerCount: 2
Fore
SplineSet
285 583 m 1,0,1
 368 944 368 944 605 944 c 0,2,3
 739 944 739 944 805 843 c 0,4,5
 859 760 859 760 913 760 c 0,6,7
 985 760 985 760 1009 863 c 1,8,-1
 1196 944 l 1,9,-1
 1206 944 l 1,10,11
 1123 583 1123 583 886 583 c 0,12,13
 752 583 752 583 686 684 c 0,14,15
 632 767 632 767 577 767 c 0,16,17
 505 767 505 767 481 664 c 1,18,-1
 295 583 l 1,19,-1
 285 583 l 1,0,1
EndSplineSet
Validated: 1
EndChar

StartChar: exclamdown
Encoding: 161 161 99
Width: 600
GlyphClass: 2
Flags: W
HStem: -40 21G<191 247.889> 1285 245<550.172 700.035>
VStem: 501 249<1335.03 1480.92>
DStem2: 191 -40 391.222 -40 0.224951 0.97437<137.407 1067.33>
LayerCount: 2
Fore
SplineSet
746 1408 m 0,0,1
 734 1357 734 1357 691 1321 c 128,-1,2
 648 1285 648 1285 597 1285 c 128,-1,3
 546 1285 546 1285 520 1321 c 0,4,5
 501 1347 501 1347 501 1378 c 0,6,7
 501 1393 501 1393 505 1408 c 0,8,9
 519 1461 519 1461 560 1494 c 0,10,11
 605 1530 605 1530 655 1530 c 128,-1,12
 705 1530 705 1530 732 1493 c 0,13,14
 750 1470 750 1470 750 1439 c 0,15,16
 750 1426 750 1426 746 1408 c 0,0,1
201 -40 m 1,17,-1
 191 -40 l 1,18,-1
 431 1000 l 1,19,-1
 642 1090 l 1,20,-1
 652 1090 l 1,21,-1
 412 50 l 1,22,-1
 201 -40 l 1,17,-1
EndSplineSet
Validated: 1
EndChar

StartChar: cent
Encoding: 162 162 100
Width: 1098
GlyphClass: 2
Flags: W
VStem: 251 198<203.614 614.455>
DStem2: 452 -240 567.457 -240 0.224951 0.97437<77.2873 230.931 434.364 1208.99 1418.72 1570.19>
LayerCount: 2
Fore
SplineSet
452 -240 m 1,0,-1
 504 -15 l 1,1,2
 336 15 336 15 271 211 c 0,3,4
 251 271 251 271 251 349 c 0,5,6
 251 437 251 437 277 550 c 0,7,8
 325 758 325 758 427 889 c 0,9,10
 580 1086 580 1086 764 1115 c 1,11,-1
 805 1290 l 1,12,-1
 922 1340 l 1,13,-1
 932 1340 l 1,14,-1
 881 1117 l 1,15,16
 1062 1093 1062 1093 1125 892 c 1,17,-1
 950 818 l 1,18,-1
 940 818 l 1,19,20
 913 918 913 918 840 942 c 1,21,-1
 659 158 l 1,22,23
 743 182 743 182 816 282 c 1,24,-1
 1055 377 l 1,25,-1
 1065 377 l 1,26,27
 1025 281 1025 281 970 211 c 0,28,29
 812 8 812 8 619 -17 c 1,30,-1
 579 -190 l 1,31,-1
 462 -240 l 1,32,-1
 452 -240 l 1,0,-1
544 162 m 1,33,-1
 724 938 l 1,34,35
 647 910 647 910 580 818 c 0,36,37
 519 735 519 735 477 550 c 0,38,39
 449 427 449 427 449 349 c 0,40,41
 449 311 449 311 456 282 c 0,42,43
 481 190 481 190 544 162 c 1,33,-1
EndSplineSet
Validated: 1
EndChar

StartChar: sterling
Encoding: 163 163 101
Width: 1279
GlyphClass: 2
Flags: W
HStem: 0 170<264 339 539 1054> 598 170<402 438 677 972> 1360 170<882.917 1134.52>
DStem2: 299.752 0 499.752 0 0.224951 0.97437<219.462 613.772 833.178 1324.39>
LayerCount: 2
Fore
SplineSet
150 0 m 1,0,-1
 152 10 l 1,1,-1
 264 170 l 1,2,-1
 339 170 l 1,3,-1
 438 598 l 1,4,-1
 288 598 l 1,5,-1
 290 608 l 1,6,-1
 402 768 l 1,7,-1
 477 768 l 1,8,-1
 536 1024 l 2,9,10
 596 1284 596 1284 763 1416 c 0,11,12
 907 1530 907 1530 1068 1530 c 0,13,14
 1292 1530 1292 1530 1364 1302 c 1,15,-1
 1189 1228 l 1,16,-1
 1179 1228 l 1,17,18
 1143 1360 1143 1360 1029 1360 c 24,19,20
 918 1360 918 1360 852 1287 c 0,21,22
 778 1205 778 1205 736 1024 c 2,23,-1
 677 768 l 1,24,-1
 1086 768 l 1,25,-1
 1084 758 l 1,26,-1
 972 598 l 1,27,-1
 638 598 l 1,28,-1
 539 170 l 1,29,-1
 1168 170 l 1,30,-1
 1166 160 l 1,31,-1
 1054 0 l 1,32,-1
 150 0 l 1,0,-1
EndSplineSet
Validated: 1
EndChar

StartChar: currency
Encoding: 164 164 102
Width: 1395
GlyphClass: 2
Flags: W
HStem: 246 180<640.883 967.065> 1068 180<771.651 1099.92>
VStem: 349 204<512.032 841.205> 1186 204<652.717 983.177>
DStem2: 228 336 397 265 0.776178 0.630514<86.4075 200.49 1311.55 1440.9>
LayerCount: 2
Fore
SplineSet
228 336 m 1,0,-1
 379 459 l 1,1,2
 349 529 349 529 349 615 c 0,3,4
 349 677 349 677 365 748 c 0,5,6
 403 918 403 918 520 1044 c 1,7,-1
 421 1174 l 1,8,-1
 430 1181 l 1,9,-1
 622 1245 l 1,10,-1
 680 1172 l 1,11,12
 815 1248 815 1248 985 1248 c 128,-1,13
 1155 1248 1155 1248 1256 1172 c 1,14,-1
 1346 1245 l 1,15,-1
 1511 1181 l 1,16,-1
 1516 1174 l 1,17,-1
 1356 1044 l 1,18,19
 1390 968 1390 968 1390 881 c 0,20,21
 1390 818 1390 818 1374 746 c 0,22,23
 1335 576 1335 576 1219 450 c 1,24,-1
 1319 320 l 1,25,-1
 1310 313 l 1,26,-1
 1116 249 l 1,27,-1
 1059 322 l 1,28,29
 924 246 924 246 754 246 c 0,30,31
 578 246 578 246 476 329 c 1,32,-1
 397 265 l 1,33,-1
 233 329 l 1,34,-1
 228 336 l 1,0,-1
795 426 m 0,35,36
 932 426 932 426 1052 529 c 0,37,38
 1144 608 1144 608 1175 748 c 0,39,40
 1186 798 1186 798 1186 835 c 0,41,42
 1186 909 1186 909 1153 965 c 0,43,44
 1094 1068 1094 1068 943 1068 c 0,45,46
 806 1068 806 1068 687 965 c 0,47,48
 593 884 593 884 564 748 c 0,49,50
 553 697 553 697 553 654 c 0,51,52
 553 582 553 582 586 528 c 0,53,54
 651 426 651 426 795 426 c 0,35,36
EndSplineSet
Validated: 1
EndChar

StartChar: yen
Encoding: 165 165 103
Width: 1278
GlyphClass: 2
Flags: W
HStem: -40 21G<507 563.889> 430 182<403 615 894 1113> 760 182<479 553 808 871 1128 1189> 1530 20G<586.253 647.178 1407.09 1468.2>
DStem2: 643 1550 439 1467 0.204863 -0.978791<39.4475 576.667 807.047 878.635> 507 -40 707.222 -40 0.224951 0.97437<137.407 482.249> 823 690 894 612 0.578629 0.815591<0 84.8656 382.011 1047.43>
LayerCount: 2
Fore
SplineSet
507 -40 m 1,0,-1
 615 430 l 1,1,-1
 280 430 l 1,2,-1
 283 440 l 1,3,-1
 403 612 l 1,4,-1
 625 612 l 1,5,-1
 592 760 l 1,6,-1
 356 760 l 1,7,-1
 359 770 l 1,8,-1
 479 942 l 1,9,-1
 553 942 l 1,10,-1
 439 1467 l 1,11,-1
 633 1550 l 1,12,-1
 643 1550 l 1,13,-1
 770 942 l 1,14,-1
 998 942 l 1,15,-1
 1421 1550 l 1,16,-1
 1431 1550 l 1,17,-1
 1524 1500 l 1,18,-1
 1128 942 l 1,19,-1
 1312 942 l 1,20,-1
 1310 932 l 1,21,-1
 1189 760 l 1,22,-1
 999 760 l 1,23,-1
 894 612 l 1,24,-1
 1236 612 l 1,25,-1
 1234 602 l 1,26,-1
 1113 430 l 1,27,-1
 815 430 l 1,28,-1
 728 50 l 1,29,-1
 517 -40 l 1,30,-1
 507 -40 l 1,0,-1
871 760 m 1,31,-1
 808 760 l 1,32,-1
 823 690 l 1,33,-1
 871 760 l 1,31,-1
EndSplineSet
Validated: 1
EndChar

StartChar: brokenbar
Encoding: 166 166 104
Width: 666
GlyphClass: 2
Flags: W
VStem: 195 625
DStem2: 195 -240 360.916 -240 0.224951 0.97437<113.269 848.77 1230.82 1966.32>
LayerCount: 2
Fore
SplineSet
195 -240 m 1,0,-1
 386 587 l 1,1,-1
 559 661 l 1,2,-1
 569 661 l 1,3,-1
 378 -166 l 1,4,-1
 205 -240 l 1,5,-1
 195 -240 l 1,0,-1
810 1750 m 1,6,-1
 820 1750 l 1,7,-1
 629 923 l 1,8,-1
 456 849 l 1,9,-1
 446 849 l 1,10,-1
 637 1676 l 1,11,-1
 810 1750 l 1,6,-1
EndSplineSet
Validated: 1
EndChar

StartChar: section
Encoding: 167 167 105
Width: 1130
GlyphClass: 2
Flags: W
HStem: -20 170<493.592 692.111> 1360 170<785.812 984.672>
VStem: 313 201<667 832.176> 537 196<1140.12 1307.02> 746 195<204.135 373.135> 964 201<675.89 882.529>
LayerCount: 2
Fore
SplineSet
288 170 m 1,0,-1
 463 244 l 1,1,-1
 473 244 l 1,2,3
 497 150 497 150 570 150 c 0,4,5
 630 150 630 150 674 180 c 0,6,7
 726 215 726 215 742 279 c 0,8,9
 746 295 746 295 746 308 c 0,10,11
 746 348 746 348 713 367 c 0,12,13
 667 394 667 394 568 416 c 0,14,15
 444 443 444 443 378 505 c 0,16,17
 313 566 313 566 313 667 c 0,18,19
 313 711 313 711 325 760 c 0,20,21
 354 890 354 890 498 1008 c 9,22,-1
 598 878 l 17,23,24
 536 820 536 820 519 749 c 0,25,26
 514 728 514 728 514 709 c 0,27,28
 514 663 514 663 544 633 c 0,29,30
 588 589 588 589 686 573 c 0,31,32
 811 553 811 553 876 497 c 128,-1,33
 941 441 941 441 941 348 c 0,34,35
 941 314 941 314 932 275 c 0,36,37
 900 137 900 137 752 45 c 0,38,39
 647 -20 647 -20 530 -20 c 0,40,41
 333 -20 333 -20 288 170 c 1,0,-1
1190 1340 m 1,42,-1
 1015 1266 l 1,43,-1
 1005 1266 l 1,44,45
 982 1360 982 1360 909 1360 c 0,46,47
 851 1360 851 1360 805 1330 c 0,48,49
 748 1293 748 1293 736 1231 c 0,50,51
 733 1216 733 1216 733 1204 c 0,52,53
 733 1164 733 1164 766 1143 c 0,54,55
 812 1115 812 1115 911 1094 c 0,56,57
 1035 1067 1035 1067 1101 1005 c 0,58,59
 1165 945 1165 945 1165 844 c 0,60,61
 1165 800 1165 800 1153 750 c 0,62,63
 1121 618 1121 618 981 502 c 9,64,-1
 881 632 l 17,65,66
 946 693 946 693 960 761 c 0,67,68
 964 781 964 781 964 799 c 0,69,70
 964 844 964 844 934 877 c 0,71,72
 893 921 893 921 792 937 c 0,73,74
 669 957 669 957 603 1013 c 128,-1,75
 537 1069 537 1069 537 1162 c 0,76,77
 537 1196 537 1196 546 1235 c 0,78,79
 578 1374 578 1374 726 1465 c 0,80,81
 832 1530 832 1530 948 1530 c 0,82,83
 1145 1530 1145 1530 1190 1340 c 1,42,-1
EndSplineSet
Validated: 1
EndChar

StartChar: dieresis
Encoding: 168 168 106
Width: 840
GlyphClass: 2
Flags: W
HStem: 1285 245<518.965 667.947 819.965 968.947>
VStem: 469 249<1334.31 1479.97> 770 249<1334.31 1479.97>
LayerCount: 2
Fore
SplineSet
774 1407 m 0,0,1
 786 1458 786 1458 829 1494 c 128,-1,2
 872 1530 872 1530 923 1530 c 128,-1,3
 974 1530 974 1530 1000 1494 c 0,4,5
 1019 1468 1019 1468 1019 1437 c 0,6,7
 1019 1425 1019 1425 1015 1407 c 0,8,9
 1000 1354 1000 1354 960 1321 c 0,10,11
 916 1285 916 1285 865 1285 c 0,12,13
 815 1285 815 1285 788 1322 c 0,14,15
 770 1346 770 1346 770 1375 c 0,16,17
 770 1389 770 1389 774 1407 c 0,0,1
473 1407 m 0,18,19
 485 1458 485 1458 528 1494 c 128,-1,20
 571 1530 571 1530 622 1530 c 128,-1,21
 673 1530 673 1530 699 1494 c 0,22,23
 718 1468 718 1468 718 1437 c 0,24,25
 718 1425 718 1425 714 1407 c 0,26,27
 699 1354 699 1354 659 1321 c 0,28,29
 615 1285 615 1285 564 1285 c 0,30,31
 514 1285 514 1285 487 1322 c 0,32,33
 469 1346 469 1346 469 1375 c 0,34,35
 469 1389 469 1389 473 1407 c 0,18,19
EndSplineSet
Validated: 1
EndChar

StartChar: copyright
Encoding: 169 169 107
Width: 1401
GlyphClass: 2
Flags: W
HStem: 180 79<583.365 951.469> 342 136<734.802 916.815> 1032 134<842.249 1026.09> 1251 80<795.004 1170.55>
VStem: 307 78<468.976 827.145> 554 152<503.891 844.336> 1365 77<681.91 1046.45>
LayerCount: 2
Fore
SplineSet
1145 632 m 1,0,1
 1118 562 1118 562 1077 506 c 0,2,3
 958 342 958 342 784 342 c 0,4,5
 621 342 621 342 568 510 c 0,6,7
 554 554 554 554 554 609 c 0,8,9
 554 675 554 675 573 755 c 0,10,11
 609 909 609 909 681 1000 c 0,12,13
 811 1166 811 1166 974 1166 c 0,14,15
 1149 1166 1149 1166 1198 977 c 1,16,-1
 1076 924 l 1,17,-1
 1050 924 l 1,18,19
 1028 1032 1028 1032 947 1032 c 0,20,21
 868 1032 868 1032 797 938 c 0,22,23
 750 876 750 876 723 755 c 0,24,25
 706 679 706 679 706 627 c 0,26,27
 706 596 706 596 712 572 c 0,28,29
 739 478 739 478 817 478 c 0,30,31
 891 478 891 478 962 572 c 1,32,-1
 1104 632 l 1,33,-1
 1145 632 l 1,0,1
1008 1331 m 0,34,35
 1117 1331 1117 1331 1208 1288 c 0,36,37
 1293 1248 1293 1248 1358 1161 c 0,38,39
 1420 1078 1420 1078 1436 975 c 0,40,41
 1442 937 1442 937 1442 896 c 0,42,43
 1442 832 1442 832 1425 754 c 0,44,45
 1398 636 1398 636 1335 535 c 0,46,47
 1272 435 1272 435 1171 350 c 0,48,49
 1072 267 1072 267 962 223 c 0,50,51
 855 180 855 180 743 180 c 128,-1,52
 631 180 631 180 541 223 c 0,53,54
 454 265 454 265 392 350 c 0,55,56
 329 436 329 436 313 535 c 0,57,58
 307 572 307 572 307 612 c 0,59,60
 307 680 307 680 324 754 c 0,61,62
 352 874 352 874 415 975 c 0,63,64
 480 1078 480 1078 579 1161 c 0,65,66
 682 1247 682 1247 788 1289 c 0,67,68
 896 1331 896 1331 1008 1331 c 0,34,35
990 1251 m 0,69,70
 893 1251 893 1251 801 1215 c 128,-1,71
 709 1179 709 1179 621 1105 c 0,72,73
 534 1032 534 1032 478 944 c 128,-1,74
 422 856 422 856 399 759 c 2,75,-1
 398 754 l 2,76,77
 385 696 385 696 385 641 c 0,78,79
 385 603 385 603 391 566 c 0,80,81
 404 487 404 487 460 406 c 0,82,83
 512 331 512 331 587 296 c 0,84,85
 665 259 665 259 761 259 c 0,86,87
 856 259 856 259 951 296 c 0,88,89
 1042 332 1042 332 1131 406 c 0,90,91
 1215 477 1215 477 1271 565 c 0,92,93
 1325 649 1325 649 1350 754 c 0,94,95
 1365 816 1365 816 1365 874 c 0,96,97
 1365 911 1365 911 1359 945 c 0,98,99
 1343 1034 1343 1034 1292 1105 c 0,100,101
 1237 1181 1237 1181 1164 1215 c 0,102,103
 1086 1251 1086 1251 990 1251 c 0,69,70
EndSplineSet
Validated: 1
EndChar

StartChar: ordfeminine
Encoding: 170 170 108
Width: 955
GlyphClass: 2
Flags: W
HStem: 664 182<426 877> 920 125<658.904 801> 1215 125<671.215 814.68> 1405 125<733 849.719>
LayerCount: 2
Fore
SplineSet
772 910 m 1,0,-1
 781 950 l 1,1,2
 735 920 735 920 686 920 c 0,3,4
 583 920 583 920 541 982 c 0,5,6
 511 1026 511 1026 511 1079 c 0,7,8
 511 1103 511 1103 517 1130 c 0,9,10
 536 1217 536 1217 615 1280 c 0,11,12
 690 1340 690 1340 783 1340 c 0,13,14
 825 1340 825 1340 856 1317 c 1,15,16
 857 1343 857 1343 855 1350 c 0,17,18
 839 1405 839 1405 795 1405 c 2,19,-1
 658 1405 l 1,20,-1
 665 1435 l 1,21,-1
 733 1530 l 1,22,-1
 824 1530 l 2,23,24
 946 1530 946 1530 987 1404 c 0,25,26
 998 1370 998 1370 998 1327 c 0,27,28
 998 1281 998 1281 985 1225 c 2,29,-1
 924 962 l 1,30,-1
 801 910 l 1,31,-1
 772 910 l 1,0,-1
655 1132 m 0,32,33
 647 1093 647 1093 662 1070 c 0,34,35
 678 1045 678 1045 716 1045 c 0,36,37
 751 1045 751 1045 784 1071 c 0,38,39
 813 1094 813 1094 821 1129 c 0,40,41
 829 1165 829 1165 810 1190 c 128,-1,42
 791 1215 791 1215 756 1215 c 0,43,44
 718 1215 718 1215 690 1191 c 0,45,46
 663 1168 663 1168 655 1132 c 0,32,33
303 664 m 1,47,-1
 306 674 l 1,48,-1
 426 846 l 1,49,-1
 1000 846 l 1,50,-1
 998 836 l 1,51,-1
 877 664 l 1,52,-1
 303 664 l 1,47,-1
EndSplineSet
Validated: 1
EndChar

StartChar: guillemotleft
Encoding: 171 171 109
Width: 1208
GlyphClass: 2
Flags: W
DStem2: 565 795 333 792 0.339265 -0.940691<0 434.615> 333 792 565 795 0.632723 0.774378<149.115 635.349> 950 795 718 792 0.339265 -0.940691<0 434.615> 718 792 950 795 0.632723 0.774378<149.115 635.349>
LayerCount: 2
Fore
SplineSet
894 304 m 1,0,-1
 718 792 l 1,1,-1
 1120 1284 l 1,2,-1
 1130 1284 l 1,3,-1
 1286 1202 l 1,4,-1
 950 795 l 1,5,-1
 1097 386 l 1,6,-1
 904 304 l 1,7,-1
 894 304 l 1,0,-1
509 304 m 1,8,-1
 333 792 l 1,9,-1
 735 1284 l 1,10,-1
 745 1284 l 1,11,-1
 901 1202 l 1,12,-1
 565 795 l 1,13,-1
 712 386 l 1,14,-1
 519 304 l 1,15,-1
 509 304 l 1,8,-1
EndSplineSet
Validated: 1
EndChar

StartChar: logicalnot
Encoding: 172 172 110
Width: 1214
GlyphClass: 2
Flags: W
HStem: 664 182<426 937>
VStem: 735 215<402 617>
LayerCount: 2
Fore
SplineSet
303 664 m 1,0,-1
 306 674 l 1,1,-1
 426 846 l 1,2,-1
 1259 846 l 1,3,-1
 1257 836 l 1,4,-1
 950 402 l 1,5,-1
 735 402 l 1,6,-1
 937 664 l 1,7,-1
 303 664 l 1,0,-1
EndSplineSet
Validated: 1
EndChar

StartChar: uni00AD
Encoding: 173 173 111
Width: 1214
GlyphClass: 2
Flags: W
HStem: 664 182<426 1136>
LayerCount: 2
Fore
SplineSet
303 664 m 1,0,-1
 306 674 l 1,1,-1
 426 846 l 1,2,-1
 1259 846 l 1,3,-1
 1257 836 l 1,4,-1
 1136 664 l 1,5,-1
 303 664 l 1,0,-1
EndSplineSet
Validated: 1
EndChar

StartChar: registered
Encoding: 174 174 112
Width: 1401
GlyphClass: 2
Flags: W
HStem: 180 79<583.167 952.479> 596 135<733 836> 1026 135<858.952 1038.37> 1251 80<795.607 1170.64>
VStem: 307 77<472.447 827.145> 1058 153<795.182 986.091> 1365 77<681.91 1043.45>
DStem2: 455.213 180 605.826 180 0.224951 0.97437<239.141 460.853 599.366 836.729> 1002 632 836 596 0.422885 -0.906183<-3.43985 260.377>
LayerCount: 2
Fore
SplineSet
1008 1331 m 0,0,1
 1117 1331 1117 1331 1208 1288 c 0,2,3
 1293 1248 1293 1248 1358 1161 c 0,4,5
 1420 1078 1420 1078 1436 975 c 0,6,7
 1442 937 1442 937 1442 896 c 0,8,9
 1442 832 1442 832 1425 754 c 0,10,11
 1398 636 1398 636 1335 535 c 0,12,13
 1272 435 1272 435 1171 350 c 0,14,15
 1072 267 1072 267 962 223 c 0,16,17
 855 180 855 180 743 180 c 128,-1,18
 631 180 631 180 541 223 c 0,19,20
 454 265 454 265 392 350 c 0,21,22
 329 437 329 437 313 535 c 0,23,24
 307 573 307 573 307 613 c 0,25,26
 307 681 307 681 324 754 c 0,27,28
 352 874 352 874 415 975 c 128,-1,29
 478 1076 478 1076 579 1161 c 0,30,31
 678 1243 678 1243 786 1288 c 0,32,33
 892 1331 892 1331 1008 1331 c 0,0,1
990 1251 m 0,34,35
 893 1251 893 1251 801 1215 c 128,-1,36
 709 1179 709 1179 621 1105 c 0,37,38
 534 1032 534 1032 478 944 c 128,-1,39
 422 856 422 856 399 759 c 2,40,-1
 398 754 l 2,41,42
 384 696 384 696 384 641 c 0,43,44
 384 601 384 601 391 566 c 0,45,46
 404 489 404 489 460 406 c 0,47,48
 477 381 477 381 497 361 c 1,49,-1
 587 748 l 2,50,51
 622 901 622 901 694 994 c 0,52,53
 823 1161 823 1161 988 1161 c 0,54,55
 1123 1161 1123 1161 1180 1059 c 0,56,57
 1211 1004 1211 1004 1211 940 c 0,58,59
 1211 917 1211 917 1203 874 c 0,60,61
 1183 777 1183 777 1096 697 c 0,62,63
 1053 657 1053 657 1002 632 c 1,64,-1
 1114 392 l 1,65,-1
 1131 406 l 1,66,67
 1214 476 1214 476 1271 565 c 0,68,69
 1326 651 1326 651 1350 754 c 0,70,71
 1365 818 1365 818 1365 876 c 0,72,73
 1365 912 1365 912 1359 945 c 0,74,75
 1343 1032 1343 1032 1292 1105 c 0,76,77
 1239 1180 1239 1180 1164 1215 c 0,78,79
 1086 1251 1086 1251 990 1251 c 0,34,35
737 748 m 2,80,-1
 733 731 l 1,81,-1
 864 731 l 2,82,83
 947 731 947 731 989 769 c 0,84,85
 1041 816 1041 816 1053 874 c 0,86,87
 1058 898 1058 898 1058 919 c 0,88,89
 1058 958 1058 958 1038 987 c 0,90,91
 1010 1026 1010 1026 957 1026 c 0,92,93
 882 1026 882 1026 811 930 c 0,94,95
 765 868 765 868 737 748 c 2,80,-1
533 329 m 1,96,97
 560 309 560 309 587 296 c 0,98,99
 662 259 662 259 761 259 c 0,100,101
 856 259 856 259 951 296 c 0,102,103
 1015 321 1015 321 1077 365 c 1,104,-1
 986 326 l 1,105,-1
 962 326 l 1,106,-1
 836 596 l 1,107,-1
 702 596 l 1,108,-1
 652 380 l 1,109,-1
 533 329 l 1,96,97
EndSplineSet
Validated: 1
EndChar

StartChar: macron
Encoding: 175 175 113
Width: 1214
GlyphClass: 2
Flags: W
HStem: 1328 182<580 1290>
LayerCount: 2
Fore
SplineSet
457 1328 m 1,0,-1
 459 1338 l 1,1,-1
 580 1510 l 1,2,-1
 1413 1510 l 1,3,-1
 1410 1500 l 1,4,-1
 1290 1328 l 1,5,-1
 457 1328 l 1,0,-1
EndSplineSet
Validated: 1
EndChar

StartChar: degree
Encoding: 176 176 114
Width: 1038
GlyphClass: 2
Flags: W
HStem: 730 147<625.961 838.976> 1383 147<720.091 933.182>
VStem: 399 195<919.018 1222.33> 965 196<1033.89 1339.31>
LayerCount: 2
Fore
SplineSet
952 1130 m 0,0,1
 965 1186 965 1186 965 1230 c 0,2,3
 965 1289 965 1289 942 1327 c 0,4,5
 908 1383 908 1383 838 1383 c 128,-1,6
 768 1383 768 1383 711 1330 c 0,7,8
 638 1261 638 1261 607 1130 c 0,9,10
 594 1074 594 1074 594 1030 c 0,11,12
 594 969 594 969 619 930 c 0,13,14
 653 877 653 877 721 877 c 0,15,16
 793 877 793 877 850 931 c 0,17,18
 921 998 921 998 952 1130 c 0,0,1
412 1133 m 0,19,20
 452 1307 452 1307 596 1429 c 0,21,22
 715 1530 715 1530 872 1530 c 128,-1,23
 1029 1530 1029 1530 1100 1430 c 0,24,25
 1161 1344 1161 1344 1161 1232 c 0,26,27
 1161 1184 1161 1184 1149 1130 c 0,28,29
 1106 952 1106 952 962 830 c 0,30,31
 844 730 844 730 688 730 c 0,32,33
 530 730 530 730 459 831 c 0,34,35
 399 916 399 916 399 1024 c 0,36,37
 399 1078 399 1078 412 1133 c 0,19,20
EndSplineSet
Validated: 1
EndChar

StartChar: plusminus
Encoding: 177 177 115
Width: 1214
GlyphClass: 2
Flags: W
HStem: 243 182<329 1039> 835 182<466 709 933 1176>
DStem2: 571.824 243 754.123 243 0.224951 0.97437<356.084 607.685 835.409 1087.01>
LayerCount: 2
Fore
SplineSet
206 243 m 1,0,-1
 208 253 l 1,1,-1
 329 425 l 1,2,-1
 1162 425 l 1,3,-1
 1160 415 l 1,4,-1
 1039 243 l 1,5,-1
 206 243 l 1,0,-1
1017 1383 m 1,6,-1
 933 1017 l 1,7,-1
 1299 1017 l 1,8,-1
 1296 1007 l 1,9,-1
 1176 835 l 1,10,-1
 891 835 l 1,11,-1
 825 550 l 1,12,-1
 634 469 l 1,13,-1
 624 469 l 1,14,-1
 709 835 l 1,15,-1
 343 835 l 1,16,-1
 345 845 l 1,17,-1
 466 1017 l 1,18,-1
 751 1017 l 1,19,-1
 817 1302 l 1,20,-1
 1007 1383 l 1,21,-1
 1017 1383 l 1,6,-1
EndSplineSet
Validated: 1
EndChar

StartChar: uni00B2
Encoding: 178 178 116
Width: 860
GlyphClass: 2
Flags: W
HStem: 730 135<491.94 783.63> 1395 135<633.046 820.017>
VStem: 343 149<819 874> 830 154<1212.13 1370.77>
LayerCount: 2
Fore
SplineSet
466 730 m 2,0,1
 392 730 392 730 363 762 c 0,2,3
 343 784 343 784 343 819 c 0,4,5
 343 836 343 836 347 854 c 0,6,7
 393 1036 393 1036 666 1144 c 0,8,9
 810 1201 810 1201 825 1270 c 0,10,11
 830 1293 830 1293 830 1311 c 0,12,13
 830 1336 830 1336 820 1356 c 0,14,15
 799 1395 799 1395 735 1395 c 0,16,17
 659 1395 659 1395 588 1301 c 1,18,-1
 562 1301 l 1,19,-1
 464 1353 l 1,20,21
 604 1530 604 1530 766 1530 c 0,22,23
 900 1530 900 1530 952 1449 c 0,24,25
 984 1399 984 1399 984 1334 c 0,26,27
 984 1297 984 1297 976 1264 c 0,28,29
 942 1122 942 1122 715 1025 c 0,30,31
 598 975 598 975 549 938 c 0,32,33
 497 899 497 899 492 874 c 0,34,35
 490 865 490 865 497 865 c 2,36,-1
 727 865 l 2,37,38
 767 865 767 865 794 924 c 1,39,-1
 824 924 l 1,40,-1
 912 877 l 1,41,42
 842 730 842 730 696 730 c 2,43,-1
 466 730 l 2,0,1
EndSplineSet
Validated: 1
EndChar

StartChar: uni00B3
Encoding: 179 179 117
Width: 845
GlyphClass: 2
Flags: W
HStem: 712 133<531.025 720.014> 1375 135<622 785>
VStem: 774 153<899.865 1058.85>
LayerCount: 2
Fore
SplineSet
358 900 m 1,0,-1
 480 953 l 1,1,-1
 506 953 l 1,2,3
 527 845 527 845 613 845 c 0,4,5
 672 845 672 845 718 887 c 0,6,7
 758 924 758 924 771 980 c 0,8,9
 774 993 774 993 774 1005 c 0,10,11
 774 1029 774 1029 760 1049 c 0,12,13
 737 1080 737 1080 655 1080 c 1,14,-1
 592 1158 l 1,15,-1
 785 1375 l 1,16,-1
 543 1375 l 1,17,-1
 552 1411 l 1,18,-1
 622 1510 l 1,19,-1
 870 1510 l 2,20,21
 966 1510 966 1510 966 1444 c 0,22,23
 966 1434 966 1434 962 1416 c 0,24,25
 952 1371 952 1371 886 1300 c 1,26,-1
 793 1204 l 1,27,28
 846 1192 846 1192 883 1151 c 0,29,30
 927 1102 927 1102 927 1035 c 0,31,32
 927 1010 927 1010 921 981 c 0,33,34
 897 867 897 867 803 790 c 0,35,36
 707 712 707 712 578 712 c 0,37,38
 408 712 408 712 358 900 c 1,0,-1
EndSplineSet
Validated: 1
EndChar

StartChar: acute
Encoding: 180 180 118
Width: 648
GlyphClass: 2
Flags: W
HStem: 1150 400
VStem: 428 408
LayerCount: 2
Fore
SplineSet
670 1550 m 1,0,-1
 680 1550 l 1,1,-1
 836 1466 l 1,2,-1
 542 1150 l 1,3,-1
 532 1150 l 1,4,-1
 428 1205 l 1,5,-1
 670 1550 l 1,0,-1
EndSplineSet
Validated: 1
EndChar

StartChar: uni00B5
Encoding: 181 181 119
Width: 1203
GlyphClass: 2
Flags: W
HStem: -450 21G<76 132.889> -20 170<532.123 760.561> 930 170<459 592> 1120 20G<1229.11 1286>
DStem2: 76 -450 276.222 -450 0.224951 0.97437<137.407 562.167 874.457 1245.49> 719.132 -450 919.132 -450 0.224951 0.97437<770.523 1539.36>
LayerCount: 2
Fore
SplineSet
1286 1140 m 1,0,-1
 1150 550 l 2,1,2
 1102 340 1102 340 1001 211 c 0,3,4
 821 -20 821 -20 597 -20 c 0,5,6
 470 -20 470 -20 392 54 c 1,7,-1
 297 -360 l 1,8,-1
 86 -450 l 1,9,-1
 76 -450 l 1,10,-1
 307 550 l 2,11,12
 363 792 363 792 592 930 c 1,13,-1
 345 930 l 1,14,-1
 347 940 l 1,15,-1
 459 1100 l 1,16,-1
 927 1100 l 1,17,-1
 925 1090 l 1,18,-1
 813 930 l 1,19,20
 673 846 673 846 610 766 c 0,21,22
 535 670 535 670 507 550 c 0,23,24
 479 429 479 429 479 352 c 0,25,26
 479 311 479 311 487 282 c 0,27,28
 523 150 523 150 637 150 c 0,29,30
 750 150 750 150 847 282 c 0,31,32
 907 364 907 364 950 550 c 2,33,-1
 1065 1050 l 1,34,-1
 1276 1140 l 1,35,-1
 1286 1140 l 1,0,-1
EndSplineSet
Validated: 1
EndChar

StartChar: paragraph
Encoding: 182 182 120
Width: 1180
GlyphClass: 2
Flags: W
HStem: -40 21G<771 828.143> 1510 20G<837.5 1001>
VStem: 373 867<900 1197>
DStem2: 771 -40 840.536 -40 0.224951 0.97437<44.3786 660.787> 904.379 -40 971.222 -40 0.224951 0.97437<107.404 1206.47>
LayerCount: 2
Fore
SplineSet
771 -40 m 1,0,-1
 919 604 l 1,1,2
 808 554 808 554 693 554 c 0,3,4
 534 554 534 554 446 669 c 0,5,6
 373 764 373 764 373 900 c 0,7,8
 373 968 373 968 391 1045 c 0,9,10
 446 1278 446 1278 621 1420 c 0,11,12
 757 1530 757 1530 918 1530 c 0,13,14
 1084 1530 1084 1530 1168 1424 c 0,15,16
 1240 1333 1240 1333 1240 1197 c 0,17,18
 1240 1127 1240 1127 1221 1046 c 2,19,-1
 992 50 l 1,20,-1
 918 19 l 1,21,-1
 1176 1137 l 1,22,-1
 1112 1137 l 1,23,-1
 847 -12 l 1,24,-1
 781 -40 l 1,25,-1
 771 -40 l 1,0,-1
EndSplineSet
Validated: 1
EndChar

StartChar: periodcentered
Encoding: 183 183 121
Width: 600
GlyphClass: 2
Flags: W
HStem: 631 245<399.965 548.947>
VStem: 350 249<680.312 825.973>
LayerCount: 2
Fore
SplineSet
354 753 m 0,0,1
 366 804 366 804 409 840 c 128,-1,2
 452 876 452 876 503 876 c 128,-1,3
 554 876 554 876 580 840 c 0,4,5
 599 814 599 814 599 783 c 0,6,7
 599 771 599 771 595 753 c 0,8,9
 580 700 580 700 540 667 c 0,10,11
 496 631 496 631 445 631 c 0,12,13
 395 631 395 631 368 668 c 0,14,15
 350 692 350 692 350 721 c 0,16,17
 350 735 350 735 354 753 c 0,0,1
EndSplineSet
Validated: 1
EndChar

StartChar: cedilla
Encoding: 184 184 122
Width: 609
GlyphClass: 2
Flags: W
HStem: -286 564
VStem: 292 164<-74.4375 158.756>
LayerCount: 2
Fore
SplineSet
278 278 m 1,0,1
 456 171 456 171 456 20 c 0,2,3
 456 -10 456 -10 449 -42 c 0,4,5
 419 -178 419 -178 284 -286 c 1,6,-1
 274 -286 l 1,7,-1
 105 -196 l 1,8,9
 258 -110 258 -110 287 12 c 0,10,11
 292 33 292 33 292 55 c 0,12,13
 292 138 292 138 224 228 c 1,14,-1
 278 278 l 1,0,1
EndSplineSet
Validated: 1
EndChar

StartChar: uni00B9
Encoding: 185 185 123
Width: 672
GlyphClass: 2
Flags: W
HStem: 1530 20G<616.714 680.5>
VStem: 436 321
DStem2: 436 710 585.533 710 0.224951 0.97437<89.0581 683.573>
LayerCount: 2
Fore
SplineSet
436 710 m 1,0,-1
 590 1376 l 1,1,-1
 443 1268 l 1,2,-1
 482 1438 l 1,3,-1
 646 1550 l 1,4,5
 715 1550 715 1550 740 1518 c 0,6,7
 757 1496 757 1496 757 1465 c 0,8,9
 757 1449 757 1449 753 1432 c 2,10,-1
 598 764 l 1,11,-1
 472 710 l 1,12,-1
 436 710 l 1,0,-1
EndSplineSet
Validated: 1
EndChar

StartChar: ordmasculine
Encoding: 186 186 124
Width: 955
GlyphClass: 2
Flags: W
HStem: 664 182<426 877> 920 125<664.649 795.418> 1405 125<724.349 857.831>
VStem: 516 141<1047.28 1318.97> 865 140<1128.98 1402.09>
LayerCount: 2
Fore
SplineSet
671 1226 m 0,0,1
 657 1166 657 1166 657 1129 c 0,2,3
 657 1112 657 1112 660 1100 c 0,4,5
 674 1045 674 1045 719 1045 c 0,6,7
 763 1045 763 1045 804 1100 c 0,8,9
 833 1140 833 1140 852 1225 c 0,10,11
 865 1284 865 1284 865 1320 c 0,12,13
 865 1337 865 1337 862 1350 c 0,14,15
 849 1405 849 1405 802 1405 c 0,16,17
 754 1405 754 1405 717 1351 c 0,18,19
 691 1314 691 1314 671 1226 c 0,0,1
530 1226 m 0,20,21
 555 1333 555 1333 610 1404 c 0,22,23
 708 1530 708 1530 831 1530 c 128,-1,24
 954 1530 954 1530 994 1404 c 0,25,26
 1005 1369 1005 1369 1005 1326 c 0,27,28
 1005 1280 1005 1280 992 1225 c 0,29,30
 966 1116 966 1116 911 1046 c 0,31,32
 812 920 812 920 690 920 c 0,33,34
 576 920 576 920 529 1043 c 0,35,36
 516 1077 516 1077 516 1121.5 c 128,-1,37
 516 1166 516 1166 530 1226 c 0,20,21
303 664 m 1,38,-1
 306 674 l 1,39,-1
 426 846 l 1,40,-1
 1000 846 l 1,41,-1
 998 836 l 1,42,-1
 877 664 l 1,43,-1
 303 664 l 1,38,-1
EndSplineSet
Validated: 1
EndChar

StartChar: guillemotright
Encoding: 187 187 125
Width: 1208
GlyphClass: 2
Flags: W
DStem2: 289 386 454 304 0.635818 0.771839<41.6192 529.953> 680 1284 478 1202 0.336821 -0.941569<9.17073 442.239> 674 386 839 304 0.635818 0.771839<41.6192 529.953> 1065 1284 863 1202 0.336821 -0.941569<9.17073 442.239>
LayerCount: 2
Fore
SplineSet
454 304 m 1,0,-1
 444 304 l 1,1,-1
 289 386 l 1,2,-1
 626 795 l 1,3,-1
 478 1202 l 1,4,-1
 670 1284 l 1,5,-1
 680 1284 l 1,6,-1
 856 792 l 1,7,-1
 454 304 l 1,0,-1
839 304 m 1,8,-1
 829 304 l 1,9,-1
 674 386 l 1,10,-1
 1011 795 l 1,11,-1
 863 1202 l 1,12,-1
 1055 1284 l 1,13,-1
 1065 1284 l 1,14,-1
 1241 792 l 1,15,-1
 839 304 l 1,8,-1
EndSplineSet
Validated: 1
EndChar

StartChar: onequarter
Encoding: 188 188 126
Width: 1470
GlyphClass: 2
Flags: W
HStem: -40 21G<305.941 366.929 1035 1117.67> 159 135<932 1081 1262 1270> 1530 20G<616.714 680.5 1264.06 1324.76>
DStem2: 217 28 353 -40 0.57187 0.820345<21.9908 1855.32> 262.849 -40 412.382 -40 0.224951 0.97437<858.786 1453.3> 809 340 932 294 0.68373 0.729735<50.531 405.817> 1035 -40 1184.53 -40 0.224951 0.97437<89.0581 204.247 376.503 611.543>
LayerCount: 2
Fore
SplineSet
436 710 m 1,0,-1
 590 1376 l 1,1,-1
 443 1268 l 1,2,-1
 482 1438 l 1,3,-1
 646 1550 l 1,4,5
 715 1550 715 1550 740 1518 c 0,6,7
 757 1496 757 1496 757 1465 c 0,8,9
 757 1449 757 1449 753 1432 c 2,10,-1
 598 764 l 1,11,-1
 472 710 l 1,12,-1
 436 710 l 1,0,-1
1035 -40 m 1,13,-1
 1081 159 l 1,14,-1
 860 159 l 2,15,16
 757 159 757 159 757 226 c 0,17,18
 757 238 757 238 760 252 c 0,19,20
 770 296 770 296 809 340 c 2,21,-1
 1240 800 l 1,22,23
 1311 800 1311 800 1337 768 c 0,24,25
 1355 746 1355 746 1355 714 c 0,26,27
 1355 700 1355 700 1351 682 c 2,28,-1
 1262 294 l 1,29,-1
 1348 294 l 1,30,-1
 1340 258 l 1,31,-1
 1270 159 l 1,32,-1
 1231 159 l 1,33,-1
 1197 14 l 1,34,-1
 1071 -40 l 1,35,-1
 1035 -40 l 1,13,-1
1112 294 m 1,36,-1
 1172 556 l 1,37,-1
 932 294 l 1,38,-1
 1112 294 l 1,36,-1
343 -40 m 1,39,-1
 217 28 l 1,40,-1
 1278 1550 l 1,41,-1
 1288 1550 l 1,42,-1
 1413 1482 l 1,43,-1
 353 -40 l 1,44,-1
 343 -40 l 1,39,-1
EndSplineSet
Validated: 1
EndChar

StartChar: onehalf
Encoding: 189 189 127
Width: 1553
GlyphClass: 2
Flags: W
HStem: -40 21G<305.941 366.929> 0 135<965.94 1257.63> 665 135<1107.05 1294.02> 1530 20G<616.714 680.5 1264.06 1324.76>
VStem: 817 149<89 144> 1304 154<482.127 640.774>
DStem2: 217 28 353 -40 0.57187 0.820345<21.9908 1855.32> 262.849 -40 412.382 -40 0.224951 0.97437<858.786 1453.3>
LayerCount: 2
Fore
SplineSet
940 0 m 2,0,1
 866 0 866 0 837 32 c 0,2,3
 817 54 817 54 817 89 c 0,4,5
 817 106 817 106 821 124 c 0,6,7
 867 306 867 306 1140 414 c 0,8,9
 1284 471 1284 471 1299 540 c 0,10,11
 1304 563 1304 563 1304 581 c 0,12,13
 1304 606 1304 606 1294 626 c 0,14,15
 1273 665 1273 665 1209 665 c 0,16,17
 1133 665 1133 665 1062 571 c 1,18,-1
 1036 571 l 1,19,-1
 938 623 l 1,20,21
 1078 800 1078 800 1240 800 c 0,22,23
 1374 800 1374 800 1426 719 c 0,24,25
 1458 669 1458 669 1458 604 c 0,26,27
 1458 567 1458 567 1450 534 c 0,28,29
 1416 392 1416 392 1189 295 c 0,30,31
 1072 245 1072 245 1023 208 c 0,32,33
 971 169 971 169 966 144 c 0,34,35
 964 135 964 135 971 135 c 2,36,-1
 1201 135 l 2,37,38
 1241 135 1241 135 1268 194 c 1,39,-1
 1298 194 l 1,40,-1
 1386 147 l 1,41,42
 1316 0 1316 0 1170 0 c 2,43,-1
 940 0 l 2,0,1
436 710 m 1,44,-1
 590 1376 l 1,45,-1
 443 1268 l 1,46,-1
 482 1438 l 1,47,-1
 646 1550 l 1,48,49
 715 1550 715 1550 740 1518 c 0,50,51
 757 1496 757 1496 757 1465 c 0,52,53
 757 1449 757 1449 753 1432 c 2,54,-1
 598 764 l 1,55,-1
 472 710 l 1,56,-1
 436 710 l 1,44,-1
343 -40 m 1,57,-1
 217 28 l 1,58,-1
 1278 1550 l 1,59,-1
 1288 1550 l 1,60,-1
 1413 1482 l 1,61,-1
 353 -40 l 1,62,-1
 343 -40 l 1,57,-1
EndSplineSet
Validated: 1
EndChar

StartChar: threequarters
Encoding: 190 190 128
Width: 1666
GlyphClass: 2
Flags: W
HStem: -40 21G<501.941 562.929 1231 1313.67> 159 135<1128 1277 1458 1466> 712 133<531.025 720.014> 1375 135<622 785> 1530 20G<1460.06 1520.76>
VStem: 774 153<899.865 1058.85>
DStem2: 413 28 549 -40 0.57187 0.820345<21.9908 1855.32> 1005 340 1128 294 0.68373 0.729735<50.531 405.817> 1231 -40 1380.53 -40 0.224951 0.97437<89.0581 204.247 376.503 611.543>
LayerCount: 2
Fore
SplineSet
1231 -40 m 1,0,-1
 1277 159 l 1,1,-1
 1056 159 l 2,2,3
 953 159 953 159 953 226 c 0,4,5
 953 236 953 236 956 252 c 0,6,7
 964 294 964 294 1005 340 c 2,8,-1
 1436 800 l 1,9,10
 1507 800 1507 800 1533 768 c 0,11,12
 1551 746 1551 746 1551 714 c 0,13,14
 1551 700 1551 700 1547 682 c 2,15,-1
 1458 294 l 1,16,-1
 1544 294 l 1,17,-1
 1536 258 l 1,18,-1
 1466 159 l 1,19,-1
 1427 159 l 1,20,-1
 1393 14 l 1,21,-1
 1267 -40 l 1,22,-1
 1231 -40 l 1,0,-1
1308 294 m 1,23,-1
 1368 556 l 1,24,-1
 1128 294 l 1,25,-1
 1308 294 l 1,23,-1
358 900 m 1,26,-1
 480 953 l 1,27,-1
 506 953 l 1,28,29
 527 845 527 845 613 845 c 0,30,31
 672 845 672 845 718 887 c 0,32,33
 758 924 758 924 771 980 c 0,34,35
 774 993 774 993 774 1005 c 0,36,37
 774 1029 774 1029 760 1049 c 0,38,39
 737 1080 737 1080 655 1080 c 1,40,-1
 592 1158 l 1,41,-1
 785 1375 l 1,42,-1
 543 1375 l 1,43,-1
 552 1411 l 1,44,-1
 622 1510 l 1,45,-1
 870 1510 l 2,46,47
 966 1510 966 1510 966 1444 c 0,48,49
 966 1434 966 1434 962 1416 c 0,50,51
 952 1371 952 1371 886 1300 c 1,52,-1
 793 1204 l 1,53,54
 846 1192 846 1192 883 1151 c 0,55,56
 927 1102 927 1102 927 1035 c 0,57,58
 927 1010 927 1010 921 981 c 0,59,60
 897 867 897 867 803 790 c 0,61,62
 707 712 707 712 578 712 c 0,63,64
 408 712 408 712 358 900 c 1,26,-1
539 -40 m 1,65,-1
 413 28 l 1,66,-1
 1474 1550 l 1,67,-1
 1484 1550 l 1,68,-1
 1609 1482 l 1,69,-1
 549 -40 l 1,70,-1
 539 -40 l 1,65,-1
EndSplineSet
Validated: 1
EndChar

StartChar: questiondown
Encoding: 191 191 129
Width: 1228
GlyphClass: 2
Flags: W
HStem: -20 170<520.974 837.115> 1285 245<905.053 1054.04>
VStem: 241 201<226.948 543.382> 855 249<1335.03 1480.69>
LayerCount: 2
Fore
SplineSet
1100 1408 m 0,0,1
 1088 1357 1088 1357 1045 1321 c 128,-1,2
 1002 1285 1002 1285 951 1285 c 128,-1,3
 900 1285 900 1285 874 1321 c 0,4,5
 855 1347 855 1347 855 1378 c 0,6,7
 855 1390 855 1390 859 1408 c 0,8,9
 874 1461 874 1461 914 1494 c 0,10,11
 958 1530 958 1530 1009 1530 c 0,12,13
 1059 1530 1059 1530 1086 1493 c 0,14,15
 1104 1469 1104 1469 1104 1440 c 0,16,17
 1104 1426 1104 1426 1100 1408 c 0,0,1
1175 288 m 1,18,19
 936 -20 936 -20 638 -20 c 0,20,21
 399 -20 399 -20 301 125 c 0,22,23
 241 214 241 214 241 332 c 0,24,25
 241 393 241 393 257 462 c 0,26,27
 326 759 326 759 707 917 c 0,28,29
 789 951 789 951 813 1056 c 1,30,-1
 1028 1149 l 1,31,-1
 1038 1149 l 1,32,33
 975 880 975 880 779 788 c 0,34,35
 502 658 502 658 455 461 c 0,36,37
 442 406 442 406 442 361 c 0,38,39
 443 292 443 292 472 246 c 0,40,41
 533 150 533 150 677 150 c 24,42,43
 860 150 860 150 1021 366 c 1,44,-1
 1031 366 l 1,45,-1
 1175 288 l 1,18,19
EndSplineSet
Validated: 1
EndChar

StartChar: Delta
Encoding: 916 916 130
Width: 1138
GlyphClass: 2
Flags: W
HStem: 0 170<282 929.934> 1530 20G<950.171 1008.94>
DStem2: 223 435 282 170 0.478852 0.877896<-200.776 985.957> 1007 1550 852 1215 0.0964098 -0.995342<318.496 1120.22 1310.68 1366.22>
LayerCount: 2
Fore
SplineSet
243 0 m 2,0,1
 77 0 77 0 77 99 c 0,2,3
 77 115 77 115 81 134 c 0,4,5
 100 222 100 222 223 435 c 1,6,-1
 805 1468 l 1,7,-1
 997 1550 l 1,8,-1
 1007 1550 l 1,9,-1
 1115 435 l 1,10,11
 1129 324 1129 324 1129 245 c 0,12,13
 1129 178 1129 178 1119 134 c 0,14,15
 1089 0 1089 0 895 0 c 2,16,-1
 243 0 l 2,0,1
282 170 m 9,17,-1
 931 170 l 17,18,-1
 852 1215 l 1,19,-1
 282 170 l 9,17,-1
EndSplineSet
Validated: 1
EndChar

StartChar: Pi
Encoding: 928 928 131
Width: 1390
GlyphClass: 2
Flags: W
HStem: -40 21G<191 247.889 981 1037.89> 1340 170<699.195 1289>
DStem2: 191 -40 391.222 -40 0.224951 0.97437<137.407 1470.7> 981 -40 1181.22 -40 0.224951 0.97437<137.407 1405.85>
LayerCount: 2
Fore
SplineSet
191 -40 m 1,0,-1
 499 1296 l 2,1,2
 549 1510 549 1510 799 1510 c 2,3,-1
 1289 1510 l 2,4,5
 1497 1510 1497 1510 1497 1361 c 0,6,7
 1497 1332 1497 1332 1489 1296 c 2,8,-1
 1202 50 l 1,9,-1
 991 -40 l 1,10,-1
 981 -40 l 1,11,-1
 1289 1296 l 2,12,13
 1299 1340 1299 1340 1249 1340 c 2,14,-1
 759 1340 l 2,15,16
 709 1340 709 1340 699 1296 c 2,17,-1
 412 50 l 1,18,-1
 201 -40 l 1,19,-1
 191 -40 l 1,0,-1
EndSplineSet
Validated: 1
EndChar

StartChar: Sigma
Encoding: 931 931 132
Width: 1168
GlyphClass: 2
Flags: W
HStem: 0 170<382 970.161> 1340 170<688.406 1176>
DStem2: 683 1340 558 1148 0.483935 -0.875104<2.39709 534.507> 764 774 382 170 0.712888 0.701278<-691.773 0>
LayerCount: 2
Fore
SplineSet
343 0 m 2,0,1
 177 0 177 0 177 100 c 0,2,3
 177 116 177 116 181 134 c 0,4,5
 200 218 200 218 346 362 c 1,6,-1
 764 774 l 1,7,-1
 558 1148 l 1,8,9
 495 1262 495 1262 495 1339 c 0,10,11
 495 1359 495 1359 499 1376 c 0,12,13
 531 1510 531 1510 723 1510 c 2,14,-1
 1291 1510 l 17,15,-1
 1288 1500 l 1,16,-1
 1176 1340 l 9,17,-1
 683 1340 l 17,18,-1
 996 774 l 1,19,-1
 382 170 l 9,20,-1
 849 170 l 2,21,22
 967 170 967 170 1024 287 c 1,23,-1
 1034 287 l 1,24,-1
 1168 216 l 1,25,26
 1058 0 1058 0 810 0 c 2,27,-1
 343 0 l 2,0,1
EndSplineSet
Validated: 1
EndChar

StartChar: Omega
Encoding: 937 937 133
Width: 1474
GlyphClass: 2
Flags: W
HStem: 0 170<349.719 507 1045 1225.21> 1364 166<881.96 1203.05>
VStem: 348 205<491.83 946.182> 1326 203<814.702 1229.81>
LayerCount: 2
Fore
SplineSet
630 0 m 25,0,-1
 408 0 l 2,1,2
 160 0 160 0 150 216 c 1,3,-1
 316 287 l 1,4,-1
 326 287 l 1,5,6
 331 170 331 170 447 170 c 2,7,-1
 507 170 l 17,8,-1
 530 267 l 17,9,10
 348 394 348 394 348 658 c 0,11,12
 349 767 349 767 379 898 c 0,13,14
 429 1118 429 1118 597 1297 c 0,15,16
 815 1530 815 1530 1090 1530 c 0,17,18
 1361 1530 1361 1530 1475 1297 c 0,19,20
 1529 1187 1529 1187 1529 1059 c 0,21,22
 1528 981 1528 981 1509 898 c 0,23,24
 1405 445 1405 445 1068 267 c 9,25,-1
 1045 170 l 9,26,-1
 1105 170 l 2,27,28
 1221 170 1221 170 1280 287 c 1,29,-1
 1290 287 l 1,30,-1
 1424 216 l 1,31,32
 1314 0 1314 0 1066 0 c 2,33,-1
 844 0 l 25,34,-1
 929 368 l 17,35,36
 1216 499 1216 499 1309 898 c 0,37,38
 1326 971 1326 971 1326 1037 c 0,39,40
 1326 1132 1326 1132 1291 1211 c 0,41,42
 1223 1364 1223 1364 1054 1364 c 0,43,44
 881 1364 881 1364 743 1211 c 0,45,46
 619 1074 619 1074 579 898 c 0,47,48
 553 784 553 784 553 692 c 0,49,50
 553 462 553 462 715 368 c 9,51,-1
 630 0 l 25,0,-1
EndSplineSet
Validated: 1
EndChar

StartChar: mu
Encoding: 956 956 134
Width: 1203
GlyphClass: 2
Flags: W
HStem: -450 21G<76 132.889> -20 170<532.123 760.561> 991 149<733.776 784>
DStem2: 76 -450 276.222 -450 0.224951 0.97437<137.407 562.167 874.457 1320.26> 718.698 -450 919.132 -450 0.224951 0.97437<770.62 1539.46>
LayerCount: 2
Fore
SplineSet
76 -450 m 1,0,-1
 307 550 l 2,1,2
 350 739 350 739 457 889 c 24,3,4
 587 1072 587 1072 774 1140 c 1,5,-1
 784 1140 l 1,6,-1
 825 991 l 1,7,8
 694 948 694 948 611 818 c 0,9,10
 545 715 545 715 507 550 c 0,11,12
 479 429 479 429 479 352 c 0,13,14
 479 311 479 311 487 282 c 0,15,16
 523 150 523 150 637 150 c 0,17,18
 750 150 750 150 847 282 c 0,19,20
 907 364 907 364 950 550 c 2,21,-1
 1065 1050 l 1,22,-1
 1276 1140 l 1,23,-1
 1286 1140 l 1,24,-1
 1150 550 l 2,25,26
 1102 340 1102 340 1001 211 c 0,27,28
 821 -20 821 -20 597 -20 c 0,29,30
 470 -20 470 -20 392 54 c 1,31,-1
 297 -360 l 1,32,-1
 86 -450 l 1,33,-1
 76 -450 l 1,0,-1
EndSplineSet
Validated: 1
EndChar

StartChar: pi
Encoding: 960 960 135
Width: 1173
GlyphClass: 2
Flags: W
HStem: -40 21G<191 247.889 764 820.889> 930 170<610.731 978.002>
DStem2: 191 -40 391.222 -40 0.224951 0.97437<137.407 1049.97> 764 -40 964.222 -40 0.224951 0.97437<137.407 985.211>
LayerCount: 2
Fore
SplineSet
191 -40 m 1,0,-1
 405 886 l 2,1,2
 454 1100 454 1100 704 1100 c 2,3,-1
 977 1100 l 2,4,5
 1186 1100 1186 1100 1186 950 c 0,6,7
 1186 921 1186 921 1178 886 c 2,8,-1
 985 50 l 1,9,-1
 774 -40 l 1,10,-1
 764 -40 l 1,11,-1
 978 886 l 2,12,13
 988 930 988 930 938 930 c 2,14,-1
 665 930 l 2,15,16
 615 930 615 930 605 886 c 2,17,-1
 412 50 l 1,18,-1
 201 -40 l 1,19,-1
 191 -40 l 1,0,-1
EndSplineSet
Validated: 1
EndChar

StartChar: uni2010
Encoding: 8208 8208 136
Width: 1214
GlyphClass: 2
Flags: W
HStem: 664 182<501 1061>
LayerCount: 2
Fore
SplineSet
378 664 m 1,0,-1
 381 674 l 1,1,-1
 501 846 l 1,2,-1
 1184 846 l 1,3,-1
 1182 836 l 1,4,-1
 1061 664 l 1,5,-1
 378 664 l 1,0,-1
EndSplineSet
Validated: 1
EndChar

StartChar: uni2011
Encoding: 8209 8209 137
Width: 1214
GlyphClass: 2
Flags: W
HStem: 664 182<501 1061>
LayerCount: 2
Fore
SplineSet
378 664 m 1,0,-1
 381 674 l 1,1,-1
 501 846 l 1,2,-1
 1184 846 l 1,3,-1
 1182 836 l 1,4,-1
 1061 664 l 1,5,-1
 378 664 l 1,0,-1
EndSplineSet
Validated: 1
EndChar

StartChar: figuredash
Encoding: 8210 8210 138
Width: 1214
GlyphClass: 2
Flags: W
HStem: 664 182<426 1136>
LayerCount: 2
Fore
SplineSet
303 664 m 1,0,-1
 306 674 l 1,1,-1
 426 846 l 1,2,-1
 1259 846 l 1,3,-1
 1257 836 l 1,4,-1
 1136 664 l 1,5,-1
 303 664 l 1,0,-1
EndSplineSet
Validated: 1
EndChar

StartChar: endash
Encoding: 8211 8211 139
Width: 1214
GlyphClass: 2
Flags: W
HStem: 664 182<426 1136>
LayerCount: 2
Fore
SplineSet
303 664 m 1,0,-1
 306 674 l 1,1,-1
 426 846 l 1,2,-1
 1259 846 l 1,3,-1
 1257 836 l 1,4,-1
 1136 664 l 1,5,-1
 303 664 l 1,0,-1
EndSplineSet
Validated: 1
EndChar

StartChar: emdash
Encoding: 8212 8212 140
Width: 1214
GlyphClass: 2
Flags: W
HStem: 664 182<301 1261>
LayerCount: 2
Fore
SplineSet
178 664 m 1,0,-1
 181 674 l 1,1,-1
 301 846 l 1,2,-1
 1384 846 l 1,3,-1
 1382 836 l 1,4,-1
 1261 664 l 1,5,-1
 178 664 l 1,0,-1
EndSplineSet
Validated: 1
EndChar

StartChar: afii00208
Encoding: 8213 8213 141
Width: 1214
GlyphClass: 2
Flags: W
HStem: 664 182<301 1261>
LayerCount: 2
Fore
SplineSet
178 664 m 1,0,-1
 181 674 l 1,1,-1
 301 846 l 1,2,-1
 1384 846 l 1,3,-1
 1382 836 l 1,4,-1
 1261 664 l 1,5,-1
 178 664 l 1,0,-1
EndSplineSet
Validated: 1
EndChar

StartChar: underscoredbl
Encoding: 8215 8215 142
Width: 1214
GlyphClass: 2
Flags: W
HStem: -410 182<178 888> -182 182<231 941>
LayerCount: 2
Fore
SplineSet
108 -182 m 1,0,-1
 110 -172 l 1,1,-1
 231 0 l 1,2,-1
 1064 0 l 1,3,-1
 1062 -10 l 1,4,-1
 941 -182 l 1,5,-1
 108 -182 l 1,0,-1
55 -410 m 1,6,-1
 58 -400 l 1,7,-1
 178 -228 l 1,8,-1
 1011 -228 l 1,9,-1
 1009 -238 l 1,10,-1
 888 -410 l 1,11,-1
 55 -410 l 1,6,-1
EndSplineSet
Validated: 1
EndChar

StartChar: quoteleft
Encoding: 8216 8216 143
Width: 609
GlyphClass: 2
Flags: W
HStem: 986 564
VStem: 425 190<1120.76 1318.9>
LayerCount: 2
Fore
SplineSet
753 1550 m 1,0,-1
 784 1500 l 1,1,2
 647 1386 647 1386 621 1284 c 0,3,4
 615 1260 615 1260 615 1238 c 0,5,6
 617 1144 617 1144 707 1076 c 1,7,-1
 497 986 l 1,8,-1
 487 986 l 1,9,10
 425 1064 425 1064 425 1158 c 0,11,12
 425 1194 425 1194 434 1232 c 0,13,14
 479 1424 479 1424 753 1550 c 1,0,-1
EndSplineSet
Validated: 1
EndChar

StartChar: quoteright
Encoding: 8217 8217 144
Width: 609
GlyphClass: 2
Flags: W
HStem: 986 564
VStem: 579 190<1214.75 1414.57>
LayerCount: 2
Fore
SplineSet
698 1550 m 1,0,-1
 708 1550 l 1,1,2
 769 1471 769 1471 769 1377 c 0,3,4
 769 1343 769 1343 761 1306 c 0,5,6
 720 1116 720 1116 442 986 c 1,7,-1
 410 1036 l 1,8,9
 547 1149 547 1149 573 1252 c 0,10,11
 579 1276 579 1276 579 1298 c 0,12,13
 577 1392 577 1392 487 1460 c 1,14,-1
 698 1550 l 1,0,-1
EndSplineSet
Validated: 1
EndChar

StartChar: quotesinglbase
Encoding: 8218 8218 145
Width: 609
GlyphClass: 2
Flags: W
HStem: -286 564
VStem: 285 190<-57.25 143.391>
LayerCount: 2
Fore
SplineSet
404 278 m 1,0,-1
 414 278 l 1,1,2
 475 200 475 200 475 106 c 0,3,4
 475 72 475 72 467 34 c 0,5,6
 427 -156 427 -156 148 -286 c 1,7,-1
 117 -236 l 1,8,9
 253 -123 253 -123 279 -20 c 0,10,11
 285 4 285 4 285 26 c 0,12,13
 285 121 285 121 193 188 c 1,14,-1
 404 278 l 1,0,-1
EndSplineSet
Validated: 1
EndChar

StartChar: quotereversed
Encoding: 8219 8219 146
Width: 609
GlyphClass: 2
Flags: W
HStem: 986 564
VStem: 445 164<1104.62 1337.91>
LayerCount: 2
Fore
SplineSet
617 1550 m 1,0,-1
 627 1550 l 1,1,-1
 796 1460 l 1,2,3
 643 1374 643 1374 614 1252 c 0,4,5
 609 1231 609 1231 609 1209 c 0,6,7
 610 1126 610 1126 677 1036 c 1,8,-1
 623 986 l 1,9,10
 445 1093 445 1093 445 1244 c 0,11,12
 446 1276 446 1276 453 1308 c 0,13,14
 483 1444 483 1444 617 1550 c 1,0,-1
EndSplineSet
Validated: 1
EndChar

StartChar: quotedblleft
Encoding: 8220 8220 147
Width: 924
GlyphClass: 2
Flags: W
HStem: 986 564
VStem: 425 190<1120.76 1318.9> 740 190<1120.76 1318.9>
LayerCount: 2
Fore
SplineSet
1068 1550 m 1,0,-1
 1099 1500 l 1,1,2
 962 1386 962 1386 936 1284 c 0,3,4
 930 1260 930 1260 930 1238 c 0,5,6
 932 1144 932 1144 1022 1076 c 1,7,-1
 812 986 l 1,8,-1
 802 986 l 1,9,10
 740 1064 740 1064 740 1158 c 0,11,12
 740 1194 740 1194 749 1232 c 0,13,14
 794 1424 794 1424 1068 1550 c 1,0,-1
753 1550 m 1,15,-1
 784 1500 l 1,16,17
 647 1386 647 1386 621 1284 c 0,18,19
 615 1260 615 1260 615 1238 c 0,20,21
 617 1144 617 1144 707 1076 c 1,22,-1
 497 986 l 1,23,-1
 487 986 l 1,24,25
 425 1064 425 1064 425 1158 c 0,26,27
 425 1194 425 1194 434 1232 c 0,28,29
 479 1424 479 1424 753 1550 c 1,15,-1
EndSplineSet
Validated: 1
EndChar

StartChar: quotedblright
Encoding: 8221 8221 148
Width: 924
GlyphClass: 2
Flags: W
HStem: 986 564
VStem: 579 190<1214.75 1414.57> 893 190<1214.75 1414.57>
LayerCount: 2
Fore
SplineSet
1012 1550 m 1,0,-1
 1022 1550 l 1,1,2
 1083 1471 1083 1471 1083 1377 c 0,3,4
 1083 1343 1083 1343 1075 1306 c 0,5,6
 1034 1116 1034 1116 756 986 c 1,7,-1
 724 1036 l 1,8,9
 861 1149 861 1149 887 1252 c 0,10,11
 893 1276 893 1276 893 1298 c 0,12,13
 891 1392 891 1392 801 1460 c 1,14,-1
 1012 1550 l 1,0,-1
698 1550 m 1,15,-1
 708 1550 l 1,16,17
 769 1471 769 1471 769 1377 c 0,18,19
 769 1343 769 1343 761 1306 c 0,20,21
 720 1116 720 1116 442 986 c 1,22,-1
 410 1036 l 1,23,24
 547 1149 547 1149 573 1252 c 0,25,26
 579 1276 579 1276 579 1298 c 0,27,28
 577 1392 577 1392 487 1460 c 1,29,-1
 698 1550 l 1,15,-1
EndSplineSet
Validated: 1
EndChar

StartChar: quotedblbase
Encoding: 8222 8222 149
Width: 924
GlyphClass: 2
Flags: W
HStem: -286 564
VStem: 285 190<-57.25 142.569> 599 190<-57.25 142.569>
LayerCount: 2
Fore
SplineSet
718 278 m 1,0,-1
 728 278 l 1,1,2
 789 199 789 199 789 105 c 0,3,4
 789 71 789 71 781 34 c 0,5,6
 740 -156 740 -156 462 -286 c 1,7,-1
 430 -236 l 1,8,9
 567 -123 567 -123 593 -20 c 0,10,11
 599 4 599 4 599 26 c 0,12,13
 597 120 597 120 507 188 c 1,14,-1
 718 278 l 1,0,-1
404 278 m 1,15,-1
 414 278 l 1,16,17
 475 199 475 199 475 105 c 0,18,19
 475 71 475 71 467 34 c 0,20,21
 426 -156 426 -156 148 -286 c 1,22,-1
 116 -236 l 1,23,24
 253 -123 253 -123 279 -20 c 0,25,26
 285 4 285 4 285 26 c 0,27,28
 283 120 283 120 193 188 c 1,29,-1
 404 278 l 1,15,-1
EndSplineSet
Validated: 1
EndChar

StartChar: uni201F
Encoding: 8223 8223 150
Width: 924
GlyphClass: 2
Flags: W
HStem: 986 564
VStem: 445 164<1104.62 1337.91> 760 164<1104.62 1337.91>
LayerCount: 2
Fore
SplineSet
932 1550 m 1,0,-1
 942 1550 l 1,1,-1
 1111 1460 l 1,2,3
 958 1374 958 1374 929 1252 c 0,4,5
 924 1231 924 1231 924 1209 c 0,6,7
 925 1126 925 1126 992 1036 c 1,8,-1
 938 986 l 1,9,10
 760 1093 760 1093 760 1244 c 0,11,12
 761 1276 761 1276 768 1308 c 0,13,14
 798 1444 798 1444 932 1550 c 1,0,-1
617 1550 m 1,15,-1
 627 1550 l 1,16,-1
 796 1460 l 1,17,18
 643 1374 643 1374 614 1252 c 0,19,20
 609 1231 609 1231 609 1209 c 0,21,22
 610 1126 610 1126 677 1036 c 1,23,-1
 623 986 l 1,24,25
 445 1093 445 1093 445 1244 c 0,26,27
 446 1276 446 1276 453 1308 c 0,28,29
 483 1444 483 1444 617 1550 c 1,15,-1
EndSplineSet
Validated: 1
EndChar

StartChar: dagger
Encoding: 8224 8224 151
Width: 1214
GlyphClass: 2
Flags: W
HStem: -40 21G<498 554.889> 996 182<503 737 979 1213> 1530 20G<1008.11 1065>
DStem2: 498 -40 698.222 -40 0.224951 0.97437<137.407 1063.21 1294.98 1539.39>
LayerCount: 2
Fore
SplineSet
498 -40 m 1,0,-1
 737 996 l 1,1,-1
 380 996 l 1,2,-1
 382 1006 l 1,3,-1
 503 1178 l 1,4,-1
 779 1178 l 1,5,-1
 844 1460 l 1,6,-1
 1055 1550 l 1,7,-1
 1065 1550 l 1,8,-1
 979 1178 l 1,9,-1
 1336 1178 l 1,10,-1
 1334 1168 l 1,11,-1
 1213 996 l 1,12,-1
 937 996 l 1,13,-1
 719 50 l 1,14,-1
 508 -40 l 1,15,-1
 498 -40 l 1,0,-1
EndSplineSet
Validated: 1
EndChar

StartChar: daggerdbl
Encoding: 8225 8225 152
Width: 1214
GlyphClass: 2
Flags: W
HStem: -40 21G<498 554.889> 332 182<350 584 826 1060> 996 182<503 737 979 1213> 1530 20G<1008.11 1065>
DStem2: 498 -40 698.222 -40 0.224951 0.97437<137.407 381.811 613.585 1063.21 1294.98 1539.39>
LayerCount: 2
Fore
SplineSet
498 -40 m 1,0,-1
 584 332 l 1,1,-1
 227 332 l 1,2,-1
 229 342 l 1,3,-1
 350 514 l 1,4,-1
 626 514 l 1,5,-1
 737 996 l 1,6,-1
 380 996 l 1,7,-1
 382 1006 l 1,8,-1
 503 1178 l 1,9,-1
 779 1178 l 1,10,-1
 844 1460 l 1,11,-1
 1055 1550 l 1,12,-1
 1065 1550 l 1,13,-1
 979 1178 l 1,14,-1
 1336 1178 l 1,15,-1
 1334 1168 l 1,16,-1
 1213 996 l 1,17,-1
 937 996 l 1,18,-1
 826 514 l 1,19,-1
 1183 514 l 1,20,-1
 1180 504 l 1,21,-1
 1060 332 l 1,22,-1
 784 332 l 1,23,-1
 719 50 l 1,24,-1
 508 -40 l 1,25,-1
 498 -40 l 1,0,-1
EndSplineSet
Validated: 1
EndChar

StartChar: bullet
Encoding: 8226 8226 153
Width: 1038
GlyphClass: 2
Flags: W
HStem: 354 800<595.084 788.385>
LayerCount: 2
Fore
SplineSet
324 757 m 0,0,1
 364 931 364 931 508 1053 c 0,2,3
 627 1154 627 1154 784 1154 c 128,-1,4
 941 1154 941 1154 1012 1054 c 0,5,6
 1073 968 1073 968 1073 856 c 0,7,8
 1073 808 1073 808 1061 754 c 0,9,10
 1018 576 1018 576 874 454 c 0,11,12
 756 354 756 354 600 354 c 0,13,14
 442 354 442 354 371 455 c 0,15,16
 311 540 311 540 311 648 c 0,17,18
 311 702 311 702 324 757 c 0,0,1
EndSplineSet
Validated: 1
EndChar

StartChar: uni2023
Encoding: 8227 8227 154
Width: 928
GlyphClass: 2
Flags: W
HStem: 1121 20G<458.404 491.907>
LayerCount: 2
Fore
SplineSet
284 362 m 1,0,-1
 463 1141 l 1,1,-1
 1005 766 l 1,2,-1
 284 362 l 1,0,-1
EndSplineSet
Validated: 1
EndChar

StartChar: onedotenleader
Encoding: 8228 8228 155
Width: 600
GlyphClass: 2
Flags: W
HStem: -20 245<248.965 397.947>
VStem: 199 249<29.3125 174.973>
LayerCount: 2
Fore
SplineSet
203 102 m 0,0,1
 215 153 215 153 258 189 c 128,-1,2
 301 225 301 225 352 225 c 128,-1,3
 403 225 403 225 429 189 c 0,4,5
 448 163 448 163 448 132 c 0,6,7
 448 120 448 120 444 102 c 0,8,9
 429 49 429 49 389 16 c 0,10,11
 345 -20 345 -20 294 -20 c 0,12,13
 244 -20 244 -20 217 17 c 0,14,15
 199 41 199 41 199 70 c 0,16,17
 199 84 199 84 203 102 c 0,0,1
EndSplineSet
Validated: 1
EndChar

StartChar: twodotenleader
Encoding: 8229 8229 156
Width: 948
GlyphClass: 2
Flags: W
HStem: -20 245<248.965 397.947 596.965 745.947>
VStem: 199 249<29.3125 174.973> 547 249<29.3125 174.973>
LayerCount: 2
Fore
SplineSet
551 102 m 0,0,1
 563 153 563 153 606 189 c 128,-1,2
 649 225 649 225 700 225 c 128,-1,3
 751 225 751 225 777 189 c 0,4,5
 796 163 796 163 796 132 c 0,6,7
 796 120 796 120 792 102 c 0,8,9
 777 49 777 49 737 16 c 0,10,11
 693 -20 693 -20 642 -20 c 0,12,13
 592 -20 592 -20 565 17 c 0,14,15
 547 41 547 41 547 70 c 0,16,17
 547 84 547 84 551 102 c 0,0,1
203 102 m 0,18,19
 215 153 215 153 258 189 c 128,-1,20
 301 225 301 225 352 225 c 128,-1,21
 403 225 403 225 429 189 c 0,22,23
 448 163 448 163 448 132 c 0,24,25
 448 120 448 120 444 102 c 0,26,27
 429 49 429 49 389 16 c 0,28,29
 345 -20 345 -20 294 -20 c 0,30,31
 244 -20 244 -20 217 17 c 0,32,33
 199 41 199 41 199 70 c 0,34,35
 199 84 199 84 203 102 c 0,18,19
EndSplineSet
Validated: 1
EndChar

StartChar: ellipsis
Encoding: 8230 8230 157
Width: 1296
GlyphClass: 2
Flags: W
HStem: -20 245<248.965 397.947 596.965 745.947 944.965 1093.95>
VStem: 199 249<29.3125 174.973> 547 249<29.3125 174.973> 895 249<29.3125 174.973>
CounterMasks: 1 70
LayerCount: 2
Fore
SplineSet
899 102 m 0,0,1
 911 153 911 153 954 189 c 128,-1,2
 997 225 997 225 1048 225 c 128,-1,3
 1099 225 1099 225 1125 189 c 0,4,5
 1144 163 1144 163 1144 132 c 0,6,7
 1144 120 1144 120 1140 102 c 0,8,9
 1125 49 1125 49 1085 16 c 0,10,11
 1041 -20 1041 -20 990 -20 c 0,12,13
 940 -20 940 -20 913 17 c 0,14,15
 895 41 895 41 895 70 c 0,16,17
 895 84 895 84 899 102 c 0,0,1
551 102 m 0,18,19
 563 153 563 153 606 189 c 128,-1,20
 649 225 649 225 700 225 c 128,-1,21
 751 225 751 225 777 189 c 0,22,23
 796 163 796 163 796 132 c 0,24,25
 796 120 796 120 792 102 c 0,26,27
 777 49 777 49 737 16 c 0,28,29
 693 -20 693 -20 642 -20 c 0,30,31
 592 -20 592 -20 565 17 c 0,32,33
 547 41 547 41 547 70 c 0,34,35
 547 84 547 84 551 102 c 0,18,19
203 102 m 0,36,37
 215 153 215 153 258 189 c 128,-1,38
 301 225 301 225 352 225 c 128,-1,39
 403 225 403 225 429 189 c 0,40,41
 448 163 448 163 448 132 c 0,42,43
 448 120 448 120 444 102 c 0,44,45
 429 49 429 49 389 16 c 0,46,47
 345 -20 345 -20 294 -20 c 0,48,49
 244 -20 244 -20 217 17 c 0,50,51
 199 41 199 41 199 70 c 0,52,53
 199 84 199 84 203 102 c 0,36,37
EndSplineSet
Validated: 1
EndChar

StartChar: uni2027
Encoding: 8231 8231 158
Width: 600
GlyphClass: 2
Flags: W
HStem: 631 245<399.965 548.947>
VStem: 350 249<680.312 825.973>
LayerCount: 2
Fore
SplineSet
354 753 m 0,0,1
 366 804 366 804 409 840 c 128,-1,2
 452 876 452 876 503 876 c 128,-1,3
 554 876 554 876 580 840 c 0,4,5
 599 814 599 814 599 783 c 0,6,7
 599 771 599 771 595 753 c 0,8,9
 580 700 580 700 540 667 c 0,10,11
 496 631 496 631 445 631 c 0,12,13
 395 631 395 631 368 668 c 0,14,15
 350 692 350 692 350 721 c 0,16,17
 350 735 350 735 354 753 c 0,0,1
EndSplineSet
Validated: 1
EndChar

StartChar: perthousand
Encoding: 8240 8240 159
Width: 2845
GlyphClass: 2
Flags: W
HStem: -40 21G<695.941 756.929> -20 147<1466.96 1679.98 2259.96 2472.98> 633 147<1561.09 1774.18 2354.09 2567.18> 730 147<625.961 838.976> 1383 147<720.091 933.182> 1530 20G<1654.06 1714.76>
VStem: 399 195<919.018 1222.33> 965 196<1033.89 1339.31> 1240 195<169.018 472.326> 1806 196<283.891 589.309> 2033 195<169.018 472.326> 2599 196<283.891 589.309>
DStem2: 607 28 743 -40 0.57187 0.820345<21.9908 1855.32>
LayerCount: 2
Fore
SplineSet
2586 380 m 0,0,1
 2599 436 2599 436 2599 480 c 0,2,3
 2599 539 2599 539 2576 577 c 0,4,5
 2542 633 2542 633 2472 633 c 128,-1,6
 2402 633 2402 633 2345 580 c 0,7,8
 2272 511 2272 511 2241 380 c 0,9,10
 2228 324 2228 324 2228 280 c 0,11,12
 2228 219 2228 219 2253 180 c 0,13,14
 2287 127 2287 127 2355 127 c 0,15,16
 2427 127 2427 127 2484 181 c 0,17,18
 2555 248 2555 248 2586 380 c 0,0,1
2046 383 m 0,19,20
 2086 557 2086 557 2230 679 c 0,21,22
 2349 780 2349 780 2506 780 c 128,-1,23
 2663 780 2663 780 2734 680 c 0,24,25
 2795 594 2795 594 2795 482 c 0,26,27
 2795 434 2795 434 2783 380 c 0,28,29
 2740 202 2740 202 2596 80 c 0,30,31
 2478 -20 2478 -20 2322 -20 c 0,32,33
 2164 -20 2164 -20 2093 81 c 0,34,35
 2033 166 2033 166 2033 274 c 0,36,37
 2033 328 2033 328 2046 383 c 0,19,20
1793 380 m 0,38,39
 1806 436 1806 436 1806 480 c 0,40,41
 1806 539 1806 539 1783 577 c 0,42,43
 1749 633 1749 633 1679 633 c 128,-1,44
 1609 633 1609 633 1552 580 c 0,45,46
 1479 511 1479 511 1448 380 c 0,47,48
 1435 324 1435 324 1435 280 c 0,49,50
 1435 219 1435 219 1460 180 c 0,51,52
 1494 127 1494 127 1562 127 c 0,53,54
 1634 127 1634 127 1691 181 c 0,55,56
 1762 248 1762 248 1793 380 c 0,38,39
1253 383 m 0,57,58
 1293 557 1293 557 1437 679 c 0,59,60
 1556 780 1556 780 1713 780 c 128,-1,61
 1870 780 1870 780 1941 680 c 0,62,63
 2002 594 2002 594 2002 482 c 0,64,65
 2002 434 2002 434 1990 380 c 0,66,67
 1947 202 1947 202 1803 80 c 0,68,69
 1685 -20 1685 -20 1529 -20 c 0,70,71
 1371 -20 1371 -20 1300 81 c 0,72,73
 1240 166 1240 166 1240 274 c 0,74,75
 1240 328 1240 328 1253 383 c 0,57,58
952 1130 m 0,76,77
 965 1186 965 1186 965 1230 c 0,78,79
 965 1289 965 1289 942 1327 c 0,80,81
 908 1383 908 1383 838 1383 c 128,-1,82
 768 1383 768 1383 711 1330 c 0,83,84
 638 1261 638 1261 607 1130 c 0,85,86
 594 1074 594 1074 594 1030 c 0,87,88
 594 969 594 969 619 930 c 0,89,90
 653 877 653 877 721 877 c 0,91,92
 793 877 793 877 850 931 c 0,93,94
 921 998 921 998 952 1130 c 0,76,77
412 1133 m 0,95,96
 452 1307 452 1307 596 1429 c 0,97,98
 715 1530 715 1530 872 1530 c 128,-1,99
 1029 1530 1029 1530 1100 1430 c 0,100,101
 1161 1344 1161 1344 1161 1232 c 0,102,103
 1161 1184 1161 1184 1149 1130 c 0,104,105
 1106 952 1106 952 962 830 c 0,106,107
 844 730 844 730 688 730 c 0,108,109
 530 730 530 730 459 831 c 0,110,111
 399 916 399 916 399 1024 c 0,112,113
 399 1078 399 1078 412 1133 c 0,95,96
733 -40 m 1,114,-1
 607 28 l 1,115,-1
 1668 1550 l 1,116,-1
 1678 1550 l 1,117,-1
 1803 1482 l 1,118,-1
 743 -40 l 1,119,-1
 733 -40 l 1,114,-1
EndSplineSet
Validated: 1
EndChar

StartChar: minute
Encoding: 8242 8242 160
Width: 680
GlyphClass: 2
Flags: W
HStem: 1059 491
VStem: 407 461
LayerCount: 2
Fore
SplineSet
702 1550 m 1,0,-1
 712 1550 l 1,1,-1
 868 1466 l 1,2,-1
 521 1059 l 1,3,-1
 511 1059 l 1,4,-1
 407 1114 l 1,5,-1
 702 1550 l 1,0,-1
EndSplineSet
Validated: 1
EndChar

StartChar: second
Encoding: 8243 8243 161
Width: 998
GlyphClass: 2
Flags: W
HStem: 1059 491
LayerCount: 2
Fore
SplineSet
1020 1550 m 1,0,-1
 1030 1550 l 1,1,-1
 1186 1466 l 1,2,-1
 839 1059 l 1,3,-1
 829 1059 l 1,4,-1
 725 1114 l 1,5,-1
 1020 1550 l 1,0,-1
702 1550 m 1,6,-1
 712 1550 l 1,7,-1
 868 1466 l 1,8,-1
 521 1059 l 1,9,-1
 511 1059 l 1,10,-1
 407 1114 l 1,11,-1
 702 1550 l 1,6,-1
EndSplineSet
Validated: 1
EndChar

StartChar: uni2034
Encoding: 8244 8244 162
Width: 1316
GlyphClass: 2
Flags: W
HStem: 1059 491
LayerCount: 2
Fore
SplineSet
1338 1550 m 1,0,-1
 1348 1550 l 1,1,-1
 1504 1466 l 1,2,-1
 1157 1059 l 1,3,-1
 1147 1059 l 1,4,-1
 1043 1114 l 1,5,-1
 1338 1550 l 1,0,-1
1020 1550 m 1,6,-1
 1030 1550 l 1,7,-1
 1186 1466 l 1,8,-1
 839 1059 l 1,9,-1
 829 1059 l 1,10,-1
 725 1114 l 1,11,-1
 1020 1550 l 1,6,-1
702 1550 m 1,12,-1
 712 1550 l 1,13,-1
 868 1466 l 1,14,-1
 521 1059 l 1,15,-1
 511 1059 l 1,16,-1
 407 1114 l 1,17,-1
 702 1550 l 1,12,-1
EndSplineSet
Validated: 1
EndChar

StartChar: uni2035
Encoding: 8245 8245 163
Width: 680
GlyphClass: 2
Flags: W
HStem: 1059 491
VStem: 488 299
LayerCount: 2
Fore
SplineSet
684 1550 m 1,0,-1
 694 1550 l 1,1,-1
 787 1114 l 1,2,-1
 657 1059 l 1,3,-1
 647 1059 l 1,4,-1
 488 1466 l 1,5,-1
 684 1550 l 1,0,-1
EndSplineSet
Validated: 1
EndChar

StartChar: uni2036
Encoding: 8246 8246 164
Width: 998
GlyphClass: 2
Flags: W
HStem: 1059 491
VStem: 488 617
LayerCount: 2
Fore
SplineSet
684 1550 m 1,0,-1
 694 1550 l 1,1,-1
 787 1114 l 1,2,-1
 657 1059 l 1,3,-1
 647 1059 l 1,4,-1
 488 1466 l 1,5,-1
 684 1550 l 1,0,-1
1002 1550 m 1,6,-1
 1012 1550 l 1,7,-1
 1105 1114 l 1,8,-1
 975 1059 l 1,9,-1
 965 1059 l 1,10,-1
 806 1466 l 1,11,-1
 1002 1550 l 1,6,-1
EndSplineSet
Validated: 1
EndChar

StartChar: uni2037
Encoding: 8247 8247 165
Width: 1316
GlyphClass: 2
Flags: W
HStem: 1059 491
LayerCount: 2
Fore
SplineSet
684 1550 m 1,0,-1
 694 1550 l 1,1,-1
 787 1114 l 1,2,-1
 657 1059 l 1,3,-1
 647 1059 l 1,4,-1
 488 1466 l 1,5,-1
 684 1550 l 1,0,-1
1002 1550 m 1,6,-1
 1012 1550 l 1,7,-1
 1105 1114 l 1,8,-1
 975 1059 l 1,9,-1
 965 1059 l 1,10,-1
 806 1466 l 1,11,-1
 1002 1550 l 1,6,-1
1320 1550 m 1,12,-1
 1330 1550 l 1,13,-1
 1423 1114 l 1,14,-1
 1293 1059 l 1,15,-1
 1283 1059 l 1,16,-1
 1124 1466 l 1,17,-1
 1320 1550 l 1,12,-1
EndSplineSet
Validated: 1
EndChar

StartChar: guilsinglleft
Encoding: 8249 8249 166
Width: 823
GlyphClass: 2
Flags: W
VStem: 333 568
DStem2: 565 795 333 792 0.339265 -0.940691<0 434.615> 333 792 565 795 0.632723 0.774378<149.115 635.349>
LayerCount: 2
Fore
SplineSet
509 304 m 1,0,-1
 333 792 l 1,1,-1
 735 1284 l 1,2,-1
 745 1284 l 1,3,-1
 901 1202 l 1,4,-1
 565 795 l 1,5,-1
 712 386 l 1,6,-1
 519 304 l 1,7,-1
 509 304 l 1,0,-1
EndSplineSet
Validated: 1
EndChar

StartChar: guilsinglright
Encoding: 8250 8250 167
Width: 823
GlyphClass: 2
Flags: W
VStem: 289 567
DStem2: 289 386 454 304 0.635818 0.771839<41.6192 529.953> 680 1284 478 1202 0.336821 -0.941569<9.17073 442.239>
LayerCount: 2
Fore
SplineSet
444 304 m 1,0,-1
 289 386 l 1,1,-1
 626 795 l 1,2,-1
 478 1202 l 1,3,-1
 670 1284 l 1,4,-1
 680 1284 l 1,5,-1
 856 792 l 1,6,-1
 454 304 l 1,7,-1
 444 304 l 1,0,-1
EndSplineSet
Validated: 1
EndChar

StartChar: uni2043
Encoding: 8259 8259 168
Width: 1183
GlyphClass: 2
Flags: W
DStem2: 292 613 426 496 0.890915 0.45417<66.2446 306.405 677.106 917.266> 549 1030 361 913 0.832255 -0.554393<0 177.984 480.925 659.741> 571 306 752.3 306 0.224951 0.97437<123.914 306.858 672.122 854.841>
LayerCount: 2
Fore
SplineSet
571 306 m 1,0,-1
 640 605 l 1,1,-1
 426 496 l 1,2,-1
 295 605 l 1,3,-1
 292 613 l 1,4,-1
 585 763 l 1,5,-1
 361 913 l 1,6,-1
 368 921 l 1,7,-1
 549 1030 l 1,8,-1
 713 921 l 1,9,-1
 763 1139 l 1,10,-1
 954 1220 l 1,11,-1
 964 1220 l 1,12,-1
 895 921 l 1,13,-1
 1109 1030 l 1,14,-1
 1241 921 l 1,15,-1
 1244 913 l 1,16,-1
 949 763 l 1,17,-1
 1175 613 l 1,18,-1
 1168 605 l 1,19,-1
 986 496 l 1,20,-1
 822 605 l 1,21,-1
 771 387 l 1,22,-1
 581 306 l 1,23,-1
 571 306 l 1,0,-1
EndSplineSet
Validated: 1
EndChar

StartChar: fraction
Encoding: 8260 8260 169
Width: 974
GlyphClass: 2
Flags: W
DStem2: -7 -72 129 -140 0.571734 0.820439<21.966 2098.88>
LayerCount: 2
Fore
SplineSet
-7 -72 m 1,0,-1
 1193 1650 l 1,1,-1
 1203 1650 l 1,2,-1
 1329 1582 l 1,3,-1
 129 -140 l 1,4,-1
 119 -140 l 1,5,-1
 -7 -72 l 1,0,-1
EndSplineSet
Validated: 1
EndChar

StartChar: Euro
Encoding: 8364 8364 170
Width: 1582
GlyphClass: 2
Flags: W
HStem: -20 170<793.755 1093.46> 507 182<390 474 696 1100> 828 182<464 529 792 1174> 1360 170<1049.95 1351.03>
VStem: 473 201<288.016 507> 496 200<689 826.629>
LayerCount: 2
Fore
SplineSet
1223 689 m 1,0,-1
 1221 679 l 1,1,-1
 1100 507 l 1,2,-1
 674 507 l 1,3,4
 674 498 674 498 674 488 c 0,5,6
 674 421 674 421 688 366 c 0,7,8
 748 150 748 150 933 150 c 128,-1,9
 1118 150 1118 150 1276 366 c 1,10,-1
 1531 474 l 1,11,-1
 1541 474 l 1,12,13
 1501 380 1501 380 1430 288 c 0,14,15
 1193 -20 1193 -20 893 -20 c 0,16,17
 595 -20 595 -20 498 288 c 0,18,19
 473 367 473 367 473 471 c 0,20,21
 473 490 473 490 474 507 c 1,22,-1
 267 507 l 1,23,-1
 269 517 l 1,24,-1
 390 689 l 1,25,-1
 496 689 l 1,26,27
 503 727 503 727 510 755 c 0,28,29
 522 804 522 804 529 828 c 1,30,-1
 341 828 l 1,31,-1
 343 838 l 1,32,-1
 464 1010 l 1,33,-1
 592 1010 l 1,34,35
 644 1131 644 1131 714 1222 c 0,36,37
 951 1530 951 1530 1251 1530 c 0,38,39
 1550 1530 1550 1530 1646 1222 c 1,40,-1
 1466 1144 l 1,41,-1
 1456 1144 l 1,42,43
 1398 1360 1398 1360 1212 1360 c 0,44,45
 1023 1360 1023 1360 868 1144 c 0,46,47
 827 1087 827 1087 792 1010 c 1,48,-1
 1297 1010 l 1,49,-1
 1295 1000 l 1,50,-1
 1174 828 l 1,51,-1
 729 828 l 1,52,53
 716 784 716 784 710 755 c 0,54,55
 702 719 702 719 696 689 c 1,56,-1
 1223 689 l 1,0,-1
EndSplineSet
Validated: 1
EndChar

StartChar: afii61248
Encoding: 8453 8453 171
Width: 1729
GlyphClass: 2
Flags: W
HStem: -40 21G<527.941 588.929> -20 134<1220.6 1400.75> 670 134<1327.25 1507.4> 706 136<571.802 753.815> 1396 134<679.249 863.089> 1530 20G<1486.06 1546.76>
VStem: 391 152<867.891 1208.34> 1039 152<142.791 481.575> 1537 152<300.902 641.209>
DStem2: 439 28 575 -40 0.57187 0.820345<21.9908 1855.32>
LayerCount: 2
Fore
SplineSet
1269 -20 m 128,-1,1
 1106 -20 1106 -20 1053 148 c 0,2,3
 1039 192 1039 192 1039 247 c 0,4,5
 1039 313 1039 313 1058 393 c 0,6,7
 1094 547 1094 547 1166 638 c 0,8,9
 1296 804 1296 804 1459 804 c 128,-1,10
 1622 804 1622 804 1675 636 c 0,11,12
 1689 592 1689 592 1689 537 c 0,13,14
 1689 471 1689 471 1670 391 c 0,15,16
 1634 237 1634 237 1562 146 c 0,17,0
 1432 -20 1432 -20 1269 -20 c 128,-1,1
1296 114 m 24,18,19
 1375 114 1375 114 1446 208 c 0,20,21
 1495 273 1495 273 1520 391 c 0,22,23
 1537 471 1537 471 1537 519 c 0,24,25
 1537 556 1537 556 1531 574 c 0,26,27
 1502 670 1502 670 1432 670 c 24,28,29
 1353 670 1353 670 1282 576 c 0,30,31
 1235 514 1235 514 1208 393 c 0,32,33
 1191 315 1191 315 1191 265 c 0,34,35
 1191 231 1191 231 1197 210 c 0,36,37
 1226 114 1226 114 1296 114 c 24,18,19
982 996 m 1,38,39
 955 926 955 926 914 870 c 0,40,41
 795 706 795 706 621 706 c 0,42,43
 458 706 458 706 405 874 c 0,44,45
 391 918 391 918 391 973 c 0,46,47
 391 1039 391 1039 410 1119 c 0,48,49
 446 1273 446 1273 518 1364 c 0,50,51
 648 1530 648 1530 811 1530 c 0,52,53
 986 1530 986 1530 1035 1341 c 1,54,-1
 913 1288 l 1,55,-1
 887 1288 l 1,56,57
 865 1396 865 1396 784 1396 c 0,58,59
 705 1396 705 1396 634 1302 c 0,60,61
 587 1240 587 1240 560 1119 c 0,62,63
 543 1043 543 1043 543 991 c 0,64,65
 543 960 543 960 549 936 c 0,66,67
 576 842 576 842 654 842 c 0,68,69
 728 842 728 842 799 936 c 1,70,-1
 941 996 l 1,71,-1
 982 996 l 1,38,39
565 -40 m 1,72,-1
 439 28 l 1,73,-1
 1500 1550 l 1,74,-1
 1510 1550 l 1,75,-1
 1635 1482 l 1,76,-1
 575 -40 l 1,77,-1
 565 -40 l 1,72,-1
EndSplineSet
Validated: 1
EndChar

StartChar: afii61289
Encoding: 8467 8467 172
Width: 1108
GlyphClass: 2
Flags: W
HStem: -20 136<532.441 707.717> 0 21G<150 368.531> 1511 20G<1064.5 1148.5>
LayerCount: 2
Fore
SplineSet
695 672 m 1,0,1
 776 776 776 776 885 982 c 0,2,3
 1005 1210 1005 1210 1050 1389 c 1,4,5
 978 1303 978 1303 869 1100 c 0,6,7
 738 856 738 856 695 672 c 1,0,1
150 0 m 1,8,9
 284 146 284 146 408 296 c 1,10,11
 415 361 415 361 435 444 c 0,12,13
 471 598 471 598 530 733 c 0,14,15
 794 1338 794 1338 909 1443 c 0,16,17
 1006 1531 1006 1531 1123 1531 c 0,18,19
 1174 1531 1174 1531 1206 1498 c 1,20,21
 1229 1475 1229 1475 1229 1425 c 0,22,23
 1229 1389 1229 1389 1217 1338 c 0,24,25
 1195 1244 1195 1244 1130 1092 c 0,26,27
 984 748 984 748 585 272 c 1,28,29
 585 264 585 264 585 257 c 0,30,31
 585 117 585 117 638 116 c 0,32,33
 657 116 657 116 685 140 c 0,34,35
 725 174 725 174 769 228 c 1,36,-1
 945 228 l 1,37,38
 836 98 836 98 760 40 c 0,39,40
 681 -20 681 -20 597 -20 c 0,41,42
 469 -20 469 -20 422 81 c 1,43,-1
 351 0 l 1,44,-1
 150 0 l 1,8,9
EndSplineSet
Validated: 1
EndChar

StartChar: trademark
Encoding: 8482 8482 173
Width: 1926
GlyphClass: 2
Flags: W
HStem: 705 111<1620 1675.46> 1395 135<594.918 691 841 1008 1171.99 1368.98 1631.93 1831.22>
VStem: 895 150<878.566 1215.95> 1854 152<1038.23 1378.18>
DStem2: 532 705 681.533 705 0.224951 0.97437<89.0581 708.083> 1278 705 1427.53 705 0.224951 0.97437<89.0581 561.157>
LayerCount: 2
Fore
SplineSet
1060 705 m 1,0,1
 951 744 951 744 908 882 c 0,2,3
 895 924 895 924 895 979 c 0,4,5
 896 1047 896 1047 914 1128 c 0,6,7
 947 1277 947 1277 1021 1373 c 0,8,9
 1149 1540 1149 1540 1315 1540 c 0,10,11
 1457 1540 1457 1540 1516 1412 c 1,12,13
 1634 1540 1634 1540 1777 1540 c 0,14,15
 1943 1540 1943 1540 1993 1373 c 0,16,17
 2006 1330 2006 1330 2006 1276 c 0,18,19
 2005 1208 2005 1208 1987 1128 c 0,20,21
 1952 975 1952 975 1880 882 c 0,22,23
 1775 747 1775 747 1645 705 c 1,24,-1
 1620 705 l 1,25,-1
 1589 816 l 1,26,27
 1697 854 1697 854 1763 944 c 0,28,29
 1810 1008 1810 1008 1837 1128 c 0,30,31
 1854 1203 1854 1203 1854 1255 c 0,32,33
 1855 1286 1855 1286 1848 1311 c 0,34,35
 1822 1405 1822 1405 1745 1405 c 0,36,37
 1662 1405 1662 1405 1599 1311 c 0,38,39
 1551 1239 1551 1239 1525 1128 c 2,40,-1
 1440 759 l 1,41,-1
 1313 705 l 1,42,-1
 1278 705 l 1,43,-1
 1375 1128 l 2,44,45
 1393 1204 1393 1204 1393 1256 c 0,46,47
 1393 1288 1393 1288 1386 1311 c 0,48,49
 1357 1405 1357 1405 1283 1405 c 0,50,51
 1205 1405 1205 1405 1137 1311 c 0,52,53
 1090 1246 1090 1246 1063 1128 c 0,54,55
 1045 1049 1045 1049 1045 998 c 0,56,57
 1044 966 1044 966 1052 944 c 0,58,59
 1081 865 1081 865 1166 816 c 1,60,-1
 1085 705 l 1,61,-1
 1060 705 l 1,0,1
532 705 m 1,62,-1
 691 1395 l 1,63,-1
 656 1395 l 2,64,65
 612 1395 612 1395 587 1336 c 9,66,-1
 557 1336 l 25,67,-1
 469 1383 l 17,68,69
 540 1530 540 1530 687 1530 c 2,70,-1
 1086 1530 l 1,71,-1
 1078 1494 l 1,72,-1
 1008 1395 l 1,73,-1
 841 1395 l 1,74,-1
 694 759 l 1,75,-1
 567 705 l 1,76,-1
 532 705 l 1,62,-1
EndSplineSet
Validated: 1
EndChar

StartChar: uni2126
Encoding: 8486 8486 174
Width: 1474
GlyphClass: 2
Flags: W
HStem: 0 170<349.719 507 1045 1225.21> 1364 166<881.96 1203.05>
VStem: 348 205<491.83 946.182> 1326 203<814.702 1229.81>
LayerCount: 2
Fore
SplineSet
630 0 m 25,0,-1
 408 0 l 2,1,2
 160 0 160 0 150 216 c 1,3,-1
 316 287 l 1,4,-1
 326 287 l 1,5,6
 331 170 331 170 447 170 c 2,7,-1
 507 170 l 17,8,-1
 530 267 l 17,9,10
 348 394 348 394 348 658 c 0,11,12
 349 767 349 767 379 898 c 0,13,14
 429 1118 429 1118 597 1297 c 0,15,16
 815 1530 815 1530 1090 1530 c 0,17,18
 1361 1530 1361 1530 1475 1297 c 0,19,20
 1529 1187 1529 1187 1529 1059 c 0,21,22
 1528 981 1528 981 1509 898 c 0,23,24
 1405 445 1405 445 1068 267 c 9,25,-1
 1045 170 l 9,26,-1
 1105 170 l 2,27,28
 1221 170 1221 170 1280 287 c 1,29,-1
 1290 287 l 1,30,-1
 1424 216 l 1,31,32
 1314 0 1314 0 1066 0 c 2,33,-1
 844 0 l 25,34,-1
 929 368 l 17,35,36
 1216 499 1216 499 1309 898 c 0,37,38
 1326 971 1326 971 1326 1037 c 0,39,40
 1326 1132 1326 1132 1291 1211 c 0,41,42
 1223 1364 1223 1364 1054 1364 c 0,43,44
 881 1364 881 1364 743 1211 c 0,45,46
 619 1074 619 1074 579 898 c 0,47,48
 553 784 553 784 553 692 c 0,49,50
 553 462 553 462 715 368 c 9,51,-1
 630 0 l 25,0,-1
EndSplineSet
Validated: 1
EndChar

StartChar: estimated
Encoding: 8494 8494 175
Width: 1358
GlyphClass: 2
Flags: W
HStem: -15 73<525.61 875.25> 550 74<525 1121> 1042 73<736.953 1083.63>
VStem: 258 1094<393 711>
LayerCount: 2
Fore
SplineSet
508 550 m 1,0,-1
 422 179 l 1,1,2
 514 58 514 58 692 58 c 0,3,4
 946 58 946 58 1144 304 c 1,5,-1
 1206 261 l 1,6,7
 1045 87 1045 87 922 36 c 128,-1,8
 799 -15 799 -15 676 -15 c 0,9,10
 439 -15 439 -15 330 145 c 0,11,12
 258 251 258 251 258 393 c 0,13,14
 258 466 258 466 277 550 c 0,15,16
 336 797 336 797 518 956 c 128,-1,17
 700 1115 700 1115 936 1115 c 0,18,19
 1149 1115 1149 1115 1269 973 c 0,20,21
 1352 875 1352 875 1352 711 c 0,22,23
 1352 637 1352 637 1335 550 c 1,24,-1
 508 550 l 1,0,-1
1121 624 m 1,25,-1
 1190 921 l 1,26,27
 1090 1042 1090 1042 918 1042 c 0,28,29
 743 1042 743 1042 593 920 c 1,30,-1
 525 624 l 1,31,-1
 1121 624 l 1,25,-1
EndSplineSet
Validated: 1
EndChar

StartChar: partialdiff
Encoding: 8706 8706 176
Width: 1267
GlyphClass: 2
Flags: W
HStem: 0 92<432.16 617.77> 883 84<848.31 1096.84> 1427 83<942.623 1110.63>
VStem: 216 204<101.992 407.247> 1146 173<969.979 1367.21>
LayerCount: 2
Fore
SplineSet
458 0 m 0,0,1
 322 0 322 0 257 91 c 0,2,3
 216 148 216 148 216 235 c 0,4,5
 216 286 216 286 230 347 c 0,6,7
 278 557 278 557 472 734 c 0,8,9
 727 967 727 967 1004 967 c 24,10,11
 1039 967 1039 967 1109 965 c 1,12,13
 1146 1125 1146 1125 1146 1201 c 0,14,15
 1146 1214 1146 1214 1146 1227 c 0,16,17
 1146 1312 1146 1312 1121 1369 c 0,18,19
 1094 1427 1094 1427 1040 1427 c 0,20,21
 973 1427 973 1427 904 1347 c 0,22,23
 852 1287 852 1287 786 1157 c 1,24,-1
 665 1217 l 1,25,26
 770 1371 770 1371 885 1442 c 0,27,28
 995 1510 995 1510 1093 1510 c 0,29,30
 1226 1510 1226 1510 1288 1371 c 0,31,32
 1319 1301 1319 1301 1319 1197 c 128,-1,33
 1319 1093 1319 1093 1287 951 c 0,34,35
 1221 668 1221 668 1081 438 c 0,36,37
 949 219 949 219 770 107 c 0,38,39
 599 0 599 0 458 0 c 0,0,1
509 92 m 0,40,41
 584 92 584 92 680 189 c 0,42,43
 760 270 760 270 857 393 c 0,44,45
 984 556 984 556 1088 867 c 1,46,47
 1052 883 1052 883 978 883 c 0,48,49
 870 883 870 883 731 755 c 0,50,51
 638 669 638 669 570 581 c 0,52,53
 465 445 465 445 439 333 c 0,54,55
 420 251 420 251 420 201 c 0,56,57
 420 188 420 188 421 177 c 0,58,59
 429 94 429 94 509 92 c 0,40,41
EndSplineSet
Validated: 1
EndChar

StartChar: uni2206
Encoding: 8710 8710 177
Width: 1138
GlyphClass: 2
Flags: W
HStem: 0 170<282 929.934> 1530 20G<950.171 1008.94>
DStem2: 223 435 282 170 0.478852 0.877896<-200.776 985.957> 1007 1550 852 1215 0.0964098 -0.995342<318.496 1120.22 1310.68 1366.22>
LayerCount: 2
Fore
SplineSet
243 0 m 2,0,1
 77 0 77 0 77 99 c 0,2,3
 77 115 77 115 81 134 c 0,4,5
 100 222 100 222 223 435 c 1,6,-1
 805 1468 l 1,7,-1
 997 1550 l 1,8,-1
 1007 1550 l 1,9,-1
 1115 435 l 1,10,11
 1129 324 1129 324 1129 245 c 0,12,13
 1129 178 1129 178 1119 134 c 0,14,15
 1089 0 1089 0 895 0 c 2,16,-1
 243 0 l 2,0,1
282 170 m 9,17,-1
 931 170 l 17,18,-1
 852 1215 l 1,19,-1
 282 170 l 9,17,-1
EndSplineSet
Validated: 1
EndChar

StartChar: product
Encoding: 8719 8719 178
Width: 1390
GlyphClass: 2
Flags: W
HStem: -450 21G<96 152.889 886 942.889> 1340 170<699.195 1289>
DStem2: 96 -450 296.222 -450 0.224951 0.97437<137.407 1891.57> 886 -450 1086.22 -450 0.224951 0.97437<137.407 1826.71>
LayerCount: 2
Fore
SplineSet
96 -450 m 1,0,-1
 499 1296 l 2,1,2
 549 1510 549 1510 799 1510 c 2,3,-1
 1289 1510 l 2,4,5
 1497 1510 1497 1510 1497 1361 c 0,6,7
 1497 1332 1497 1332 1489 1296 c 2,8,-1
 1107 -360 l 1,9,-1
 896 -450 l 1,10,-1
 886 -450 l 1,11,-1
 1289 1296 l 2,12,13
 1299 1340 1299 1340 1249 1340 c 2,14,-1
 759 1340 l 2,15,16
 709 1340 709 1340 699 1296 c 2,17,-1
 317 -360 l 1,18,-1
 106 -450 l 1,19,-1
 96 -450 l 1,0,-1
EndSplineSet
Validated: 1
EndChar

StartChar: summation
Encoding: 8721 8721 179
Width: 1168
GlyphClass: 2
Flags: W
HStem: -410 170<288 875.427> 1340 170<688.896 1177>
DStem2: 224 -41 288 -240 0.619245 0.785198<-115.621 809.794> 684 1340 532 1146 0.323391 -0.946265<2.28689 716.957>
LayerCount: 2
Fore
SplineSet
248 -410 m 2,0,1
 81 -410 81 -410 81 -312 c 0,2,3
 82 -296 82 -296 86 -277 c 0,4,5
 106 -184 106 -184 224 -41 c 1,6,-1
 724 596 l 1,7,-1
 532 1146 l 1,8,9
 494 1249 494 1249 494 1323 c 0,10,11
 495 1353 495 1353 500 1376 c 0,12,13
 529 1510 529 1510 724 1510 c 2,14,-1
 1292 1510 l 17,15,-1
 1289 1500 l 1,16,-1
 1177 1340 l 9,17,-1
 684 1340 l 17,18,-1
 941 588 l 1,19,-1
 288 -240 l 9,20,-1
 755 -240 l 2,21,22
 873 -240 873 -240 930 -123 c 1,23,-1
 940 -123 l 1,24,-1
 1073 -194 l 1,25,26
 963 -410 963 -410 715 -410 c 2,27,-1
 248 -410 l 2,0,1
EndSplineSet
Validated: 1
EndChar

StartChar: minus
Encoding: 8722 8722 180
Width: 1214
GlyphClass: 2
Flags: W
HStem: 664 182<426 1136>
LayerCount: 2
Fore
SplineSet
303 664 m 1,0,-1
 306 674 l 1,1,-1
 426 846 l 1,2,-1
 1259 846 l 1,3,-1
 1257 836 l 1,4,-1
 1136 664 l 1,5,-1
 303 664 l 1,0,-1
EndSplineSet
Validated: 1
EndChar

StartChar: uni2215
Encoding: 8725 8725 181
Width: 974
GlyphClass: 2
Flags: W
DStem2: -7 -72 129 -140 0.571734 0.820439<21.966 2098.88>
LayerCount: 2
Fore
SplineSet
-7 -72 m 1,0,-1
 1193 1650 l 1,1,-1
 1203 1650 l 1,2,-1
 1329 1582 l 1,3,-1
 129 -140 l 1,4,-1
 119 -140 l 1,5,-1
 -7 -72 l 1,0,-1
EndSplineSet
Validated: 1
EndChar

StartChar: asteriskmath
Encoding: 8727 8727 182
Width: 1183
GlyphClass: 2
Flags: W
DStem2: 292 613 426 496 0.890915 0.45417<66.2446 306.405 677.106 917.266> 549 1030 361 913 0.832255 -0.554393<0 177.984 480.925 659.741> 571 306 752.3 306 0.224951 0.97437<123.914 306.858 672.122 854.841>
LayerCount: 2
Fore
SplineSet
571 306 m 1,0,-1
 640 605 l 1,1,-1
 426 496 l 1,2,-1
 295 605 l 1,3,-1
 292 613 l 1,4,-1
 585 763 l 1,5,-1
 361 913 l 1,6,-1
 368 921 l 1,7,-1
 549 1030 l 1,8,-1
 713 921 l 1,9,-1
 763 1139 l 1,10,-1
 954 1220 l 1,11,-1
 964 1220 l 1,12,-1
 895 921 l 1,13,-1
 1109 1030 l 1,14,-1
 1241 921 l 1,15,-1
 1244 913 l 1,16,-1
 949 763 l 1,17,-1
 1175 613 l 1,18,-1
 1168 605 l 1,19,-1
 986 496 l 1,20,-1
 822 605 l 1,21,-1
 771 387 l 1,22,-1
 581 306 l 1,23,-1
 571 306 l 1,0,-1
EndSplineSet
Validated: 1
EndChar

StartChar: uni2218
Encoding: 8728 8728 183
Width: 1038
GlyphClass: 2
Flags: W
HStem: 354 147<537.961 750.976> 1007 147<632.091 845.182>
VStem: 311 195<543.018 846.326> 877 196<657.891 963.309>
LayerCount: 2
Fore
SplineSet
864 754 m 4,0,1
 877 810 877 810 877 854 c 4,2,3
 877 913 877 913 854 951 c 4,4,5
 820 1007 820 1007 750 1007 c 132,-1,6
 680 1007 680 1007 623 954 c 4,7,8
 550 885 550 885 519 754 c 4,9,10
 506 698 506 698 506 654 c 4,11,12
 506 593 506 593 531 554 c 4,13,14
 565 501 565 501 633 501 c 4,15,16
 705 501 705 501 762 555 c 4,17,18
 833 622 833 622 864 754 c 4,0,1
324 757 m 4,19,20
 364 931 364 931 508 1053 c 4,21,22
 627 1154 627 1154 784 1154 c 132,-1,23
 941 1154 941 1154 1012 1054 c 4,24,25
 1073 968 1073 968 1073 856 c 4,26,27
 1073 808 1073 808 1061 754 c 4,28,29
 1018 576 1018 576 874 454 c 4,30,31
 756 354 756 354 600 354 c 4,32,33
 442 354 442 354 371 455 c 4,34,35
 311 540 311 540 311 648 c 4,36,37
 311 702 311 702 324 757 c 4,19,20
EndSplineSet
Validated: 1
EndChar

StartChar: uni2219
Encoding: 8729 8729 184
Width: 600
GlyphClass: 2
Flags: W
HStem: 631 245<399.965 548.947>
VStem: 350 249<680.312 825.973>
LayerCount: 2
Fore
SplineSet
354 753 m 0,0,1
 366 804 366 804 409 840 c 128,-1,2
 452 876 452 876 503 876 c 128,-1,3
 554 876 554 876 580 840 c 0,4,5
 599 814 599 814 599 783 c 0,6,7
 599 771 599 771 595 753 c 0,8,9
 580 700 580 700 540 667 c 0,10,11
 496 631 496 631 445 631 c 0,12,13
 395 631 395 631 368 668 c 0,14,15
 350 692 350 692 350 721 c 0,16,17
 350 735 350 735 354 753 c 0,0,1
EndSplineSet
Validated: 1
EndChar

StartChar: radical
Encoding: 8730 8730 185
Width: 1452
GlyphClass: 2
Flags: W
HStem: -40 21G<503.833 562.829> 569 182<354 440> 1328 182<1485 1628>
DStem2: 631 751 440 569 0.107744 -0.994179<160.362 481.192> 668 271 708 42 0.517136 0.855903<0 1327.19>
LayerCount: 2
Fore
SplineSet
516 -40 m 5,0,-1
 506 -40 l 5,1,-1
 440 569 l 5,2,-1
 231 569 l 5,3,-1
 234 579 l 5,4,-1
 354 751 l 5,5,-1
 631 751 l 5,6,-1
 668 271 l 5,7,-1
 1406 1510 l 5,8,-1
 1751 1510 l 5,9,-1
 1748 1500 l 5,10,-1
 1628 1328 l 5,11,-1
 1485 1328 l 5,12,-1
 708 42 l 5,13,-1
 516 -40 l 5,0,-1
EndSplineSet
Validated: 1
EndChar

StartChar: uni221B
Encoding: 8731 8731 186
Width: 1452
GlyphClass: 2
Flags: W
HStem: -40 21G<503.833 562.829> 569 182<354 440> 791 121<623.456 802.325> 1328 182<1485 1628> 1388 122<709 856>
DStem2: 631 751 440 569 0.107744 -0.994179<160.362 481.192> 668 271 708 42 0.517136 0.855903<0 1327.19>
LayerCount: 2
Fore
SplineSet
471 961 m 1,0,-1
 581 1009 l 1,1,-1
 605 1009 l 1,2,3
 623 912 623 912 701 912 c 0,4,5
 754 912 754 912 795 949 c 0,6,7
 831 981 831 981 843 1033 c 0,8,9
 851 1068 851 1068 833 1095 c 0,10,11
 814 1123 814 1123 739 1123 c 1,12,-1
 682 1193 l 1,13,-1
 856 1388 l 1,14,-1
 638 1388 l 1,15,-1
 646 1421 l 1,16,-1
 709 1510 l 1,17,-1
 932 1510 l 2,18,19
 1018 1510 1018 1510 1018 1450 c 0,20,21
 1018 1439 1018 1439 1015 1425 c 0,22,23
 1006 1384 1006 1384 947 1321 c 1,24,-1
 863 1235 l 1,25,26
 910 1224 910 1224 944 1187 c 0,27,28
 985 1142 985 1142 985 1081 c 0,29,30
 985 1058 985 1058 979 1034 c 0,31,32
 952 926 952 926 872 862 c 0,33,34
 784 791 784 791 668 791 c 0,35,36
 518 791 518 791 471 961 c 1,0,-1
516 -40 m 1,37,-1
 506 -40 l 1,38,-1
 440 569 l 1,39,-1
 231 569 l 1,40,-1
 234 579 l 1,41,-1
 354 751 l 1,42,-1
 631 751 l 1,43,-1
 668 271 l 1,44,-1
 1406 1510 l 1,45,-1
 1751 1510 l 1,46,-1
 1748 1500 l 1,47,-1
 1628 1328 l 1,48,-1
 1485 1328 l 1,49,-1
 708 42 l 1,50,-1
 516 -40 l 1,37,-1
EndSplineSet
Validated: 1
EndChar

StartChar: infinity
Encoding: 8734 8734 187
Width: 1579
GlyphClass: 2
Flags: W
HStem: 354 147<538.871 750.975 1080.54 1290.57> 1007 147<633.035 845.632 1175.17 1387.44>
VStem: 310 197<543.83 849.271> 878 170<658.772 849.723> 1419 196<659.386 963.138>
LayerCount: 2
Fore
SplineSet
1406 754 m 0,0,1
 1419 810 1419 810 1419 854 c 0,2,3
 1419 912 1419 912 1396 951 c 0,4,5
 1363 1007 1363 1007 1292 1007 c 128,-1,6
 1221 1007 1221 1007 1165 954 c 0,7,8
 1091 884 1091 884 1061 754 c 0,9,10
 1048 698 1048 698 1048 654 c 0,11,12
 1048 591 1048 591 1073 554 c 0,13,14
 1108 501 1108 501 1175 501 c 0,15,16
 1247 501 1247 501 1305 557 c 0,17,18
 1375 625 1375 625 1406 754 c 0,0,1
865 754 m 0,19,20
 878 810 878 810 878 854 c 0,21,22
 878 912 878 912 855 951 c 0,23,24
 822 1007 822 1007 751 1007 c 128,-1,25
 680 1007 680 1007 624 954 c 0,26,27
 550 884 550 884 520 754 c 0,28,29
 507 698 507 698 507 654 c 0,30,31
 507 590 507 590 532 554 c 0,32,33
 567 501 567 501 634 501 c 0,34,35
 705 501 705 501 764 557 c 0,36,37
 834 624 834 624 865 754 c 0,19,20
323 757 m 0,38,39
 362 926 362 926 511 1054 c 0,40,41
 627 1154 627 1154 785 1154 c 0,42,43
 938 1154 938 1154 1013 1054 c 0,44,45
 1022 1042 1022 1042 1027 1032 c 1,46,47
 1034 1038 1034 1038 1052 1054 c 0,48,49
 1164 1154 1164 1154 1326 1154 c 0,50,51
 1484 1154 1484 1154 1554 1054 c 0,52,53
 1615 967 1615 967 1615 857 c 0,54,55
 1615 809 1615 809 1603 754 c 0,56,57
 1562 579 1562 579 1416 454 c 0,58,59
 1299 354 1299 354 1142 354 c 0,60,61
 987 354 987 354 914 454 c 0,62,63
 906 465 906 465 900 476 c 1,64,65
 895 472 895 472 875 454 c 0,66,67
 764 354 764 354 601 354 c 0,68,69
 442 354 442 354 372 452 c 0,70,71
 310 539 310 539 310 649 c 0,72,73
 310 699 310 699 323 757 c 0,38,39
EndSplineSet
Validated: 1
EndChar

StartChar: approxequal
Encoding: 8776 8776 188
Width: 1138
GlyphClass: 2
Flags: W
HStem: 397 177<791.063 941.858> 581 177<462.927 613.937> 748 177<872.063 1022.86> 932 177<543.927 694.937>
LayerCount: 2
Fore
SplineSet
242 397 m 1,0,1
 325 758 325 758 562 758 c 0,2,3
 696 758 696 758 762 657 c 0,4,5
 816 574 816 574 871 574 c 0,6,7
 943 574 943 574 966 677 c 1,8,-1
 1153 758 l 1,9,-1
 1163 758 l 1,10,11
 1080 397 1080 397 843 397 c 0,12,13
 709 397 709 397 643 498 c 0,14,15
 589 581 589 581 534 581 c 0,16,17
 462 581 462 581 438 478 c 1,18,-1
 252 397 l 1,19,-1
 242 397 l 1,0,1
323 748 m 1,20,21
 406 1109 406 1109 643 1109 c 0,22,23
 777 1109 777 1109 843 1008 c 0,24,25
 897 925 897 925 952 925 c 0,26,27
 1024 925 1024 925 1047 1028 c 1,28,-1
 1234 1109 l 1,29,-1
 1244 1109 l 1,30,31
 1161 748 1161 748 924 748 c 0,32,33
 790 748 790 748 724 849 c 0,34,35
 670 932 670 932 615 932 c 0,36,37
 543 932 543 932 519 829 c 1,38,-1
 333 748 l 1,39,-1
 323 748 l 1,20,21
EndSplineSet
Validated: 1
EndChar

StartChar: notequal
Encoding: 8800 8800 189
Width: 1214
GlyphClass: 2
Flags: W
HStem: 482 182<384 500 809 1094> 846 182<468 753 1062 1178>
DStem2: 351 268 486 200 0.571664 0.820488<21.3815 260.762 586.735 704.051 1030.02 1269.4>
LayerCount: 2
Fore
SplineSet
261 482 m 1,0,-1
 264 492 l 1,1,-1
 384 664 l 1,2,-1
 626 664 l 1,3,-1
 753 846 l 1,4,-1
 345 846 l 1,5,-1
 348 856 l 1,6,-1
 468 1028 l 1,7,-1
 880 1028 l 1,8,-1
 1076 1310 l 1,9,-1
 1086 1310 l 1,10,-1
 1212 1242 l 1,11,-1
 1062 1028 l 1,12,-1
 1301 1028 l 1,13,-1
 1299 1018 l 1,14,-1
 1178 846 l 1,15,-1
 936 846 l 1,16,-1
 809 664 l 1,17,-1
 1217 664 l 1,18,-1
 1215 654 l 1,19,-1
 1094 482 l 1,20,-1
 682 482 l 1,21,-1
 486 200 l 1,22,-1
 476 200 l 1,23,-1
 351 268 l 1,24,-1
 500 482 l 1,25,-1
 261 482 l 1,0,-1
EndSplineSet
Validated: 1
EndChar

StartChar: equivalence
Encoding: 8801 8801 190
Width: 1214
GlyphClass: 2
Flags: W
HStem: 300 182<342 1052> 664 182<426 1136> 1028 182<510 1220>
CounterMasks: 1 e0
LayerCount: 2
Fore
SplineSet
219 300 m 1,0,-1
 222 310 l 1,1,-1
 342 482 l 1,2,-1
 1175 482 l 1,3,-1
 1173 472 l 1,4,-1
 1052 300 l 1,5,-1
 219 300 l 1,0,-1
387 1028 m 1,6,-1
 390 1038 l 1,7,-1
 510 1210 l 1,8,-1
 1343 1210 l 1,9,-1
 1341 1200 l 1,10,-1
 1220 1028 l 1,11,-1
 387 1028 l 1,6,-1
303 664 m 1,12,-1
 306 674 l 1,13,-1
 426 846 l 1,14,-1
 1259 846 l 1,15,-1
 1257 836 l 1,16,-1
 1136 664 l 1,17,-1
 303 664 l 1,12,-1
EndSplineSet
Validated: 1
EndChar

StartChar: lessequal
Encoding: 8804 8804 191
Width: 1338
GlyphClass: 2
Flags: W
HStem: 191 182<317 1101>
DStem2: 666 875 335 801 0.904166 -0.427182<0 635.928> 459 984 666 875 0.932333 0.361601<153.578 941.804>
LayerCount: 2
Fore
SplineSet
335 801 m 1,0,-1
 337 811 l 1,1,-1
 459 984 l 1,2,-1
 1364 1335 l 1,3,-1
 1406 1162 l 1,4,-1
 1404 1152 l 1,5,-1
 666 875 l 1,6,-1
 1276 598 l 1,7,-1
 1274 588 l 1,8,-1
 1152 415 l 1,9,-1
 335 801 l 1,0,-1
194 191 m 1,10,-1
 196 201 l 1,11,-1
 317 373 l 1,12,-1
 1224 373 l 1,13,-1
 1222 363 l 1,14,-1
 1101 191 l 1,15,-1
 194 191 l 1,10,-1
EndSplineSet
Validated: 1
EndChar

StartChar: greaterequal
Encoding: 8805 8805 192
Width: 1338
GlyphClass: 2
Flags: W
HStem: 191 182<367 1151>
DStem2: 342 615 382 432 0.932333 0.361601<0 788.225> 594 1352 470 1169 0.904166 -0.427182<0 635.928>
LayerCount: 2
Fore
SplineSet
1411 966 m 1,0,-1
 1409 956 l 1,1,-1
 1287 783 l 1,2,-1
 382 432 l 1,3,-1
 340 605 l 1,4,-1
 342 615 l 1,5,-1
 1080 892 l 1,6,-1
 470 1169 l 1,7,-1
 472 1179 l 1,8,-1
 594 1352 l 1,9,-1
 1411 966 l 1,0,-1
244 191 m 1,10,-1
 246 201 l 1,11,-1
 367 373 l 1,12,-1
 1274 373 l 1,13,-1
 1272 363 l 1,14,-1
 1151 191 l 1,15,-1
 244 191 l 1,10,-1
EndSplineSet
Validated: 1
EndChar

StartChar: lozenge
Encoding: 9674 9674 193
Width: 1174
GlyphClass: 2
Flags: W
HStem: 0 21G<578.951 604.22>
DStem2: 667 287 587 0 0.652474 0.757811<0 560.287>
LayerCount: 2
Fore
SplineSet
667 287 m 1,0,-1
 1017 725 l 1,1,-1
 856 1200 l 1,2,-1
 502 754 l 1,3,-1
 667 287 l 1,0,-1
587 0 m 1,4,-1
 290 738 l 1,5,-1
 936 1510 l 1,6,-1
 1225 741 l 1,7,-1
 587 0 l 1,4,-1
EndSplineSet
Validated: 1
EndChar

StartChar: Oslash
Encoding: 216 216 194
Width: 1424
Flags: W
HStem: -40 21G<354.8 415.913> -20 170<605.973 906.964> 1360 170<867.555 1167.31> 1530 20G<1357.09 1417.08>
VStem: 287 201<323.761 780.647> 1286 199<729.531 1186.62>
DStem2: 299 10 402 -40 0.571314 0.820731<17.8088 129.88 381.435 1513.57 1764.3 1876.38>
LayerCount: 2
Fore
SplineSet
402 -40 m 1,0,-1
 392 -40 l 1,1,-1
 299 10 l 1,2,-1
 386 135 l 1,3,4
 340 200 340 200 312 288 c 0,5,6
 287 367 287 367 287 470 c 0,7,8
 287 596 287 596 324 755 c 0,9,10
 392 1047 392 1047 528 1222 c 0,11,12
 768 1530 768 1530 1065 1530 c 0,13,14
 1210 1530 1210 1530 1307 1458 c 1,15,-1
 1371 1550 l 1,16,-1
 1381 1550 l 1,17,-1
 1473 1499 l 1,18,-1
 1386 1375 l 1,19,20
 1432 1312 1432 1312 1460 1222 c 0,21,22
 1485 1142 1485 1142 1485 1039 c 0,23,24
 1485 913 1485 913 1448 755 c 0,25,26
 1380 465 1380 465 1244 288 c 0,27,28
 1007 -20 1007 -20 707 -20 c 0,29,30
 563 -20 563 -20 466 52 c 1,31,-1
 402 -40 l 1,0,-1
526 755 m 0,32,33
 488 591 488 591 488 481 c 0,34,35
 488 414 488 414 502 366 c 0,36,37
 507 349 507 349 517 323 c 1,38,-1
 1193 1294 l 1,39,40
 1129 1360 1129 1360 1026 1360 c 0,41,42
 848 1360 848 1360 684 1144 c 0,43,44
 586 1016 586 1016 526 755 c 0,32,33
1256 1188 m 1,45,-1
 581 217 l 1,46,47
 645 150 645 150 747 150 c 0,48,49
 930 150 930 150 1090 366 c 0,50,51
 1186 496 1186 496 1248 755 c 0,52,53
 1286 914 1286 914 1286 1026 c 0,54,55
 1286 1094 1286 1094 1272 1145 c 0,56,57
 1266 1167 1266 1167 1256 1188 c 1,45,-1
EndSplineSet
Validated: 1
EndChar

StartChar: oslash
Encoding: 248 248 195
Width: 1143
Flags: W
HStem: -40 21G<308.8 369.846> -20 170<512.962 729.063> 950 170<665.855 884.379> 1120 20G<1024.94 1085.47>
VStem: 251 198<298.289 614.132> 948 197<478.926 801.515>
DStem2: 253 10 356 -40 0.571022 0.820935<17.7685 101.603 349.813 1045.01 1293.35 1376.48>
LayerCount: 2
Fore
SplineSet
356 -40 m 1,0,-1
 346 -40 l 1,1,-1
 253 10 l 1,2,-1
 320 106 l 1,3,4
 291 151 291 151 271 211 c 0,5,6
 251 270 251 270 251 348 c 0,7,8
 251 437 251 437 277 550 c 0,9,10
 325 758 325 758 427 889 c 0,11,12
 606 1120 606 1120 830 1120 c 0,13,14
 927 1120 927 1120 994 1076 c 1,15,-1
 1039 1140 l 1,16,-1
 1049 1140 l 1,17,-1
 1142 1089 l 1,18,-1
 1077 995 l 1,19,20
 1106 950 1106 950 1125 889 c 0,21,22
 1145 825 1145 825 1145 746 c 0,23,24
 1145 657 1145 657 1120 550 c 0,25,26
 1071 341 1071 341 970 211 c 0,27,28
 791 -20 791 -20 566 -20 c 0,29,30
 469 -20 469 -20 401 25 c 1,31,-1
 356 -40 l 1,0,-1
885 918 m 1,32,33
 847 950 847 950 790 950 c 0,34,35
 675 950 675 950 579 817 c 0,36,37
 519 733 519 733 477 550 c 0,38,39
 449 427 449 427 449 350 c 0,40,41
 449 320 449 320 453 297 c 1,42,-1
 885 918 l 1,32,33
943 803 m 1,43,-1
 511 183 l 1,44,45
 549 150 549 150 606 150 c 0,46,47
 716 150 716 150 816 282 c 0,48,49
 887 375 887 375 923 550 c 0,50,51
 948 672 948 672 948 742 c 0,52,53
 948 777 948 777 943 803 c 1,43,-1
EndSplineSet
Validated: 1
EndChar

StartChar: multiply
Encoding: 215 215 196
Width: 1075
Flags: W
HStem: 425 660
DStem2: 265 496 434 425 0.776147 0.630552<86.3996 405.625 614.1 933.326> 586 1085 384 1014 0.61049 -0.792024<0 253.823 422.146 675.969>
LayerCount: 2
Fore
SplineSet
270 489 m 1,0,-1
 265 496 l 1,1,-1
 583 755 l 1,2,-1
 384 1014 l 1,3,-1
 393 1021 l 1,4,-1
 586 1085 l 1,5,-1
 741 884 l 1,6,-1
 989 1085 l 1,7,-1
 1154 1021 l 1,8,-1
 1159 1014 l 1,9,-1
 840 755 l 1,10,-1
 1040 496 l 1,11,-1
 1031 489 l 1,12,-1
 837 425 l 1,13,-1
 682 626 l 1,14,-1
 434 425 l 1,15,-1
 270 489 l 1,0,-1
EndSplineSet
Validated: 1
EndChar

StartChar: divide
Encoding: 247 247 197
Width: 1214
Flags: W
HStem: 305 245<631.965 781.834> 664 182<426 1136> 965 245<783.965 934.047>
VStem: 582 249<353.789 499.973> 734 249<1014.31 1159.97>
LayerCount: 2
Fore
SplineSet
738 1087 m 0,0,1
 750 1138 750 1138 793 1174 c 128,-1,2
 836 1210 836 1210 887 1210 c 128,-1,3
 938 1210 938 1210 964 1174 c 0,4,5
 983 1148 983 1148 983 1117 c 0,6,7
 983 1103 983 1103 979 1085 c 0,8,9
 966 1035 966 1035 924 1001 c 0,10,11
 880 965 880 965 829 965 c 0,12,13
 779 965 779 965 752 1002 c 0,14,15
 734 1026 734 1026 734 1054 c 0,16,17
 734 1069 734 1069 738 1087 c 0,0,1
586 427 m 0,18,19
 598 478 598 478 641 514 c 128,-1,20
 684 550 684 550 735 550 c 128,-1,21
 786 550 786 550 812 514 c 0,22,23
 831 488 831 488 831 457 c 0,24,25
 831 441 831 441 828 427 c 0,26,27
 817 377 817 377 772.5 341 c 128,-1,28
 728 305 728 305 677 305 c 0,29,30
 627 305 627 305 600 342 c 0,31,32
 582 367 582 367 582 394 c 0,33,34
 582 409 582 409 586 427 c 0,18,19
303 664 m 1,35,-1
 306 674 l 1,36,-1
 426 846 l 1,37,-1
 1259 846 l 1,38,-1
 1257 836 l 1,39,-1
 1136 664 l 1,40,-1
 303 664 l 1,35,-1
EndSplineSet
Validated: 1
EndChar

StartChar: uni1E02
Encoding: 7682 7682 198
Width: 1397
Flags: W
HStem: -40 21G<171 227.889> 0 170<663 963.194> 756 170<838 1077.37> 1360 170<895.367 1185> 1680 245<1033.96 1182.95>
VStem: 984 249<1729.31 1874.97> 1163 204<366.688 672.229> 1229 202<1054.11 1316.46>
DStem2: 171 -40 371.222 -40 0.224951 0.97437<137.407 1180.37>
LayerCount: 2
Fore
SplineSet
988 1802 m 0,0,1
 1000 1853 1000 1853 1043 1889 c 128,-1,2
 1086 1925 1086 1925 1137 1925 c 128,-1,3
 1188 1925 1188 1925 1214 1889 c 0,4,5
 1233 1863 1233 1863 1233 1832 c 0,6,7
 1233 1820 1233 1820 1229 1802 c 0,8,9
 1214 1749 1214 1749 1174 1716 c 0,10,11
 1130 1680 1130 1680 1079 1680 c 0,12,13
 1029 1680 1029 1680 1002 1717 c 0,14,15
 984 1741 984 1741 984 1770 c 0,16,17
 984 1784 984 1784 988 1802 c 0,0,1
171 -40 m 9,18,-1
 354 755 l 2,19,20
 421 1046 421 1046 558 1222 c 0,21,22
 798 1530 798 1530 1095 1530 c 0,23,24
 1263 1530 1263 1530 1355 1438 c 0,25,26
 1431 1362 1431 1362 1431 1243 c 0,27,28
 1431 1196 1431 1196 1419 1141 c 0,29,30
 1382 970 1382 970 1201 855 c 1,31,32
 1247 834 1247 834 1284 792 c 0,33,34
 1367 699 1367 699 1367 571 c 0,35,36
 1367 520 1367 520 1354 462 c 0,37,38
 1306 262 1306 262 1151 137 c 0,39,40
 981 0 981 0 742 0 c 2,41,-1
 549 0 l 1,42,-1
 551 10 l 1,43,-1
 663 170 l 1,44,-1
 781 170 l 2,45,46
 927 170 927 170 1042 268 c 0,47,48
 1124 338 1124 338 1152 456 c 0,49,50
 1163 502 1163 502 1163 542 c 0,51,52
 1163 607 1163 607 1133 654 c 0,53,54
 1068 756 1068 756 917 756 c 2,55,-1
 724 756 l 1,56,-1
 726 766 l 1,57,-1
 838 926 l 1,58,-1
 956 926 l 2,59,60
 1057 926 1057 926 1132 991 c 0,61,62
 1200 1050 1200 1050 1222 1146 c 0,63,64
 1229 1177 1229 1177 1229 1205 c 0,65,66
 1229 1259 1229 1259 1200 1300 c 0,67,68
 1156 1360 1156 1360 1056 1360 c 0,69,70
 870 1360 870 1360 712 1144 c 0,71,72
 613 1009 613 1009 554 755 c 2,73,-1
 392 50 l 17,74,-1
 181 -40 l 1,75,-1
 171 -40 l 9,18,-1
EndSplineSet
Validated: 1
EndChar

StartChar: uni1E03
Encoding: 7683 7683 199
Width: 1173
Flags: W
HStem: -20 170<531.275 759.326> 950 170<860 925.737> 1285 245<927.965 1076.95> 1530 20G<681.111 738>
VStem: 281 198<204.005 616.797> 878 249<1334.31 1479.97> 978 197<485.282 895.765>
DStem2: 175.405 -20 375.405 -20 0.224951 0.97437<429.22 1518.91>
LayerCount: 2
Fore
SplineSet
882 1407 m 0,0,1
 894 1458 894 1458 937 1494 c 128,-1,2
 980 1530 980 1530 1031 1530 c 128,-1,3
 1082 1530 1082 1530 1108 1494 c 0,4,5
 1127 1468 1127 1468 1127 1437 c 0,6,7
 1127 1425 1127 1425 1123 1407 c 0,8,9
 1108 1354 1108 1354 1068 1321 c 0,10,11
 1024 1285 1024 1285 973 1285 c 0,12,13
 923 1285 923 1285 896 1322 c 0,14,15
 878 1346 878 1346 878 1375 c 0,16,17
 878 1389 878 1389 882 1407 c 0,0,1
517 1460 m 1,18,-1
 728 1550 l 1,19,-1
 738 1550 l 1,20,-1
 507 550 l 2,21,22
 479 425 479 425 479 348 c 0,23,24
 479 310 479 310 486 282 c 0,25,26
 524 150 524 150 636 150 c 0,27,28
 749 150 749 150 846 282 c 0,29,30
 907 365 907 365 950 550 c 0,31,32
 978 671 978 671 978 748 c 0,33,34
 978 789 978 789 970 818 c 0,35,36
 934 949 934 949 822 950 c 1,37,-1
 745 950 l 1,38,-1
 748 960 l 1,39,-1
 860 1120 l 1,40,41
 1082 1120 1082 1120 1155 889 c 0,42,43
 1175 826 1175 826 1175 747 c 0,44,45
 1175 658 1175 658 1150 550 c 0,46,47
 1101 340 1101 340 1000 211 c 0,48,49
 819 -20 819 -20 596 -20 c 0,50,51
 378 -20 378 -20 301 211 c 0,52,53
 281 271 281 271 281 349 c 0,54,55
 281 437 281 437 307 550 c 2,56,-1
 517 1460 l 1,18,-1
EndSplineSet
Validated: 1
EndChar

StartChar: uni1E0A
Encoding: 7690 7690 200
Width: 1454
Flags: W
HStem: -40 21G<171 227.889> 0 170<663 937.707> 1360 170<895.367 1195.57> 1680 245<1054.96 1203.95>
VStem: 1005 249<1729.31 1874.97> 1314 200<722.637 1222.41>
DStem2: 171 -40 371.222 -40 0.224951 0.97437<137.407 1180.37>
LayerCount: 2
Fore
SplineSet
1009 1802 m 0,0,1
 1021 1853 1021 1853 1064 1889 c 128,-1,2
 1107 1925 1107 1925 1158 1925 c 128,-1,3
 1209 1925 1209 1925 1235 1889 c 0,4,5
 1254 1863 1254 1863 1254 1832 c 0,6,7
 1254 1820 1254 1820 1250 1802 c 0,8,9
 1235 1749 1235 1749 1195 1716 c 0,10,11
 1151 1680 1151 1680 1100 1680 c 0,12,13
 1050 1680 1050 1680 1023 1717 c 0,14,15
 1005 1741 1005 1741 1005 1770 c 0,16,17
 1005 1784 1005 1784 1009 1802 c 0,0,1
171 -40 m 9,18,-1
 354 755 l 2,19,20
 421 1046 421 1046 558 1222 c 0,21,22
 798 1530 798 1530 1095 1530 c 0,23,24
 1396 1530 1396 1530 1490 1222 c 0,25,26
 1514 1143 1514 1143 1514 1041 c 0,27,28
 1514 917 1514 917 1478 755 c 0,29,30
 1421 503 1421 503 1278 314 c 0,31,32
 1043 0 1043 0 742 0 c 2,33,-1
 549 0 l 1,34,-1
 551 10 l 1,35,-1
 663 170 l 1,36,-1
 781 170 l 2,37,38
 966 170 966 170 1124 392 c 0,39,40
 1228 538 1228 538 1278 755 c 0,41,42
 1314 911 1314 911 1314 1022 c 0,43,44
 1314 1091 1314 1091 1300 1144 c 0,45,46
 1243 1360 1243 1360 1056 1360 c 0,47,48
 870 1360 870 1360 712 1144 c 0,49,50
 613 1009 613 1009 554 755 c 2,51,-1
 392 50 l 17,52,-1
 181 -40 l 1,53,-1
 171 -40 l 9,18,-1
EndSplineSet
Validated: 1
EndChar

StartChar: uni1E0B
Encoding: 7691 7691 201
Width: 1173
Flags: W
HStem: -20 170<501.656 730.737> 930 170<429 562> 1285 245<714.965 863.947> 1530 20G<1295.11 1352>
VStem: 252 197<204.005 605.097> 665 249<1334.31 1479.97>
DStem2: 788.405 -20 989.405 -20 0.224951 0.97437<329.774 1519.13>
LayerCount: 2
Fore
SplineSet
669 1407 m 0,0,1
 681 1458 681 1458 724 1494 c 128,-1,2
 767 1530 767 1530 818 1530 c 128,-1,3
 869 1530 869 1530 895 1494 c 0,4,5
 914 1468 914 1468 914 1437 c 0,6,7
 914 1425 914 1425 910 1407 c 0,8,9
 895 1354 895 1354 855 1321 c 0,10,11
 811 1285 811 1285 760 1285 c 0,12,13
 710 1285 710 1285 683 1322 c 0,14,15
 665 1346 665 1346 665 1375 c 0,16,17
 665 1389 665 1389 669 1407 c 0,0,1
1352 1550 m 1,18,-1
 1121 550 l 2,19,20
 1073 341 1073 341 971 211 c 0,21,22
 790 -20 790 -20 567 -20 c 0,23,24
 348 -20 348 -20 272 211 c 0,25,26
 252 272 252 272 252 351 c 0,27,28
 252 439 252 439 277 550 c 0,29,30
 333 792 333 792 562 930 c 1,31,-1
 315 930 l 1,32,-1
 317 940 l 1,33,-1
 429 1100 l 1,34,-1
 897 1100 l 1,35,-1
 895 1090 l 1,36,-1
 783 930 l 1,37,38
 643 846 643 846 580 766 c 0,39,40
 505 670 505 670 477 550 c 0,41,42
 449 429 449 429 449 352 c 0,43,44
 449 311 449 311 457 282 c 0,45,46
 493 150 493 150 607 150 c 128,-1,47
 721 150 721 150 818 283 c 0,48,49
 877 364 877 364 920 550 c 2,50,-1
 1131 1460 l 1,51,-1
 1342 1550 l 1,52,-1
 1352 1550 l 1,18,-1
EndSplineSet
Validated: 1
EndChar

StartChar: uni1E1E
Encoding: 7710 7710 202
Width: 1228
Flags: W
HStem: -40 21G<171 227.889> 670 170<576 1030> 1360 170<895.367 1195.03> 1680 245<1090.96 1239.95>
VStem: 1041 249<1729.31 1874.97>
DStem2: 171 -40 371.222 -40 0.224951 0.97437<137.407 773.685>
LayerCount: 2
Fore
SplineSet
1045 1802 m 0,0,1
 1057 1853 1057 1853 1100 1889 c 128,-1,2
 1143 1925 1143 1925 1194 1925 c 128,-1,3
 1245 1925 1245 1925 1271 1889 c 0,4,5
 1290 1863 1290 1863 1290 1832 c 0,6,7
 1290 1820 1290 1820 1286 1802 c 0,8,9
 1271 1749 1271 1749 1231 1716 c 0,10,11
 1187 1680 1187 1680 1136 1680 c 0,12,13
 1086 1680 1086 1680 1059 1717 c 0,14,15
 1041 1741 1041 1741 1041 1770 c 0,16,17
 1041 1784 1041 1784 1045 1802 c 0,0,1
171 -40 m 9,18,-1
 354 755 l 2,19,20
 422 1048 422 1048 558 1222 c 0,21,22
 798 1530 798 1530 1095 1530 c 0,23,24
 1394 1530 1394 1530 1490 1222 c 1,25,-1
 1310 1144 l 1,26,-1
 1300 1144 l 1,27,28
 1242 1360 1242 1360 1056 1360 c 128,-1,29
 870 1360 870 1360 712 1144 c 0,30,31
 631 1033 631 1033 576 840 c 1,32,-1
 1144 840 l 1,33,-1
 1142 830 l 1,34,-1
 1030 670 l 1,35,-1
 535 670 l 1,36,-1
 392 50 l 17,37,-1
 181 -40 l 1,38,-1
 171 -40 l 9,18,-1
EndSplineSet
Validated: 1
EndChar

StartChar: uni1E1F
Encoding: 7711 7711 203
Width: 836
Flags: W
HStem: -40 21G<171 227.889> 830 170<611 853> 1360 170<793.406 974> 1680 245<801.965 950.947>
VStem: 752 249<1729.31 1874.97>
DStem2: 171 -40 371.222 -40 0.224951 0.97437<137.407 937.907>
LayerCount: 2
Fore
SplineSet
756 1802 m 0,0,1
 768 1853 768 1853 811 1889 c 128,-1,2
 854 1925 854 1925 905 1925 c 128,-1,3
 956 1925 956 1925 982 1889 c 0,4,5
 1001 1863 1001 1863 1001 1832 c 0,6,7
 1001 1820 1001 1820 997 1802 c 0,8,9
 982 1749 982 1749 942 1716 c 0,10,11
 898 1680 898 1680 847 1680 c 0,12,13
 797 1680 797 1680 770 1717 c 0,14,15
 752 1741 752 1741 752 1770 c 0,16,17
 752 1784 752 1784 756 1802 c 0,0,1
171 -40 m 1,18,-1
 402 960 l 2,19,20
 450 1168 450 1168 552 1299 c 0,21,22
 732 1530 732 1530 954 1530 c 2,23,-1
 1089 1530 l 1,24,-1
 1087 1520 l 1,25,-1
 974 1360 l 1,26,-1
 915 1360 l 2,27,28
 804 1360 804 1360 705 1228 c 0,29,30
 652 1157 652 1157 611 1000 c 1,31,-1
 967 1000 l 1,32,-1
 965 990 l 1,33,-1
 853 830 l 1,34,-1
 572 830 l 1,35,-1
 392 50 l 1,36,-1
 181 -40 l 1,37,-1
 171 -40 l 1,18,-1
EndSplineSet
Validated: 1
EndChar

StartChar: uni1E40
Encoding: 7744 7744 204
Width: 2348
Flags: W
HStem: -40 21G<488 613.631 1065 1121.89> 0 170<2003 2173> 1360 170<865.142 1168.59 1790.4 2093.23> 1680 245<1545.96 1694.95>
VStem: 288 200<286.539 788.547> 1496 249<1729.31 1874.97> 2208 201<726.289 1222.41>
DStem2: 1065 -40 1265.22 -40 0.224951 0.97437<137.407 1080.65>
LayerCount: 2
Fore
SplineSet
1500 1802 m 0,0,1
 1512 1853 1512 1853 1555 1889 c 128,-1,2
 1598 1925 1598 1925 1649 1925 c 128,-1,3
 1700 1925 1700 1925 1726 1889 c 0,4,5
 1745 1863 1745 1863 1745 1832 c 0,6,7
 1745 1820 1745 1820 1741 1802 c 0,8,9
 1726 1749 1726 1749 1686 1716 c 0,10,11
 1642 1680 1642 1680 1591 1680 c 0,12,13
 1541 1680 1541 1680 1514 1717 c 0,14,15
 1496 1741 1496 1741 1496 1770 c 0,16,17
 1496 1784 1496 1784 1500 1802 c 0,0,1
1065 -40 m 1,18,-1
 1248 755 l 2,19,20
 1284 911 1284 911 1284 1022 c 0,21,22
 1284 1091 1284 1091 1270 1144 c 0,23,24
 1213 1360 1213 1360 1026 1360 c 0,25,26
 840 1360 840 1360 682 1144 c 0,27,28
 582 1007 582 1007 524 755 c 0,29,30
 488 598 488 598 488 487 c 0,31,32
 488 418 488 418 502 366 c 0,33,34
 548 193 548 193 708 109 c 1,35,-1
 599 -40 l 1,36,-1
 589 -40 l 1,37,38
 387 34 387 34 312 288 c 0,39,40
 288 369 288 369 288 472 c 0,41,42
 288 597 288 597 324 755 c 0,43,44
 392 1047 392 1047 528 1222 c 0,45,46
 767 1530 767 1530 1065 1530 c 0,47,48
 1359 1530 1359 1530 1458 1229 c 1,49,50
 1695 1530 1695 1530 1989 1530 c 0,51,52
 2287 1530 2287 1530 2384 1222 c 0,53,54
 2409 1143 2409 1143 2409 1040 c 0,55,56
 2409 914 2409 914 2372 755 c 0,57,58
 2303 458 2303 458 2170 312 c 0,59,60
 2087 221 2087 221 2003 170 c 1,61,-1
 2287 170 l 1,62,-1
 2285 160 l 1,63,-1
 2173 0 l 1,64,-1
 1620 0 l 1,65,-1
 1622 10 l 1,66,-1
 1734 170 l 1,67,68
 1880 216 1880 216 1993 358 c 0,69,70
 2116 513 2116 513 2172 755 c 0,71,72
 2208 911 2208 911 2208 1022 c 0,73,74
 2208 1091 2208 1091 2194 1144 c 0,75,76
 2137 1360 2137 1360 1950 1360 c 0,77,78
 1764 1360 1764 1360 1606 1144 c 0,79,80
 1507 1009 1507 1009 1448 755 c 2,81,-1
 1286 50 l 1,82,-1
 1075 -40 l 1,83,-1
 1065 -40 l 1,18,-1
EndSplineSet
Validated: 1
EndChar

StartChar: uni1E41
Encoding: 7745 7745 205
Width: 1786
Flags: W
HStem: -40 21G<393.5 496.631 784 840.889> 0 170<1478 1611> 950 170<667.439 897.034 1309.42 1539.35> 1285 245<1137.96 1286.95>
VStem: 254 197<183.759 619.964> 1088 249<1334.31 1479.97> 1591 198<491.5 897.3>
DStem2: 784 -40 984.222 -40 0.224951 0.97437<137.407 805.231>
LayerCount: 2
Fore
SplineSet
1092 1407 m 0,0,1
 1104 1458 1104 1458 1147 1494 c 128,-1,2
 1190 1530 1190 1530 1241 1530 c 128,-1,3
 1292 1530 1292 1530 1318 1494 c 0,4,5
 1337 1468 1337 1468 1337 1437 c 0,6,7
 1337 1425 1337 1425 1333 1407 c 0,8,9
 1318 1354 1318 1354 1278 1321 c 0,10,11
 1234 1285 1234 1285 1183 1285 c 0,12,13
 1133 1285 1133 1285 1106 1322 c 0,14,15
 1088 1346 1088 1346 1088 1375 c 0,16,17
 1088 1389 1088 1389 1092 1407 c 0,0,1
784 -40 m 1,18,-1
 920 550 l 2,19,20
 948 673 948 673 948 751 c 0,21,22
 948 790 948 790 941 818 c 0,23,24
 908 950 908 950 791 950 c 0,25,26
 678 950 678 950 581 818 c 0,27,28
 521 736 521 736 477 550 c 0,29,30
 451 440 451 440 451 356 c 0,31,32
 451 315 451 315 457 282 c 0,33,34
 481 151 481 151 591 109 c 1,35,-1
 482 -40 l 1,36,-1
 472 -40 l 1,37,38
 315 28 315 28 271 211 c 0,39,40
 254 281 254 281 254 359 c 0,41,42
 254 448 254 448 277 550 c 0,43,44
 324 756 324 756 427 889 c 0,45,46
 607 1120 607 1120 831 1120 c 0,47,48
 1030 1120 1030 1120 1109 936 c 1,49,50
 1274 1120 1274 1120 1473 1120 c 0,51,52
 1694 1120 1694 1120 1769 889 c 0,53,54
 1789 827 1789 827 1789 749 c 0,55,56
 1789 658 1789 658 1763 550 c 0,57,58
 1707 308 1707 308 1478 170 c 1,59,-1
 1725 170 l 1,60,-1
 1723 160 l 1,61,-1
 1611 0 l 1,62,-1
 1143 0 l 1,63,-1
 1145 10 l 1,64,-1
 1257 170 l 1,65,66
 1399 255 1399 255 1460 334 c 0,67,68
 1536 431 1536 431 1563 550 c 0,69,70
 1591 671 1591 671 1591 749 c 0,71,72
 1591 790 1591 790 1583 818 c 0,73,74
 1550 950 1550 950 1433 950 c 0,75,76
 1320 950 1320 950 1223 818 c 0,77,78
 1163 736 1163 736 1120 550 c 2,79,-1
 1005 50 l 1,80,-1
 794 -40 l 1,81,-1
 784 -40 l 1,18,-1
EndSplineSet
Validated: 1
EndChar

StartChar: uni1E56
Encoding: 7766 7766 206
Width: 1374
Flags: W
HStem: -40 21G<171 227.889> 500 170<729 1064.85> 1360 170<895.863 1199.78> 1680 245<1058.96 1207.95>
VStem: 1009 249<1729.31 1874.97> 1299 202<914.667 1262.59>
DStem2: 171 -40 371.222 -40 0.224951 0.97437<137.407 1180.77>
LayerCount: 2
Fore
SplineSet
1013 1802 m 0,0,1
 1025 1853 1025 1853 1068 1889 c 128,-1,2
 1111 1925 1111 1925 1162 1925 c 128,-1,3
 1213 1925 1213 1925 1239 1889 c 0,4,5
 1258 1863 1258 1863 1258 1832 c 0,6,7
 1258 1820 1258 1820 1254 1802 c 0,8,9
 1239 1749 1239 1749 1199 1716 c 0,10,11
 1155 1680 1155 1680 1104 1680 c 0,12,13
 1054 1680 1054 1680 1027 1717 c 0,14,15
 1009 1741 1009 1741 1009 1770 c 0,16,17
 1009 1784 1009 1784 1013 1802 c 0,0,1
171 -40 m 1,18,-1
 354 755 l 2,19,20
 421 1046 421 1046 558 1222 c 0,21,22
 798 1530 798 1530 1095 1530 c 0,23,24
 1345 1530 1345 1530 1446 1346 c 16,25,26
 1501 1246 1501 1246 1501 1131 c 0,27,28
 1501 1070 1501 1070 1486 1005 c 0,29,30
 1446 832 1446 832 1291 684 c 0,31,32
 1099 500 1099 500 807 500 c 2,33,-1
 614 500 l 1,34,-1
 617 510 l 1,35,-1
 729 670 l 1,36,-1
 847 670 l 2,37,38
 1035 670 1035 670 1137 762 c 0,39,40
 1254 868 1254 868 1286 1005 c 0,41,42
 1299 1061 1299 1061 1299 1109 c 0,43,44
 1299 1202 1299 1202 1251 1267 c 0,45,46
 1182 1360 1182 1360 1056 1360 c 0,47,48
 872 1360 872 1360 712 1144 c 0,49,50
 613 1010 613 1010 554 755 c 2,51,-1
 392 50 l 1,52,-1
 181 -40 l 1,53,-1
 171 -40 l 1,18,-1
EndSplineSet
Validated: 1
EndChar

StartChar: uni1E57
Encoding: 7767 7767 207
Width: 1163
Flags: W
HStem: -450 21G<66 122.889> 0 170<856 989> 950 170<687.263 916.832> 1285 245<870.965 1019.95>
VStem: 821 249<1334.31 1479.97> 969 197<491.688 897.3>
DStem2: 66 -450 266.222 -450 0.224951 0.97437<137.407 1326.77>
LayerCount: 2
Fore
SplineSet
825 1407 m 0,0,1
 837 1458 837 1458 880 1494 c 128,-1,2
 923 1530 923 1530 974 1530 c 128,-1,3
 1025 1530 1025 1530 1051 1494 c 0,4,5
 1070 1468 1070 1468 1070 1437 c 0,6,7
 1070 1425 1070 1425 1066 1407 c 0,8,9
 1051 1354 1051 1354 1011 1321 c 0,10,11
 967 1285 967 1285 916 1285 c 0,12,13
 866 1285 866 1285 839 1322 c 0,14,15
 821 1346 821 1346 821 1375 c 0,16,17
 821 1389 821 1389 825 1407 c 0,0,1
66 -450 m 1,18,-1
 297 550 l 2,19,20
 345 759 345 759 447 889 c 0,21,22
 628 1120 628 1120 851 1120 c 0,23,24
 1070 1120 1070 1120 1146 889 c 0,25,26
 1166 828 1166 828 1166 749 c 0,27,28
 1166 662 1166 662 1141 550 c 0,29,30
 1085 308 1085 308 856 170 c 1,31,-1
 1103 170 l 1,32,-1
 1101 160 l 1,33,-1
 989 0 l 1,34,-1
 521 0 l 1,35,-1
 523 10 l 1,36,-1
 635 170 l 1,37,38
 776 255 776 255 838 334 c 0,39,40
 914 432 914 432 941 550 c 0,41,42
 969 673 969 673 969 750 c 0,43,44
 969 790 969 790 961 818 c 0,45,46
 927 950 927 950 811 950 c 0,47,48
 697 950 697 950 600 817 c 0,49,50
 541 736 541 736 498 550 c 2,51,-1
 287 -360 l 1,52,-1
 76 -450 l 1,53,-1
 66 -450 l 1,18,-1
EndSplineSet
Validated: 1
EndChar

StartChar: uni1E6A
Encoding: 7786 7786 208
Width: 1066
Flags: W
HStem: -40 21G<424 480.889> 1340 170<501.112 743 943 1295> 1680 245<867.965 1016.95>
VStem: 818 249<1729.31 1874.97>
DStem2: 424 -40 624.222 -40 0.224951 0.97437<137.407 1416.39>
LayerCount: 2
Fore
SplineSet
822 1802 m 0,0,1
 834 1853 834 1853 877 1889 c 128,-1,2
 920 1925 920 1925 971 1925 c 128,-1,3
 1022 1925 1022 1925 1048 1889 c 0,4,5
 1067 1863 1067 1863 1067 1832 c 0,6,7
 1067 1820 1067 1820 1063 1802 c 0,8,9
 1048 1749 1048 1749 1008 1716 c 0,10,11
 964 1680 964 1680 913 1680 c 0,12,13
 863 1680 863 1680 836 1717 c 0,14,15
 818 1741 818 1741 818 1770 c 0,16,17
 818 1784 818 1784 822 1802 c 0,0,1
424 -40 m 1,18,-1
 743 1340 l 25,19,-1
 622 1340 l 18,20,21
 503 1340 503 1340 447 1223 c 1,22,-1
 437 1223 l 1,23,-1
 304 1294 l 1,24,25
 413 1510 413 1510 662 1510 c 2,26,-1
 1410 1510 l 17,27,-1
 1407 1500 l 1,28,-1
 1295 1340 l 1,29,-1
 943 1340 l 1,30,-1
 645 50 l 1,31,-1
 434 -40 l 1,32,-1
 424 -40 l 1,18,-1
EndSplineSet
Validated: 1
EndChar

StartChar: uni1E6B
Encoding: 7787 7787 209
Width: 754
Flags: W
HStem: -40 21G<413.5 532> 930 170<349 492 731 874> 1530 20G<778.111 835> 1680 245<724.965 873.947>
VStem: 675 249<1729.31 1874.97>
DStem2: 267.594 -40 467.594 -40 0.224951 0.97437<229.675 995.619 1215.03 1539.48>
LayerCount: 2
Fore
SplineSet
679 1802 m 0,0,1
 691 1853 691 1853 734 1889 c 128,-1,2
 777 1925 777 1925 828 1925 c 128,-1,3
 879 1925 879 1925 905 1889 c 0,4,5
 924 1863 924 1863 924 1832 c 0,6,7
 924 1820 924 1820 920 1802 c 0,8,9
 905 1749 905 1749 865 1716 c 0,10,11
 821 1680 821 1680 770 1680 c 0,12,13
 720 1680 720 1680 693 1717 c 0,14,15
 675 1741 675 1741 675 1770 c 0,16,17
 675 1784 675 1784 679 1802 c 0,0,1
518 -40 m 1,18,19
 309 -40 309 -40 309 110 c 0,20,21
 309 139 309 139 317 174 c 2,22,-1
 492 930 l 1,23,-1
 235 930 l 1,24,-1
 237 940 l 1,25,-1
 349 1100 l 1,26,-1
 531 1100 l 1,27,-1
 614 1460 l 1,28,-1
 825 1550 l 1,29,-1
 835 1550 l 1,30,-1
 731 1100 l 1,31,-1
 988 1100 l 1,32,-1
 986 1090 l 1,33,-1
 874 930 l 1,34,-1
 692 930 l 1,35,-1
 517 174 l 2,36,37
 507 130 507 130 555 130 c 2,38,-1
 632 130 l 1,39,-1
 630 120 l 1,40,-1
 518 -40 l 1,18,19
EndSplineSet
Validated: 1
EndChar

StartChar: uni1E60
Encoding: 7776 7776 210
Width: 1210
Flags: W
HStem: -20 170<481.365 781.074> 1360 170<784.401 1035.1> 1680 245<938.965 1087.95>
VStem: 453 207<1021.97 1233.37> 889 249<1729.31 1874.97> 1006 207<380.137 659.292>
LayerCount: 2
Fore
SplineSet
893 1802 m 0,0,1
 905 1853 905 1853 948 1889 c 128,-1,2
 991 1925 991 1925 1042 1925 c 128,-1,3
 1093 1925 1093 1925 1119 1889 c 0,4,5
 1138 1863 1138 1863 1138 1832 c 0,6,7
 1138 1820 1138 1820 1134 1802 c 0,8,9
 1119 1749 1119 1749 1079 1716 c 0,10,11
 1035 1680 1035 1680 984 1680 c 0,12,13
 934 1680 934 1680 907 1717 c 0,14,15
 889 1741 889 1741 889 1770 c 0,16,17
 889 1784 889 1784 893 1802 c 0,0,1
186 288 m 1,18,-1
 366 366 l 1,19,-1
 376 366 l 1,20,21
 435 150 435 150 621 150 c 0,22,23
 750 150 750 150 876 265 c 0,24,25
 966 347 966 347 998 478 c 0,26,27
 1006 511 1006 511 1006 540 c 0,28,29
 1006 601 1006 601 973 646 c 0,30,31
 914 726 914 726 779 756 c 0,32,33
 631 789 631 789 539 868 c 0,34,35
 453 942 453 942 453 1054 c 0,36,37
 453 1090 453 1090 462 1132 c 0,38,39
 505 1313 505 1313 660 1428 c 0,40,41
 797 1530 797 1530 969 1530 c 16,42,43
 1193 1530 1193 1530 1265 1302 c 1,44,-1
 1089 1227 l 1,45,-1
 1079 1227 l 1,46,47
 1043 1360 1043 1360 930 1360 c 16,48,49
 835 1360 835 1360 761 1299 c 0,50,51
 688 1239 688 1239 666 1147 c 0,52,53
 660 1122 660 1122 660 1101 c 0,54,55
 660 1052 660 1052 690 1021 c 0,56,57
 744 963 744 963 877 935 c 0,58,59
 1057 897 1057 897 1149 779 c 0,60,61
 1213 697 1213 697 1213 584 c 0,62,63
 1213 530 1213 530 1199 472 c 0,64,65
 1157 285 1157 285 976 132 c 0,66,67
 796 -20 796 -20 581 -20 c 0,68,69
 282 -20 282 -20 186 288 c 1,18,-1
EndSplineSet
Validated: 1
EndChar

StartChar: uni1E61
Encoding: 7777 7777 211
Width: 1003
Flags: W
HStem: -20 170<396.996 654.222> 950 170<594.889 793.408> 1285 245<734.965 883.947>
VStem: 345 196<727.154 894.677> 685 249<1334.31 1479.97> 773 199<267.778 472.282>
LayerCount: 2
Fore
SplineSet
689 1407 m 0,0,1
 701 1458 701 1458 744 1494 c 128,-1,2
 787 1530 787 1530 838 1530 c 128,-1,3
 889 1530 889 1530 915 1494 c 0,4,5
 934 1468 934 1468 934 1437 c 0,6,7
 934 1425 934 1425 930 1407 c 0,8,9
 915 1354 915 1354 875 1321 c 0,10,11
 831 1285 831 1285 780 1285 c 0,12,13
 730 1285 730 1285 703 1322 c 0,14,15
 685 1346 685 1346 685 1375 c 0,16,17
 685 1389 685 1389 689 1407 c 0,0,1
168 208 m 1,18,-1
 343 282 l 1,19,-1
 353 282 l 1,20,21
 389 150 389 150 503 150 c 0,22,23
 612 150 612 150 689 222 c 0,24,25
 751 280 751 280 768 351 c 0,26,27
 773 372 773 372 773 391 c 0,28,29
 773 437 773 437 743 467 c 0,30,31
 699 511 699 511 601 527 c 0,32,33
 476 547 476 547 411 603 c 0,34,35
 345 660 345 660 345 752 c 0,36,37
 345 785 345 785 354 825 c 0,38,39
 385 962 385 962 535 1055 c 0,40,41
 640 1120 640 1120 757 1120 c 0,42,43
 954 1120 954 1120 999 930 c 1,44,-1
 824 856 l 1,45,-1
 814 856 l 1,46,47
 790 950 790 950 717 950 c 0,48,49
 657 950 657 950 613 920 c 0,50,51
 561 885 561 885 545 821 c 0,52,53
 541 805 541 805 541 792 c 0,54,55
 541 752 541 752 574 733 c 0,56,57
 620 706 620 706 719 684 c 0,58,59
 844 657 844 657 909 595 c 0,60,61
 972 535 972 535 972 433 c 0,62,63
 972 391 972 391 961 340 c 0,64,65
 933 211 933 211 789 92 c 0,66,67
 653 -20 653 -20 463 -20 c 0,68,69
 239 -20 239 -20 168 208 c 1,18,-1
EndSplineSet
Validated: 1
EndChar

StartChar: Wgrave
Encoding: 7808 7808 212
Width: 2348
Flags: W
HStem: -20 170<607.612 905.315 1532.37 1830.96> 1340 170<524 693> 1530 20G<1575.11 1632 2083.23 2208.5>
VStem: 287 201<287.589 783.432> 2208 200<721.57 1223.46>
DStem2: 1069.08 -20 1269.08 -20 0.224951 0.97437<573.565 1518.98>
LayerCount: 2
Fore
SplineSet
1632 1550 m 1,0,-1
 1448 755 l 2,1,2
 1412 597 1412 597 1412 486 c 0,3,4
 1412 416 1412 416 1426 366 c 0,5,6
 1486 150 1486 150 1671 150 c 0,7,8
 1854 150 1854 150 2014 366 c 0,9,10
 2114 501 2114 501 2172 755 c 0,11,12
 2208 913 2208 913 2208 1023 c 0,13,14
 2208 1092 2208 1092 2194 1144 c 0,15,16
 2147 1317 2147 1317 1988 1401 c 1,17,-1
 2098 1550 l 1,18,-1
 2108 1550 l 1,19,20
 2309 1476 2309 1476 2384 1222 c 0,21,22
 2408 1141 2408 1141 2408 1038 c 0,23,24
 2408 916 2408 916 2372 755 c 0,25,26
 2305 467 2305 467 2168 288 c 0,27,28
 1931 -20 1931 -20 1631 -20 c 0,29,30
 1337 -20 1337 -20 1239 281 c 1,31,32
 1001 -20 1001 -20 707 -20 c 0,33,34
 408 -20 408 -20 312 288 c 0,35,36
 287 368 287 368 287 471 c 0,37,38
 287 597 287 597 324 755 c 0,39,40
 393 1051 393 1051 527 1198 c 0,41,42
 611 1290 611 1290 693 1340 c 1,43,-1
 409 1340 l 1,44,-1
 412 1350 l 1,45,-1
 524 1510 l 1,46,-1
 1077 1510 l 1,47,-1
 1074 1500 l 1,48,-1
 962 1340 l 1,49,50
 816 1294 816 1294 704 1152 c 0,51,52
 578 993 578 993 524 755 c 0,53,54
 488 597 488 597 488 486 c 0,55,56
 488 416 488 416 502 366 c 0,57,58
 562 150 562 150 747 150 c 0,59,60
 930 150 930 150 1090 366 c 0,61,62
 1190 501 1190 501 1248 755 c 2,63,-1
 1411 1460 l 1,64,-1
 1622 1550 l 1,65,-1
 1632 1550 l 1,0,-1
1505 1966 m 1,66,-1
 1515 1966 l 1,67,-1
 1597 1621 l 1,68,-1
 1468 1566 l 1,69,-1
 1458 1566 l 1,70,-1
 1309 1882 l 1,71,-1
 1505 1966 l 1,66,-1
EndSplineSet
Validated: 1
EndChar

